<?xml version="1.0" standalone="no"?><!DOCTYPE svg PUBLIC "-//W3C//DTD SVG 1.1//EN" "http://www.w3.org/Graphics/SVG/1.1/DTD/svg11.dtd" ><svg xmlns="http://www.w3.org/2000/svg"><metadata></metadata><defs><font id="方圆体 W7:Version 1.301" horiz-adv-x="1000"><font-face font-family="FangYuanTi" font-weight="400" font-stretch="normal" units-per-em="1000" panose-1="4 11 7 0 0 0 0 0 0 0" ascent="860" descent="-140" x-height="0" bbox="0 -140 1000 859" underline-thickness="50" underline-position="-100" unicode-range="U+0020-ff5e" /><missing-glyph horiz-adv-x="1000"  /><glyph glyph-name="" unicode="!" d="M293 602 q0 -15 -10 -72 l-64 -336 l-90 12 l46 385 q9 73 63 73 q55 0 55 -62 ZM247 0 q-127 36 -168 49 q-39 12 -39 39 q0 46 41 46 q14 0 190 -50 l-24 -84 Z" /><glyph glyph-name="" unicode="&quot;" d="M272 517 q-3 -72 -54 -72 q-40 0 -40 66 q0 51 3 93 q3 60 50 60 q41 0 41 -67 l0 -80 ZM144 517 q-3 -72 -53 -72 q-41 0 -41 66 q0 51 3 93 q3 60 51 60 q40 0 40 -67 l0 -80 Z" /><glyph glyph-name="" unicode="#" d="M731 462 q0 -19 -15 -34 q-16 -15 -40 -15 l-108 0 l-29 -158 l107 0 q24 0 39 -15 q15 -16 15 -37 q0 -19 -15 -33 q-15 -15 -39 -15 l-124 0 l-28 -154 l-104 0 l28 154 l-177 0 l-27 -154 l-104 0 l28 154 l-117 0 l0 100 l136 0 l29 158 l-134 0 l0 101 l152 0 l20 110 q6 40 53 40 q47 0 47 -46 l-18 -104 l178 0 l20 110 q6 40 53 40 q47 0 47 -46 l-18 -104 l90 0 q24 0 40 -16 q15 -16 15 -36 ZM465 413 l-177 0 l-29 -158 l177 0 l29 158 Z" /><glyph glyph-name="" unicode="$" d="M679 182 q0 -85 -72 -132 q-66 -43 -172 -46 l0 -73 l-88 0 l0 80 q-159 25 -274 125 q12 21 50 81 q111 -80 224 -106 l0 186 q-118 19 -169 48 q-74 41 -74 123 q0 166 243 193 l0 37 q0 20 13 32 q13 11 31 11 q44 0 44 -43 l0 -38 q238 -23 238 -112 q0 -18 -15 -32 q-16 -13 -40 -13 q-4 0 -44 20 q-52 25 -139 37 l0 -175 q116 -23 173 -64 q71 -51 71 -139 ZM347 560 q-66 -11 -102 -31 q-42 -24 -42 -51 q0 -55 144 -81 l0 163 ZM579 185 q0 68 -144 98 l0 -179 q144 11 144 81 Z" /><glyph glyph-name="" unicode="%" d="M808 183 q0 -79 -50 -131 q-51 -52 -129 -52 q-73 0 -122 40 q-50 38 -50 106 q0 86 51 134 q51 48 138 48 q63 0 112 -42 q50 -44 50 -103 ZM772 613 q0 -21 -16 -37 l-618 -576 l-72 71 l619 577 q18 16 36 16 q19 0 35 -16 q16 -16 16 -35 ZM381 518 q0 -79 -50 -131 q-51 -52 -129 -52 q-72 0 -120 39 q-52 40 -52 107 q0 86 51 135 q51 48 138 48 q62 0 113 -43 q49 -44 49 -103 ZM733 173 q0 45 -36 67 q-30 18 -66 18 q-46 0 -73 -30 q-26 -29 -26 -75 q0 -45 37 -66 q26 -17 64 -17 q45 0 73 30 q27 30 27 73 ZM306 509 q0 43 -36 67 q-29 17 -66 17 q-45 0 -72 -29 q-27 -30 -27 -76 q0 -46 38 -66 q26 -16 64 -16 q45 0 72 30 q27 29 27 73 Z" /><glyph glyph-name="" unicode="&amp;" d="M613 -14 q-38 23 -119 81 q-104 -67 -226 -67 q-96 0 -159 36 q-79 45 -79 135 q0 100 127 187 q-60 90 -60 155 q0 70 67 112 q60 39 147 39 q59 0 121 -37 q69 -45 69 -111 q0 -52 -56 -96 q-39 -31 -147 -84 l189 -150 q41 50 67 94 q14 24 42 24 q19 0 37 -12 q17 -12 17 -30 q0 -9 -7 -23 q-32 -55 -77 -109 q75 -53 110 -75 l-63 -69 ZM400 516 q0 28 -30 46 q-26 14 -59 14 q-38 0 -71 -13 q-43 -18 -43 -50 q0 -40 45 -109 l93 45 q65 36 65 67 ZM212 289 q-82 -60 -82 -118 q0 -83 138 -83 q68 0 146 36 l-202 165 Z" /><glyph glyph-name="" unicode="&#39;" d="M224 557 q0 -58 -24 -111 l-69 10 l27 91 q-18 -17 -61 -17 q-57 0 -57 60 q0 34 24 56 q24 21 60 21 q100 0 100 -110 Z" /><glyph glyph-name="" unicode="(" d="M291 -68 q0 -13 -13 -24 q-17 -10 -31 -10 q-33 0 -67 28 q-73 61 -109 185 q-29 96 -29 215 q0 120 29 221 q36 129 109 191 q34 28 67 28 q14 0 31 -10 q13 -11 13 -24 q0 -17 -13 -32 l-27 -27 q-108 -120 -108 -345 q0 -218 108 -337 l26 -25 q14 -16 14 -34 Z" /><glyph glyph-name="" unicode=")" d="M291 326 q0 -114 -29 -215 q-35 -122 -109 -185 q-34 -28 -67 -28 q-17 0 -30 10 q-14 10 -14 24 q0 20 14 34 q8 9 26 25 q108 119 108 337 q0 225 -108 345 q-15 14 -26 27 q-14 13 -14 32 q0 14 14 24 q13 10 30 10 q33 0 67 -28 q71 -61 109 -191 q29 -107 29 -221 Z" /><glyph glyph-name="" unicode="*" d="M437 377 l-44 -76 l-113 73 l10 -134 l-86 0 l-6 136 l-135 -71 l-38 75 l117 63 l-81 43 q-33 18 -33 41 q0 44 44 44 q20 0 118 -52 q-6 66 -6 75 q0 35 7 49 q9 21 37 21 q40 0 43 -51 l4 -96 l63 37 q26 15 42 15 q44 0 44 -45 q0 -18 -23 -35 q-5 -4 -82 -46 l118 -66 Z" /><glyph glyph-name="" unicode="+" d="M510 253 q0 -61 -70 -61 l-109 -5 q9 -112 9 -178 l-113 0 q0 63 -9 174 q-55 -1 -188 -8 l0 111 q65 9 181 15 q-3 53 -9 94 q-5 30 -5 47 q0 28 15 46 q16 16 39 16 q53 0 59 -51 q5 -27 15 -147 l86 3 q47 0 65 -6 q34 -12 34 -50 Z" /><glyph glyph-name="" unicode="," d="M224 27 q0 -57 -24 -111 l-69 10 l27 91 q-18 -17 -61 -17 q-57 0 -57 60 q0 34 24 56 q24 21 60 21 q100 0 100 -110 Z" /><glyph glyph-name="" unicode="-" d="M291 189 l-250 0 l0 110 l250 0 l0 -110 Z" /><glyph glyph-name="" unicode="." d="M222 86 q0 -86 -94 -86 q-37 0 -61 25 q-26 23 -26 61 q0 40 24 65 q23 25 63 25 q94 0 94 -90 Z" /><glyph glyph-name="" unicode="/" d="M264 711 q0 -6 -19 -98 l-140 -649 l-91 31 l145 712 q12 57 52 57 q22 0 38 -16 q15 -15 15 -37 Z" /><glyph glyph-name="" unicode="0" d="M731 368 q0 -158 -101 -264 q-101 -104 -260 -104 q-146 0 -242 77 q-107 82 -107 220 q0 172 104 269 q104 98 277 98 q127 0 226 -84 q103 -89 103 -212 ZM623 360 q0 100 -85 153 q-71 43 -165 43 q-112 0 -178 -71 q-66 -72 -66 -185 q0 -101 87 -152 q65 -40 163 -40 q110 0 177 72 q67 73 67 180 Z" /><glyph glyph-name="" unicode="1" d="M439 9 l-111 0 q-6 174 -15 582 q-3 73 55 73 q47 0 53 -50 l18 -605 Z" /><glyph glyph-name="" unicode="2" d="M697 128 q0 -27 -17 -39 q-66 -52 -143 -72 q-63 -16 -165 -16 q-75 0 -128 21 q-75 30 -75 96 q0 57 63 109 q47 37 137 82 q110 56 114 59 q81 48 81 86 q0 46 -55 77 q-47 25 -96 25 q-102 0 -165 -30 q-62 -29 -98 -96 l-95 45 q89 188 333 188 q118 0 195 -46 q88 -56 88 -164 q0 -62 -60 -119 q-46 -45 -132 -89 q-86 -44 -129 -65 q-58 -31 -58 -47 q0 -24 102 -24 q126 0 196 47 q40 26 54 26 q24 0 39 -17 q14 -19 14 -37 Z" /><glyph glyph-name="" unicode="3" d="M675 220 q0 -101 -65 -160 q-66 -60 -174 -60 q-81 0 -81 51 q0 22 13 39 q14 16 31 16 q169 0 169 100 q0 80 -133 80 q-38 0 -124 -19 q-78 -18 -84 -18 q-21 0 -39 15 q-18 15 -18 32 q0 46 36 56 q32 8 119 36 q163 56 163 112 q0 57 -113 57 q-98 0 -249 -67 l-49 90 q60 36 144 60 q83 24 150 24 q225 0 225 -164 q0 -39 -19 -68 q-19 -30 -72 -66 q85 -11 130 -51 q40 -40 40 -95 Z" /><glyph glyph-name="" unicode="4" d="M731 194 q-78 -47 -186 -73 l-1 -58 q-1 -30 -1 -54 l-105 0 l-1 95 q-39 -7 -93 -7 q-323 0 -323 193 q0 99 69 207 q63 98 155 159 q13 8 21 8 q21 0 40 -14 q16 -16 16 -36 q0 -31 -9 -37 q-58 -38 -116 -114 q-71 -93 -71 -170 q0 -48 73 -70 q54 -18 119 -18 q55 0 124 12 q17 204 52 401 q8 46 52 46 q48 0 48 -46 l-22 -166 q-22 -165 -22 -220 q71 18 145 60 l36 -98 Z" /><glyph glyph-name="" unicode="5" d="M712 210 q0 -210 -326 -210 l-17 103 q97 3 148 18 q89 26 89 89 q0 52 -71 84 q-62 25 -129 25 q-96 0 -182 -40 q-26 -13 -53 -25 q-30 -13 -57 -13 q-51 0 -66 76 q-8 32 -8 115 q0 51 14 96 q8 23 36 89 q21 47 58 47 q23 0 51 -33 q39 0 111 3 q94 4 105 4 q15 0 123 -4 q81 -3 122 -3 q18 0 36 -16 q16 -18 16 -35 q0 -24 -16 -40 q-17 -16 -41 -16 q-32 0 -97 4 q-73 3 -118 3 l-134 -4 q-96 -5 -139 -2 q-19 -58 -19 -97 q0 -24 13 -69 q108 67 245 67 q128 0 209 -48 q97 -58 97 -168 Z" /><glyph glyph-name="" unicode="6" d="M723 263 q0 -131 -96 -200 q-85 -63 -221 -63 q-162 0 -256 53 q-121 66 -121 207 q0 106 52 203 q52 94 140 156 q63 45 92 45 q21 0 37 -16 q16 -18 16 -40 q0 -25 -17 -34 q-138 -84 -186 -177 q111 64 271 64 q121 0 197 -41 q92 -51 92 -157 ZM619 262 q0 47 -67 73 q-54 19 -115 19 q-73 0 -151 -21 q-100 -27 -146 -75 q1 -151 279 -151 q70 0 127 33 q73 43 73 122 Z" /><glyph glyph-name="" unicode="7" d="M727 478 q0 -76 -115 -235 q-90 -124 -179 -210 q-34 -33 -51 -33 q-29 0 -46 16 q-17 14 -17 38 q0 20 21 41 q160 157 256 316 q26 43 26 71 q0 32 -116 56 q-97 19 -151 19 q-121 0 -312 -50 l-18 104 q65 23 159 37 q104 16 173 16 q136 0 228 -29 q142 -47 142 -157 Z" /><glyph glyph-name="" unicode="8" d="M720 205 q0 -107 -107 -161 q-85 -44 -210 -44 q-134 0 -229 34 q-142 49 -142 159 q0 87 86 149 q-68 58 -68 130 q0 105 111 154 q85 38 213 38 q129 0 214 -36 q115 -48 115 -150 q0 -66 -66 -137 q83 -60 83 -136 ZM596 476 q0 35 -88 61 q-73 19 -123 19 q-74 0 -139 -18 q-88 -24 -88 -69 q0 -45 90 -75 q71 -25 132 -25 q76 0 136 21 q80 27 80 86 ZM612 205 q0 33 -65 78 q-67 -19 -159 -19 q-99 0 -176 26 q-74 -31 -74 -82 q0 -44 105 -76 q82 -25 148 -25 q69 0 135 23 q86 29 86 75 Z" /><glyph glyph-name="" unicode="9" d="M732 507 q0 -24 -18 -41 q-17 -16 -36 -16 q-24 0 -44 24 q-45 53 -115 71 q-46 12 -130 12 q-85 0 -170 -47 q-93 -52 -93 -120 q0 -65 77 -95 q55 -23 133 -23 q55 0 117 17 q94 24 161 78 q19 34 56 34 q12 0 30 -16 q15 -16 15 -38 q0 -39 -22 -165 q-17 -84 -33 -173 l-109 0 q14 83 42 227 q-129 -71 -274 -71 q-125 0 -206 54 q-93 62 -93 175 q0 126 133 204 q114 66 258 66 q169 0 259 -75 q62 -53 62 -82 Z" /><glyph glyph-name="" unicode=":" d="M223 407 q0 -87 -95 -87 q-37 0 -62 26 q-25 24 -25 61 q0 41 23 65 q24 24 64 24 q95 0 95 -89 ZM223 86 q0 -86 -95 -86 q-37 0 -62 25 q-25 24 -25 61 q0 40 24 65 q25 25 63 25 q95 0 95 -90 Z" /><glyph glyph-name="" unicode=";" d="M223 407 q0 -87 -95 -87 q-37 0 -62 25 q-25 24 -25 62 q0 39 24 64 q25 25 63 25 q95 0 95 -89 ZM224 66 q0 -58 -24 -112 l-69 10 l27 92 q-21 -18 -61 -18 q-57 0 -57 61 q0 34 24 55 q25 22 60 22 q100 0 100 -110 Z" /><glyph glyph-name="" unicode="&lt;" d="M486 59 q0 -59 -61 -59 q-25 0 -60 19 q-101 52 -161 92 q-19 12 -104 78 q-46 34 -46 68 q0 34 46 70 q75 57 104 78 q49 33 161 92 q38 19 60 19 q61 0 61 -59 q0 -18 -24 -30 q-85 -47 -238 -136 q-27 -18 -27 -35 q0 -14 27 -31 q73 -48 238 -136 q24 -13 24 -30 Z" /><glyph glyph-name="" unicode="=" d="M481 355 q0 -23 -18 -40 q-17 -17 -54 -17 q-200 0 -350 -15 l0 101 q121 22 319 22 q45 0 66 -6 q37 -11 37 -45 ZM481 165 q0 -23 -17 -38 q-19 -18 -55 -18 q-179 0 -350 -16 l0 101 q132 22 319 22 q45 0 66 -6 q37 -11 37 -45 Z" /><glyph glyph-name="" unicode="&gt;" d="M486 257 q0 -33 -46 -68 q-83 -63 -104 -78 q-67 -44 -161 -92 q-37 -19 -60 -19 q-61 0 -61 59 q0 17 24 30 q69 37 238 136 q27 17 27 31 q0 17 -27 35 q-68 43 -238 136 q-24 12 -24 30 q0 59 61 59 q20 0 60 -19 q105 -56 161 -92 l104 -78 q46 -37 46 -70 Z" /><glyph glyph-name="" unicode="?" d="M601 459 q0 -121 -146 -240 q-56 -46 -92 -46 q-44 0 -44 38 q0 31 34 55 q66 47 97 80 q50 55 50 110 q0 56 -61 86 q-49 23 -111 23 q-55 0 -110 -19 q-70 -27 -70 -72 q0 -32 25 -73 q25 -45 25 -51 q0 -43 -51 -43 q-41 0 -71 61 q-26 49 -26 98 q0 101 87 155 q72 43 180 43 q109 0 189 -47 q95 -57 95 -158 ZM412 -2 l-159 47 q-39 12 -39 40 q0 47 43 47 q13 0 180 -47 l-25 -87 Z" /><glyph glyph-name="" unicode="@" d="M795 104 q0 -24 -25 -38 q-120 -66 -342 -66 q-172 0 -282 86 q-116 88 -116 234 q0 133 110 234 q119 110 294 110 q150 0 250 -67 q110 -75 110 -214 q0 -73 -43 -142 q-49 -80 -124 -80 q-53 0 -95 49 q-80 -56 -152 -56 q-86 0 -130 44 q-46 42 -46 117 q0 88 62 147 q61 61 160 61 q163 0 163 -66 q0 -46 -56 -46 q-16 0 -45 11 q-37 10 -62 10 q-45 0 -77 -27 q-38 -32 -38 -90 q0 -69 69 -69 q34 0 72 26 q42 27 57 66 q12 33 48 33 q21 0 39 -12 q18 -12 18 -33 q0 -13 -20 -48 q21 -18 36 -18 q24 0 42 44 q16 42 16 79 q0 91 -68 141 q-67 48 -186 48 q-129 0 -216 -81 q-81 -75 -81 -171 q0 -104 80 -166 q78 -62 211 -62 q192 0 284 52 q14 7 31 7 q18 0 35 -14 q17 -15 17 -33 Z" /><glyph glyph-name="" unicode="A" d="M631 9 q-4 304 -104 464 q-27 42 -48 60 q-33 25 -75 25 q-55 0 -120 -90 q-55 -77 -88 -174 l181 -29 q50 -9 50 -61 q0 -16 -16 -32 q-14 -14 -35 -14 q-39 0 -213 33 q-18 -61 -39 -182 l-104 0 q19 166 71 312 q60 173 152 268 q72 75 157 75 q95 0 164 -66 q92 -88 138 -270 q35 -140 38 -319 l-109 0 Z" /><glyph glyph-name="" unicode="B" d="M708 195 q0 -94 -80 -148 q-70 -47 -171 -47 q-155 0 -244 51 l37 95 q95 -39 211 -39 q49 0 90 22 q50 26 50 67 q0 44 -43 69 q-38 19 -86 19 q-19 0 -34 16 q-15 15 -15 36 q0 25 16 41 q16 16 38 16 q106 0 106 77 q0 43 -56 69 q-47 19 -97 19 q-120 0 -260 -78 q-22 -120 -22 -292 q0 -81 10 -178 l-109 0 q-9 69 -9 192 q0 238 54 424 q11 38 54 38 q21 0 34 -16 q5 -6 19 -36 q95 52 222 52 q111 0 183 -45 q84 -54 84 -155 q0 -67 -52 -128 q70 -61 70 -141 Z" /><glyph glyph-name="" unicode="C" d="M686 127 q0 -23 -33 -49 q-99 -78 -250 -78 q-152 0 -256 77 q-117 84 -117 224 q0 160 107 261 q107 102 266 102 q146 0 237 -75 q35 -30 35 -52 q0 -21 -19 -38 q-17 -17 -35 -17 q-15 0 -35 17 q-47 37 -89 49 q-33 9 -98 9 q-112 0 -187 -77 q-77 -76 -77 -185 q0 -94 105 -148 q76 -41 157 -41 q121 0 207 67 q11 7 36 7 q16 0 32 -16 q14 -19 14 -37 Z" /><glyph glyph-name="" unicode="D" d="M732 329 q0 -166 -96 -250 q-89 -79 -251 -79 q-83 0 -158 27 l24 101 q90 -21 171 -21 q91 0 144 56 q57 60 57 171 q0 110 -58 168 q-59 56 -164 56 q-36 0 -125 -24 q-88 -23 -123 -41 q-6 -81 -6 -163 q0 -111 16 -320 l-106 0 q-17 153 -17 292 q0 215 23 321 q9 41 59 41 q30 0 51 -57 q131 57 246 57 q147 0 232 -96 q81 -91 81 -239 Z" /><glyph glyph-name="" unicode="E" d="M715 77 q-80 -52 -177 -67 q-56 -10 -183 -10 q-170 0 -238 53 q-77 58 -77 212 q0 127 51 280 l-49 -1 l0 106 q47 0 152 3 l149 2 q49 0 152 -3 q68 -2 152 -2 q18 0 33 -15 q15 -15 15 -34 q0 -29 -15 -44 q-16 -15 -37 -15 q-40 0 -101 4 q-70 3 -101 3 q-52 0 -247 -3 l-29 -140 q57 -5 171 -13 q123 -10 165 -10 q19 0 35 -14 q15 -15 15 -37 q0 -25 -15 -40 q-15 -15 -37 -15 q-128 0 -350 21 q0 -113 61 -156 q48 -36 158 -36 q95 0 155 12 q62 12 147 49 l45 -90 Z" /><glyph glyph-name="" unicode="F" d="M752 592 q0 -54 -54 -54 l-232 8 q-58 0 -192 -4 l-33 -1 q-13 -113 -13 -207 q142 -13 195 -13 q23 0 69 3 q62 4 70 4 q22 0 37 -15 q15 -15 15 -40 q0 -35 -26 -47 q-26 -13 -125 -13 q-127 0 -232 19 q0 -169 4 -222 l-104 -1 q-11 133 -11 327 q0 92 12 203 l-90 -2 l-2 108 l292 7 q98 3 79 3 q158 0 301 -13 q16 -3 28 -18 q12 -15 12 -32 Z" /><glyph glyph-name="" unicode="G" d="M701 528 q0 -20 -17 -34 q-15 -14 -42 -14 q-12 0 -23 8 q-34 23 -91 54 q-40 16 -110 16 q-118 0 -199 -70 q-83 -73 -83 -192 q0 -93 71 -143 q61 -46 150 -46 q56 0 100 22 q42 20 47 20 q20 0 38 -15 q16 -18 16 -39 q0 -53 -82 -77 q-57 -18 -121 -18 q-136 0 -228 79 q-97 82 -97 213 q0 161 110 267 q107 105 264 105 q81 0 140 -17 q53 -17 123 -61 q34 -23 34 -58 ZM709 41 q0 -15 -15 -27 q-14 -13 -38 -13 q-21 0 -36 15 q-16 15 -16 29 l0 134 q0 42 -20 62 q-22 19 -78 19 q-66 0 -180 -24 l-17 106 q101 23 199 23 q106 0 148 -27 q53 -36 53 -133 l0 -164 Z" /><glyph glyph-name="" unicode="H" d="M725 9 l-111 0 l3 231 q0 67 -9 203 q-10 134 -10 160 q0 61 48 61 q52 0 58 -45 q6 -65 16 -228 q6 -135 6 -185 l-1 -197 ZM563 318 q0 -23 -17 -38 q-17 -16 -38 -16 q-30 0 -114 3 q-84 3 -102 3 q-30 0 -145 -10 l0 -251 l-107 0 l0 359 q0 111 15 246 q0 15 20 33 q19 17 37 17 q20 0 36 -16 q15 -18 15 -40 q0 8 -7 -104 q-8 -87 -8 -135 q30 0 94 3 q65 3 81 3 l193 -3 q13 0 31 -16 q16 -19 16 -38 Z" /><glyph glyph-name="" unicode="I" d="M353 66 q0 -18 -12 -30 q-11 -13 -28 -16 q-61 -12 -129 -12 q-86 0 -144 16 l0 104 q33 -11 102 -11 q-6 185 -6 224 q0 88 5 209 q-5 -2 -84 -8 l-2 104 q71 9 133 9 q68 0 104 -2 q48 -4 48 -53 q0 -52 -56 -52 q-4 0 -38 7 q-3 -102 -3 -226 q0 -150 4 -209 q8 0 27 4 q20 3 28 3 q24 0 39 -20 q12 -18 12 -41 Z" /><glyph glyph-name="" unicode="J" d="M737 590 q0 -23 -15 -38 q-15 -16 -34 -16 q-28 0 -138 12 q31 -143 31 -240 q0 -158 -66 -230 q-69 -78 -225 -78 q-148 0 -275 133 q10 13 67 81 q105 -108 212 -108 q108 0 148 56 q31 47 31 149 q0 136 -36 235 q-98 0 -140 -2 l-279 -17 l0 105 q167 23 406 23 q70 0 185 -7 l87 -8 q16 0 28 -14 q13 -16 13 -36 Z" /><glyph glyph-name="" unicode="K" d="M658 60 q0 -28 -16 -44 q-17 -16 -35 -16 q-15 0 -56 15 q-28 9 -57 21 q-208 71 -347 177 l12 -204 l-109 0 q-10 84 -10 239 q0 248 32 370 q12 46 58 46 q50 0 50 -53 q0 -5 -16 -98 q-3 -13 -10 -51 q-5 -24 -5 -77 q48 54 157 133 q108 77 205 127 q35 18 55 18 q23 0 38 -15 q14 -16 14 -37 q0 -30 -16 -40 q-139 -81 -172 -102 q-98 -63 -159 -121 q-32 -29 -32 -51 q0 -24 47 -50 q149 -87 341 -145 q9 -3 21 -16 q10 -15 10 -26 Z" /><glyph glyph-name="" unicode="L" d="M695 84 q-150 -84 -370 -84 q-285 0 -285 308 q0 79 15 166 q15 100 45 160 q14 30 43 30 q55 0 55 -52 q0 -16 -25 -107 q-27 -94 -27 -208 q0 -190 191 -190 q99 0 172 19 q57 13 154 56 l32 -98 Z" /><glyph glyph-name="" unicode="M" d="M701 345 q0 -114 -18 -315 l-105 0 q17 185 17 288 q0 37 -3 86 l-3 51 q0 46 -38 46 q-14 0 -83 -74 q-68 -74 -106 -74 q-35 0 -103 65 q-70 64 -81 64 q-31 0 -31 -72 q0 -195 21 -401 l-105 0 q-29 165 -21 431 q6 224 94 224 q31 0 223 -195 q77 80 107 106 q80 71 123 71 q76 0 101 -120 q11 -60 11 -181 Z" /><glyph glyph-name="" unicode="N" d="M689 203 q-10 -194 -124 -194 q-150 0 -336 389 l-17 44 q-15 34 -26 34 q-11 0 -22 -30 q-11 -29 -11 -61 l-2 -79 q-2 -39 -2 -92 q0 -100 13 -204 l-109 0 q-13 107 -13 263 q0 122 19 214 q30 159 107 159 q61 0 136 -134 l91 -185 q94 -176 146 -176 q15 0 27 47 q12 45 12 109 q0 70 -26 182 q-25 103 -25 119 q0 56 39 56 q25 0 37 -6 q15 -7 25 -31 q22 -52 44 -169 q18 -106 18 -175 l-1 -80 Z" /><glyph glyph-name="" unicode="O" d="M688 337 q0 -149 -89 -243 q-90 -94 -233 -94 q-151 0 -243 92 q-93 93 -93 242 q0 145 94 238 q94 92 235 92 q143 0 237 -92 q92 -94 92 -235 ZM582 338 q0 94 -62 158 q-62 64 -149 64 q-94 0 -161 -56 q-74 -64 -74 -172 q0 -109 71 -170 q62 -55 155 -55 q98 0 159 64 q61 64 61 167 Z" /><glyph glyph-name="" unicode="P" d="M700 391 q0 -309 -316 -309 q-80 0 -166 41 l23 98 q81 -32 156 -32 q110 0 156 60 q37 49 37 144 q0 100 -61 137 q-46 27 -162 27 q-42 0 -113 -23 q-71 -25 -103 -48 l-2 -131 q-2 -56 -2 -122 q0 -99 14 -224 l-109 0 q-12 152 -12 364 q0 132 35 247 q12 44 52 44 q26 0 63 -45 q30 20 102 33 q63 12 116 12 q132 0 211 -70 q81 -72 81 -203 Z" /><glyph glyph-name="" unicode="Q" d="M734 95 l-60 -83 q-19 10 -103 59 q-92 -71 -206 -71 q-150 0 -242 92 q-93 93 -93 242 q0 145 93 238 q94 92 234 92 q141 0 235 -92 q93 -93 93 -234 q0 -91 -44 -182 l93 -61 ZM579 339 q0 93 -61 159 q-61 63 -149 63 q-93 0 -160 -56 q-73 -64 -73 -172 q0 -109 71 -170 q62 -56 154 -56 q42 0 108 23 q-32 18 -96 58 q-20 11 -20 42 q0 20 16 37 q15 17 34 17 q21 0 145 -72 q31 71 31 127 Z" /><glyph glyph-name="" unicode="R" d="M706 405 q0 -111 -98 -212 q62 -76 88 -134 l-94 -47 q-56 99 -85 143 q-56 -14 -116 -14 q-95 0 -183 46 q18 60 32 101 q83 -40 148 -40 q201 0 201 157 q0 153 -167 153 q-155 0 -268 -48 q-19 -76 -19 -162 q0 -148 23 -339 l-107 0 q-21 155 -21 310 q0 149 34 300 q9 45 50 45 q21 0 34 -13 q9 -10 20 -33 q94 46 258 46 q125 0 198 -68 q72 -67 72 -191 Z" /><glyph glyph-name="" unicode="S" d="M638 181 q0 -90 -77 -138 q-67 -43 -166 -43 q-212 0 -365 135 l54 87 q90 -64 152 -88 q69 -27 157 -27 q46 0 88 18 q50 23 50 59 q0 51 -70 77 q-32 9 -161 33 q-112 18 -163 48 q-75 42 -75 125 q0 99 91 153 q76 44 188 44 q103 0 175 -18 q116 -30 116 -99 q0 -20 -17 -35 q-17 -14 -42 -14 q-6 0 -30 12 q-21 9 -33 16 q-72 30 -176 30 q-47 0 -104 -22 q-62 -27 -62 -58 q0 -40 71 -59 q92 -19 161 -32 q108 -23 163 -59 q75 -51 75 -145 Z" /><glyph glyph-name="" unicode="T" d="M703 583 q0 -20 -16 -36 q-16 -15 -41 -15 q-9 0 -94 8 q-99 9 -174 9 q-3 -175 -3 -283 q0 -127 13 -257 l-110 0 q-11 111 -11 253 q0 207 1 284 q-132 0 -253 -14 l0 106 q124 17 264 17 q267 0 369 -15 q55 -9 55 -57 Z" /><glyph glyph-name="" unicode="U" d="M692 294 q0 -168 -78 -234 q-72 -60 -238 -60 q-200 0 -272 82 q-64 73 -64 268 q0 143 51 269 q18 45 49 45 q57 0 57 -53 q0 -5 -23 -79 q-24 -75 -24 -154 q0 -127 8 -162 q12 -61 60 -85 q47 -24 161 -24 q135 0 175 54 q31 42 31 173 q0 87 -24 186 l-14 47 q-10 33 -10 44 q0 23 15 38 q15 15 41 15 q32 0 52 -40 q47 -103 47 -330 Z" /><glyph glyph-name="" unicode="V" d="M711 606 q0 -60 -56 -220 q-48 -134 -86 -210 q-91 -176 -197 -176 q-71 0 -151 98 q-138 165 -192 412 q-14 59 -14 97 q0 56 50 56 q49 0 55 -37 q22 -125 43 -190 q35 -110 95 -208 q71 -119 123 -119 q27 0 60 54 q17 34 38 79 q87 188 132 391 q6 31 50 31 q20 0 35 -17 q15 -18 15 -41 Z" /><glyph glyph-name="" unicode="W" d="M738 242 q0 -97 -46 -166 q-52 -76 -141 -76 q-58 0 -91 17 q-39 18 -67 65 q-43 -82 -159 -82 q-105 0 -159 94 q-45 78 -45 197 q0 141 71 318 q21 55 52 55 q24 0 42 -15 q18 -15 18 -34 q0 -15 -15 -57 q-60 -169 -60 -267 q0 -58 21 -112 q27 -72 75 -72 q39 0 73 25 q35 24 35 60 q0 55 53 55 q20 0 38 -15 q17 -17 17 -30 q0 -41 29 -67 q28 -28 70 -28 q41 0 65 52 q19 44 19 93 q0 65 -37 159 q-36 87 -87 150 q-10 11 -10 41 q0 16 18 31 q18 15 38 15 q29 0 68 -50 q41 -54 78 -166 q37 -116 37 -190 Z" /><glyph glyph-name="" unicode="X" d="M699 614 q0 -27 -14 -39 q-76 -66 -255 -239 l263 -256 l-78 -68 l-264 250 l-247 -249 l-89 61 l250 258 q-142 132 -216 193 q-32 25 -32 43 q0 63 53 63 q26 0 70 -41 q72 -68 203 -183 q141 144 219 207 q64 50 87 50 q16 0 34 -16 q16 -18 16 -34 Z" /><glyph glyph-name="" unicode="Y" d="M706 602 q0 -157 -67 -262 q-81 -125 -248 -153 l17 -178 l-111 0 l-14 184 q-125 27 -196 142 q-67 106 -67 247 q0 82 56 82 q21 0 37 -14 q16 -16 16 -40 q0 -126 37 -203 q51 -111 174 -111 q141 0 206 98 q54 80 54 219 q0 23 14 37 q14 14 36 14 q56 0 56 -62 Z" /><glyph glyph-name="" unicode="Z" d="M671 91 q0 -13 -14 -29 q-24 -29 -131 -47 q-88 -15 -160 -15 q-105 0 -191 27 q-127 39 -127 124 q0 122 236 243 l127 59 q106 51 106 66 q0 37 -138 37 q-159 0 -330 -32 q-9 37 -19 101 q120 39 345 39 q103 0 178 -22 q114 -36 114 -118 q0 -47 -80 -100 q-46 -31 -172 -91 q-106 -51 -141 -67 q-106 -60 -106 -96 q0 -22 91 -43 q79 -19 129 -19 q74 0 156 23 q75 20 71 20 q56 0 56 -60 Z" /><glyph glyph-name="" unicode="[" d="M280 -37 q0 -64 -117 -64 q-79 0 -99 41 q-12 27 -12 121 l0 544 q0 90 17 121 q21 41 94 41 q117 0 117 -67 q0 -32 -19 -42 q-13 -7 -50 -7 q-8 0 -22 3 l-20 2 q-17 0 -17 -45 l0 -557 q0 -44 17 -44 q10 0 20 2 q12 3 22 3 q37 0 54 -11 q15 -12 15 -41 Z" /><glyph glyph-name="" unicode="\" d="M264 -5 l-91 -31 l-140 649 q-19 85 -19 98 q0 22 15 37 q16 16 38 16 q40 0 52 -57 l145 -712 Z" /><glyph glyph-name="" unicode="]" d="M280 61 q0 -92 -13 -121 q-21 -41 -98 -41 q-117 0 -117 64 q0 29 15 41 q16 11 54 11 q7 0 22 -3 q8 -2 20 -2 q17 0 17 44 l0 557 q0 45 -17 45 l-21 -2 q-15 -3 -21 -3 q-40 0 -51 7 q-18 9 -18 42 q0 67 117 67 q70 0 93 -41 q18 -33 18 -121 l0 -544 Z" /><glyph glyph-name="" unicode="^" d="M402 375 l-106 0 l-85 164 l-85 -164 l-106 0 l151 289 l80 0 l151 -289 Z" /><glyph glyph-name="" unicode="_" d="M500 -140 l-500 0 l0 110 l500 0 l0 -110 Z" /><glyph glyph-name="" unicode="`" d="M40 557 q0 57 24 111 l69 -10 l-27 -91 q19 17 61 17 q57 0 57 -60 q0 -35 -24 -56 q-24 -21 -60 -21 q-100 0 -100 110 Z" /><glyph glyph-name="" unicode="a" d="M568 1 l-36 77 q-117 -78 -273 -78 q-98 0 -163 66 q-66 66 -66 167 q0 133 95 209 q89 71 227 71 q89 0 153 -22 q39 -15 39 -50 q0 -22 -16 -41 q-16 -18 -38 -18 q-10 0 -54 11 q-62 13 -89 13 q-90 0 -147 -43 q-62 -47 -62 -137 q0 -60 39 -90 q35 -27 91 -27 q100 0 164 33 q93 48 93 161 q0 14 15 30 q16 16 37 16 q55 0 55 -53 l-1 -116 q0 -49 38 -151 l-101 -28 Z" /><glyph glyph-name="" unicode="b" d="M616 251 q0 -112 -60 -180 q-62 -71 -172 -71 q-91 0 -179 46 q5 18 32 101 q82 -41 146 -41 q64 0 97 46 q28 39 28 96 q0 159 -152 159 q-61 0 -116 -26 q-45 -22 -101 -71 q0 -151 9 -301 l-109 0 q-9 89 -9 219 q0 222 37 400 q6 36 49 36 q24 0 40 -14 q16 -16 16 -38 q0 6 -10 -61 q-4 -17 -14 -106 q89 68 218 68 q115 0 185 -73 q65 -73 65 -189 Z" /><glyph glyph-name="" unicode="c" d="M568 138 q0 -33 -34 -58 q-107 -80 -232 -80 q-115 0 -196 69 q-86 71 -86 184 q0 120 82 192 q79 68 203 68 q62 0 125 -19 q72 -23 102 -64 q6 -9 6 -27 q0 -18 -18 -33 q-17 -16 -36 -16 q-9 0 -60 24 q-55 25 -119 25 q-72 0 -120 -31 q-57 -37 -57 -111 q0 -68 49 -111 q47 -43 117 -43 q81 0 140 40 q22 15 38 27 q23 14 44 14 q16 0 35 -16 q17 -19 17 -34 Z" /><glyph glyph-name="" unicode="d" d="M623 298 q0 -152 -9 -289 l-109 0 q12 149 12 228 q0 44 -5 94 q-41 34 -98 55 q-58 21 -115 21 q-74 0 -119 -36 q-53 -41 -53 -117 q0 -68 47 -109 q44 -39 103 -39 q32 0 68 21 q35 21 55 21 q19 0 34 -17 q15 -18 15 -42 q0 -46 -66 -70 q-50 -19 -104 -19 q-110 0 -185 72 q-74 71 -74 182 q0 121 81 191 q77 68 203 68 q114 0 204 -66 l-9 126 q-2 8 -2 21 q-1 10 -1 19 q0 51 55 51 q45 0 51 -48 q21 -219 21 -318 Z" /><glyph glyph-name="" unicode="e" d="M596 283 q0 -40 -41 -51 q-40 -10 -126 -13 q-51 0 -135 -3 q-60 -5 -165 -5 q20 -42 67 -69 q56 -33 129 -33 l73 -1 q26 -1 62 -1 l-9 -107 q-219 0 -304 38 q-127 55 -127 217 q0 115 85 188 q82 70 199 70 q111 0 195 -57 q97 -67 97 -173 ZM494 310 q-87 96 -184 96 q-57 0 -104 -29 q-52 -31 -73 -86 l184 10 q45 0 177 9 Z" /><glyph glyph-name="" unicode="f" d="M333 376 q0 -23 -15 -38 q-15 -16 -42 -16 q-36 0 -73 4 l0 -318 l-111 0 l0 325 l-72 2 l0 107 l72 -2 q3 101 37 159 q37 64 105 64 q31 0 60 -13 q37 -18 37 -54 q0 -22 -13 -40 q-15 -18 -33 -18 q-10 0 -28 9 q-18 9 -25 9 q-28 0 -30 -123 l79 -4 q52 -3 52 -53 Z" /><glyph glyph-name="" unicode="g" d="M632 110 q0 -106 -26 -155 q-37 -69 -138 -69 q-59 0 -112 10 l0 102 q37 -5 94 -5 q72 0 72 108 q0 54 -19 269 q-22 -7 -34 -7 q-17 0 -28 8 q-59 34 -130 34 q-71 0 -125 -39 q-58 -42 -58 -102 q0 -50 40 -80 q41 -30 107 -30 q66 0 104 29 q15 12 33 12 q21 0 36 -15 q16 -18 16 -37 q0 -33 -37 -59 q-30 -21 -67 -30 q-28 -8 -85 -8 q-106 0 -178 57 q-77 59 -77 161 q0 115 99 187 q85 62 192 62 q81 0 182 -49 q18 43 61 43 q45 0 50 -49 q5 -58 17 -172 q11 -129 11 -176 Z" /><glyph glyph-name="" unicode="h" d="M648 290 q0 -185 -12 -281 l-106 0 q11 105 11 281 q0 43 -35 76 q-43 40 -113 40 q-111 0 -234 -90 q-17 -11 -17 -39 q0 -122 17 -268 l-108 0 q-21 182 -21 273 q0 225 17 335 q6 47 57 47 q20 0 36 -16 q14 -16 14 -36 l-1 -13 q-2 -18 -3 -41 q-4 -62 -6 -124 q146 79 249 79 q114 0 187 -70 q68 -65 68 -153 Z" /><glyph glyph-name="" unicode="i" d="M262 538 q-85 23 -145 36 q-56 12 -56 43 q0 47 53 47 q57 0 178 -42 l-30 -84 ZM231 446 q-7 -53 -7 -229 l-1 -208 l-116 0 q-3 29 -1 105 l2 103 q0 195 7 243 q1 16 20 32 q17 14 39 14 q63 0 57 -60 Z" /><glyph glyph-name="" unicode="j" d="M382 540 q-76 22 -137 36 q-52 10 -52 42 q0 46 51 46 q52 0 166 -41 l-28 -83 ZM452 155 q0 -277 -205 -277 q-119 0 -242 72 l33 99 q143 -64 207 -64 q59 0 83 58 q14 37 14 112 q0 140 -73 274 q-7 11 -7 26 q0 21 17 37 q17 15 39 15 q26 0 45 -25 q37 -56 65 -155 q24 -93 24 -172 Z" /><glyph glyph-name="" unicode="k" d="M600 58 q0 -23 -14 -40 q-15 -18 -38 -18 q-6 0 -17 3 q-279 78 -392 214 q1 -134 8 -208 l-108 0 q-9 95 -9 273 q0 198 15 334 q5 48 59 48 q20 0 36 -16 q15 -18 12 -43 q-13 -113 -14 -288 q79 67 171 110 q71 33 191 69 q9 3 18 3 q23 0 38 -17 q14 -19 14 -41 q0 -36 -40 -48 q-141 -42 -236 -91 q-40 -21 -40 -41 q0 -22 34 -43 q101 -64 273 -112 q39 -12 39 -48 Z" /><glyph glyph-name="" unicode="l" d="M242 613 q0 -75 -11 -253 q-10 -163 -10 -256 q0 -69 2 -95 l-110 0 q-2 20 -2 119 q0 220 1 246 q3 146 19 244 q6 46 60 46 q51 0 51 -51 Z" /><glyph glyph-name="" unicode="m" d="M708 319 q0 -126 -19 -310 l-106 0 q18 185 18 310 q0 84 -72 84 q-56 0 -93 -52 q-18 -24 -25 -29 q-14 -11 -37 -11 q-28 0 -55 40 q-37 52 -79 52 q-38 0 -101 -36 q-2 -58 -2 -128 q0 -128 15 -230 l-103 0 q-19 96 -19 230 q0 184 8 229 q6 45 48 45 q26 0 51 -24 q60 24 103 24 q82 0 141 -70 q62 70 148 70 q87 0 136 -60 q43 -55 43 -134 Z" /><glyph glyph-name="" unicode="n" d="M648 286 q0 -181 -12 -277 l-106 0 q11 107 11 277 q0 42 -35 77 q-43 41 -113 41 q-66 0 -135 -33 q-14 -7 -120 -70 q4 -133 21 -292 l-108 0 q-21 206 -21 352 q0 66 4 101 q2 22 16 36 q14 15 32 15 q56 0 59 -83 q148 83 252 83 q114 0 187 -71 q68 -66 68 -156 Z" /><glyph glyph-name="" unicode="o" d="M619 253 q0 -118 -86 -187 q-82 -66 -216 -66 q-121 0 -203 61 q-94 69 -94 191 q0 109 81 184 q85 77 223 77 q137 0 218 -75 q77 -72 77 -185 ZM511 254 q0 64 -42 104 q-51 46 -145 46 q-97 0 -151 -49 q-45 -42 -45 -103 q0 -65 51 -104 q51 -39 138 -39 q97 0 148 42 q46 38 46 103 Z" /><glyph glyph-name="" unicode="p" d="M644 249 q0 -106 -93 -174 q-82 -60 -185 -60 q-81 0 -133 32 l33 102 q57 -27 98 -27 q67 0 120 38 q52 37 52 89 q0 81 -47 119 q-49 37 -148 37 q-87 0 -198 -72 q-5 -82 -5 -176 q0 -156 13 -269 l-108 0 q-13 113 -13 269 q0 239 20 313 q11 43 50 43 q34 0 58 -45 q101 45 183 45 q136 0 217 -61 q86 -69 86 -203 Z" /><glyph glyph-name="" unicode="q" d="M614 454 q-12 -109 -12 -288 q0 -169 7 -277 l-108 0 q-7 104 -7 277 q0 83 5 178 q-70 60 -177 60 q-103 0 -148 -36 q-46 -36 -46 -118 q0 -53 53 -90 q52 -37 120 -37 q13 0 37 4 l37 4 q42 0 42 -57 q0 -41 -42 -53 q-16 -5 -74 -5 q-103 0 -187 60 q-94 67 -94 174 q0 135 86 202 q77 60 216 60 q94 0 184 -42 q21 44 58 44 q20 0 35 -15 q15 -15 15 -37 l0 -8 Z" /><glyph glyph-name="" unicode="r" d="M353 460 q0 -39 -34 -51 q-77 -31 -157 -123 l10 -277 l-110 0 l-22 453 q0 22 16 37 q16 14 37 14 q54 0 57 -51 l2 -37 q82 88 144 88 q20 0 39 -16 q18 -16 18 -37 Z" /><glyph glyph-name="" unicode="s" d="M524 147 q0 -74 -70 -114 q-58 -33 -144 -33 q-68 0 -151 46 q-83 46 -129 104 l69 65 q37 -37 95 -69 q67 -37 116 -37 q35 0 62 8 q42 12 42 35 q0 23 -46 38 l-109 28 q-73 18 -109 45 q-49 36 -49 95 q0 70 75 115 q68 40 147 40 q110 0 183 -71 q17 -19 17 -38 q0 -23 -17 -38 q-17 -17 -39 -17 q-23 0 -39 16 q-42 39 -105 39 q-113 0 -113 -49 q0 -22 46 -37 q36 -10 110 -28 q73 -21 109 -47 q49 -37 49 -96 Z" /><glyph glyph-name="" unicode="t" d="M582 426 q0 -25 -15 -40 q-14 -17 -38 -17 q-10 0 -15 2 q-51 12 -228 21 q-26 -91 -26 -205 q0 -36 25 -57 q23 -22 67 -22 q44 0 78 14 q24 11 71 42 l55 -92 q-108 -72 -204 -72 q-87 0 -143 52 q-58 51 -58 135 q0 113 23 209 q-81 1 -154 3 l0 105 l190 -2 q15 36 52 115 q16 31 45 31 q22 0 41 -14 q18 -15 18 -38 q0 -14 -6 -26 l-35 -72 q159 -9 216 -22 q41 -11 41 -50 Z" /><glyph glyph-name="" unicode="u" d="M571 2 q-9 37 -18 140 q-64 -80 -123 -110 q-61 -32 -147 -32 q-120 0 -188 71 q-65 65 -65 164 q0 79 11 119 q18 72 75 138 q18 21 43 21 q20 0 37 -17 q17 -19 17 -38 q0 -20 -15 -37 q-38 -43 -50 -87 q-10 -33 -10 -99 q0 -53 33 -88 q39 -40 112 -40 q115 0 175 70 q64 76 109 288 q3 18 22 34 q19 14 38 14 q46 0 46 -59 q0 -25 -7 -120 q-6 -81 -6 -122 q0 -136 14 -198 l-103 -12 Z" /><glyph glyph-name="" unicode="v" d="M634 453 q0 -79 -67 -208 q-61 -119 -130 -182 q-70 -63 -139 -63 q-64 0 -129 56 q-66 54 -114 185 q-45 119 -45 210 q0 26 15 44 q15 18 38 18 q22 0 38 -14 q16 -16 16 -32 q0 -93 54 -218 q60 -140 128 -140 q66 0 150 148 q76 135 79 211 q0 15 17 30 q15 15 38 15 q22 0 37 -17 q14 -19 14 -43 Z" /><glyph glyph-name="" unicode="w" d="M732 233 q0 -106 -56 -170 q-57 -63 -158 -63 q-89 0 -149 61 q-60 -61 -143 -61 q-95 0 -146 60 q-50 56 -50 156 q0 83 24 173 q33 124 97 124 q19 0 36 -17 q17 -17 17 -38 q0 -15 -10 -33 q-57 -100 -57 -209 q0 -109 85 -109 q67 0 107 56 q19 25 46 25 q26 0 45 -28 q30 -52 111 -52 q94 0 94 132 q0 48 -25 100 q-28 47 -52 89 q-11 18 -11 33 q0 17 16 34 q15 17 30 17 q60 0 108 -104 q41 -93 41 -176 Z" /><glyph glyph-name="" unicode="x" d="M608 75 l-82 -74 l-219 208 l-217 -209 l-80 73 l206 208 l-153 135 q-22 18 -22 42 q0 56 55 56 q19 0 50 -26 l152 -131 l157 130 q31 25 63 25 q14 0 32 -20 q18 -19 18 -36 q0 -16 -15 -30 q-19 -16 -31 -24 l-139 -114 l225 -213 Z" /><glyph glyph-name="" unicode="y" d="M652 461 q0 -15 -48 -114 q-120 -245 -324 -454 l-81 63 l88 108 q-76 45 -174 182 q-103 142 -103 217 q0 21 17 35 q17 15 38 15 q36 0 50 -35 q74 -210 238 -329 q98 108 189 324 q17 40 55 40 q19 0 38 -16 q17 -17 17 -36 Z" /><glyph glyph-name="" unicode="z" d="M603 97 q0 -28 -22 -42 q-44 -28 -131 -43 q-73 -12 -145 -12 q-254 0 -254 114 q0 81 187 169 q61 26 127 57 q56 27 56 41 q0 19 -36 22 l-49 0 q-113 0 -301 -26 l-15 107 q137 29 316 29 q258 0 258 -112 q0 -79 -187 -160 q-58 -24 -127 -55 q-55 -27 -55 -48 q0 -29 66 -29 q142 0 230 38 q12 4 25 4 q26 0 41 -17 q16 -18 16 -37 Z" /><glyph glyph-name="" unicode="{" d="M224 -57 q0 -19 -14 -33 q-15 -12 -31 -12 q-52 0 -84 54 q-28 50 -25 101 l7 175 q0 29 -18 57 q-19 26 -19 47 q0 20 19 46 q18 27 18 57 l-7 176 q-3 53 24 101 q30 54 76 54 q21 0 36 -12 q18 -15 18 -42 q0 -14 -10 -22 l-20 -13 q-33 -21 -30 -67 l8 -197 q1 -54 -30 -82 q32 -30 30 -81 l-8 -196 q-3 -48 29 -66 q31 -20 31 -45 Z" /><glyph glyph-name="" unicode="|" d="M150 -139 l-100 0 l0 998 l100 0 l0 -998 Z" /><glyph glyph-name="" unicode="}" d="M224 332 q0 -18 -19 -47 q-19 -28 -18 -57 l7 -175 q1 -54 -25 -101 q-33 -54 -84 -54 q-17 0 -31 12 q-14 13 -14 33 q0 20 14 31 l29 24 q19 19 17 56 l-8 196 q-3 51 30 81 q-33 28 -30 82 l8 197 q1 46 -30 67 q-14 8 -20 13 q-10 7 -10 22 q0 27 18 42 q15 12 36 12 q46 0 76 -54 q26 -48 24 -101 l-7 -176 q-1 -30 18 -57 q19 -28 19 -46 Z" /><glyph glyph-name="" unicode="~" d="M490 384 q0 -56 -58 -114 q-59 -58 -117 -58 q-40 0 -66 26 l-20 25 q-12 16 -20 25 q-21 26 -51 26 q-48 0 -81 -74 l-67 46 q62 166 153 166 q35 0 71 -50 q36 -51 76 -51 q34 0 76 51 q42 50 54 50 q50 0 50 -68 Z" /><glyph glyph-name="" unicode="&#x3001;" d="M396 86 l-80 -92 l-182 128 q-30 21 -30 49 q0 63 67 63 q22 0 67 -33 l158 -115 Z" /><glyph glyph-name="" unicode="&#x3002;" d="M374 119 q0 -49 -38 -84 q-36 -35 -86 -35 q-53 0 -88 32 q-36 32 -36 83 q0 53 36 87 q36 34 88 34 q51 0 88 -32 q36 -33 36 -85 ZM310 120 q0 22 -18 37 q-19 14 -42 14 q-60 0 -60 -57 q0 -22 18 -36 q18 -15 42 -15 q25 0 42 17 q18 15 18 40 Z" /><glyph glyph-name="" unicode="&#x30fb;" d="M629 363 q0 -60 -33 -95 q-33 -36 -91 -36 q-58 0 -96 36 q-38 35 -38 94 q0 56 37 92 q36 36 92 36 q57 0 94 -34 q35 -37 35 -93 Z" /><glyph glyph-name="" unicode="Ñ&#x2014;" d="M1000 310 l-1000 0 l0 100 l1000 0 l0 -100 Z" /><glyph glyph-name="" unicode="&#xff5e;" d="M909 386 q0 -14 -18 -37 q-81 -103 -186 -103 q-72 0 -193 50 q-127 49 -190 49 q-75 0 -129 -101 l-104 59 q81 172 243 172 q62 0 184 -49 q116 -49 182 -49 q44 0 90 46 q34 34 56 34 q65 0 65 -71 Z" /><glyph glyph-name="" unicode="É&#x2026;&#x22ef;" d="M936 358 q0 -98 -107 -98 q-42 0 -70 28 q-29 28 -29 70 q0 44 27 74 q28 28 72 28 q48 0 79 -26 q28 -28 28 -76 ZM603 358 q0 -98 -107 -98 q-42 0 -70 28 q-29 28 -29 70 q0 44 27 74 q28 28 72 28 q49 0 78 -26 q29 -27 29 -76 ZM270 358 q0 -98 -107 -98 q-42 0 -70 28 q-29 28 -29 70 q0 44 27 74 q28 28 72 28 q48 0 79 -26 q28 -28 28 -76 Z" /><glyph glyph-name="" unicode="Ô&#x2018;" d="M856 688 q0 -37 -28 -62 q-28 -25 -69 -25 q-114 0 -114 125 q0 67 28 127 l79 -12 l-31 -104 q23 21 69 21 q30 0 48 -20 q18 -21 18 -50 Z" /><glyph glyph-name="" unicode="Õ&#x2019;" d="M356 728 q0 -65 -28 -127 l-79 12 l31 104 q-24 -21 -69 -21 q-32 0 -49 20 q-17 18 -17 50 q0 38 27 62 q28 25 70 25 q114 0 114 -125 Z" /><glyph glyph-name="" unicode="Ò&#x201c;" d="M970 688 q0 -37 -28 -62 q-26 -25 -69 -25 q-114 0 -114 125 q0 67 28 127 l79 -12 l-31 -104 q23 21 69 21 q30 0 48 -20 q18 -21 18 -50 ZM741 688 q0 -38 -27 -62 q-28 -25 -70 -25 q-114 0 -114 125 q0 67 28 127 l79 -12 l-31 -104 q23 21 69 21 q31 0 49 -20 q17 -22 17 -50 Z" /><glyph glyph-name="" unicode="Ó&#x201d;" d="M470 728 q0 -65 -28 -127 l-79 12 l31 104 q-24 -21 -69 -21 q-32 0 -49 20 q-17 18 -17 50 q0 38 27 62 q28 25 70 25 q114 0 114 -125 ZM241 728 q0 -65 -28 -127 l-79 12 l31 104 q-24 -21 -69 -21 q-32 0 -48 20 q-18 20 -18 50 q0 38 28 62 q28 25 69 25 q114 0 114 -125 Z" /><glyph glyph-name="" unicode="&#x300a;" d="M988 -67 q0 -66 -48 -66 q-44 0 -67 53 q-60 134 -174 441 q56 147 174 439 q23 53 68 53 q21 0 34 -18 q13 -19 13 -41 q0 -25 -27 -91 l-140 -343 l140 -343 q27 -66 27 -84 ZM801 -67 q0 -66 -48 -66 q-44 0 -67 53 q-60 134 -174 441 q56 147 174 439 q23 53 68 53 q21 0 34 -18 q13 -19 13 -41 q0 -25 -27 -91 l-140 -343 l140 -343 q27 -66 27 -84 Z" /><glyph glyph-name="" unicode="&#x300b;" d="M488 361 q-58 -155 -174 -440 q-24 -53 -67 -53 q-48 0 -48 66 q0 18 27 84 l140 342 l-140 342 q-27 66 -27 91 q0 24 13 41 q12 18 34 18 q44 0 68 -53 q53 -120 174 -438 ZM301 361 q-58 -155 -174 -440 q-24 -53 -67 -53 q-48 0 -48 66 q0 18 27 84 l140 342 l-140 342 q-27 66 -27 91 q0 24 13 41 q12 18 34 18 q44 0 68 -53 q53 -120 174 -438 Z" /><glyph glyph-name="" unicode="&#x300c;" d="M891 790 q0 -43 -32 -54 q-15 -6 -67 -6 q-68 0 -68 -47 l0 -745 q0 -71 -53 -71 q-61 0 -61 64 l0 749 q0 117 49 150 q37 23 158 23 q74 0 74 -63 Z" /><glyph glyph-name="" unicode="&#x300d;" d="M391 40 q0 -117 -50 -150 q-37 -23 -157 -23 q-74 0 -74 63 q0 44 31 54 q15 6 68 6 q68 0 68 47 l0 745 q0 71 53 71 q61 0 61 -64 l0 -749 Z" /><glyph glyph-name="" unicode="&#x300e;" d="M941 755 q0 -54 -24 -75 q-23 -23 -80 -23 q-40 0 -55 -10 q-18 -12 -18 -51 l0 -628 q0 -44 -32 -73 q-33 -28 -68 -28 q-37 0 -67 24 q-38 29 -38 79 l0 673 q0 128 77 175 q59 36 196 36 q109 0 109 -99 ZM860 756 q0 22 -33 22 q-111 0 -153 -39 q-37 -34 -37 -119 l0 -628 q0 -31 27 -31 q22 0 22 29 l0 625 q0 70 40 97 q30 21 90 21 q29 0 33 2 q11 3 11 21 Z" /><glyph glyph-name="" unicode="&#x300f;" d="M441 78 q0 -127 -77 -175 q-60 -36 -196 -36 q-109 0 -109 99 q0 52 24 76 q25 22 80 22 q41 0 55 10 q18 12 18 51 l0 628 q0 44 33 74 q30 27 67 27 q37 0 67 -24 q38 -30 38 -79 l0 -673 ZM363 729 q0 31 -27 31 q-22 0 -22 -29 l0 -625 q0 -69 -40 -97 q-30 -21 -90 -21 q-29 0 -33 -2 q-11 -3 -11 -21 q0 -22 33 -22 q111 0 153 39 q37 34 37 119 l0 628 Z" /><glyph glyph-name="" unicode="&#x3010;" d="M878 -65 q0 -67 -82 -67 l-56 0 q-68 0 -95 39 q-23 32 -23 110 l0 687 q0 78 23 110 q27 39 95 39 l56 0 q82 0 82 -67 q0 -19 -11 -35 q-20 -24 -30 -35 q-89 -105 -89 -359 q0 -248 89 -352 q10 -11 30 -35 q11 -16 11 -35 Z" /><glyph glyph-name="" unicode="&#x3011;" d="M378 17 q0 -76 -23 -110 q-27 -39 -95 -39 l-56 0 q-82 0 -82 67 q0 21 11 35 q20 24 30 35 q89 106 89 352 q0 252 -89 359 q-10 11 -30 35 q-11 14 -11 35 q0 67 82 67 l56 0 q68 0 95 -39 q23 -34 23 -110 l0 -687 Z" /><glyph glyph-name="" unicode="×" d="M841 133 l-77 -90 l-276 231 l-225 -240 l-87 81 l221 236 l-211 178 q-22 18 -22 40 q0 26 19 46 q18 20 44 20 q14 0 35 -16 l217 -182 l218 231 q20 21 44 21 q23 0 41 -18 q19 -19 19 -41 q0 -23 -17 -42 l-214 -228 l271 -227 Z" /><glyph glyph-name="" unicode="·&#x2211;" d="M858 74 q0 -39 -37 -47 q-85 -18 -315 -18 q-156 0 -216 10 q-145 22 -145 91 q0 77 68 160 q15 17 45 53 q32 40 32 57 q0 14 -32 55 q-24 24 -45 51 q-68 83 -68 160 q0 67 145 91 q70 10 216 10 q242 0 315 -18 q37 -9 37 -46 q0 -19 -14 -35 q-13 -16 -33 -16 q-11 0 -16 2 q-59 14 -289 14 l-146 -1 q-43 -3 -76 -15 q-32 -13 -32 -23 q0 -21 27 -54 q26 -32 70 -83 q40 -54 40 -95 q0 -42 -39 -95 q-14 -18 -71 -81 q-27 -30 -27 -54 q0 -11 32 -23 q33 -14 76 -15 q16 -1 146 -1 q151 0 226 8 q90 8 78 8 q19 0 34 -15 q14 -16 14 -35 Z" /><glyph glyph-name="" unicode="&#x2642;" d="M780 169 q0 -117 -81 -201 q-84 -89 -207 -89 q-108 0 -185 77 q-77 77 -77 184 q0 103 61 177 q58 70 156 101 l0 287 q-82 -77 -113 -129 q-17 -29 -46 -29 q-25 0 -42 16 q-20 14 -20 39 q0 35 69 108 l71 73 q50 56 134 56 q83 0 134 -56 l71 -73 q69 -73 69 -108 q0 -24 -20 -39 q-19 -16 -42 -16 q-30 0 -46 29 q-30 48 -105 122 l0 -276 q96 -24 156 -87 q63 -69 63 -166 ZM666 169 q0 59 -48 101 q-49 42 -108 42 q-68 0 -117 -46 q-49 -46 -49 -112 q0 -62 42 -112 q41 -50 104 -50 q75 0 125 50 q51 51 51 127 Z" /><glyph glyph-name="" unicode="¡°" d="M368 712 q0 -49 -34 -83 q-35 -34 -83 -34 q-51 0 -83 35 q-35 32 -35 82 q0 48 35 82 q33 35 83 35 q46 0 83 -34 q34 -36 34 -83 ZM317 712 q0 25 -19 46 q-22 19 -47 19 q-28 0 -47 -19 q-20 -19 -20 -46 q0 -29 20 -46 q18 -19 47 -19 q27 0 47 19 q19 19 19 46 Z" /><glyph glyph-name="" unicode="&#x2606;" d="M949 468 l-270 -209 l110 -333 l-288 211 l-288 -211 l110 333 l-271 209 l338 0 l111 332 l109 -332 l339 0 ZM722 389 l-168 0 l-54 164 l-55 -164 l-165 0 l133 -104 l-50 -156 l137 103 l139 -103 l-50 156 l133 104 Z" /><glyph glyph-name="" unicode="&#x2605;" d="M949 468 l-270 -209 l110 -333 l-288 211 l-288 -211 l110 333 l-271 209 l338 0 l111 332 l109 -332 l339 0 Z" /><glyph glyph-name="" unicode="&#x25cb;" d="M936 363 q0 -183 -128 -309 q-128 -128 -308 -128 q-182 0 -308 128 q-128 125 -128 309 q0 182 128 309 q126 128 308 128 q180 0 308 -128 q128 -128 128 -309 ZM844 363 q0 142 -100 245 q-102 100 -244 100 q-144 0 -244 -100 q-101 -101 -101 -245 q0 -145 101 -243 q100 -101 244 -101 q144 0 244 100 q100 100 100 244 Z" /><glyph glyph-name="" unicode="&#x2192;" d="M892 356 q0 -51 -75 -123 q-53 -52 -112 -88 q-37 -23 -56 -23 q-20 0 -33 16 q-15 17 -15 44 q0 22 27 41 l109 78 l-567 0 q-34 0 -46 9 q-16 10 -16 44 q0 32 15 44 q15 12 47 12 l567 0 l-109 78 q-27 18 -27 41 q0 27 15 43 q14 17 33 17 q16 0 56 -23 q57 -35 112 -87 q75 -72 75 -123 Z" /><glyph glyph-name="" unicode="&#x2460;" d="M996 360 q0 -206 -145 -351 q-147 -145 -351 -145 q-206 0 -351 145 q-145 144 -145 351 q0 206 145 351 q145 145 351 145 q204 0 351 -145 q145 -147 145 -351 ZM931 360 q0 179 -126 305 q-126 126 -305 126 q-179 0 -305 -126 q-126 -126 -126 -305 q0 -179 126 -305 q126 -126 305 -126 q179 0 305 126 q126 126 126 305 ZM566 93 l-119 0 q-5 121 -13 500 q-3 59 59 59 q55 0 58 -59 l15 -500 Z" /><glyph glyph-name="" unicode="&#x2461;" d="M996 360 q0 -206 -145 -351 q-147 -145 -351 -145 q-206 0 -351 145 q-145 144 -145 351 q0 206 145 351 q145 145 351 145 q204 0 351 -145 q145 -147 145 -351 ZM931 360 q0 179 -126 305 q-126 126 -305 126 q-179 0 -305 -126 q-126 -126 -126 -305 q0 -179 126 -305 q126 -126 305 -126 q179 0 305 126 q126 126 126 305 ZM776 198 q0 -27 -19 -43 q-56 -44 -121 -61 q-50 -14 -137 -14 q-70 0 -119 26 q-59 30 -59 83 q0 63 76 115 q10 7 147 79 q24 12 59 33 q37 22 37 46 q0 34 -40 52 q-31 15 -68 15 q-81 0 -126 -24 q-47 -24 -78 -82 l-104 48 q81 175 287 175 q99 0 165 -40 q79 -50 79 -145 q0 -71 -82 -132 q-29 -22 -81 -49 l-167 -85 q108 0 170 13 q50 9 91 37 q16 11 32 11 q27 0 42 -18 q16 -21 16 -40 Z" /><glyph glyph-name="" unicode="&#x2462;" d="M996 360 q0 -206 -145 -351 q-147 -145 -351 -145 q-206 0 -351 145 q-145 144 -145 351 q0 206 145 351 q145 145 351 145 q204 0 351 -145 q145 -147 145 -351 ZM931 360 q0 179 -126 305 q-126 126 -305 126 q-179 0 -305 -126 q-126 -126 -126 -305 q0 -179 126 -305 q126 -126 305 -126 q179 0 305 126 q126 126 126 305 ZM753 273 q0 -88 -57 -141 q-58 -52 -150 -52 q-80 0 -80 56 q0 22 15 41 q16 19 35 19 q122 0 122 65 q0 41 -44 50 q-16 2 -27 2 q-50 -1 -163 -27 q-19 -5 -26 -5 q-24 0 -41 17 q-19 15 -19 36 q0 47 40 59 l123 36 q41 14 67 33 q26 20 26 36 q0 32 -37 34 l-19 -1 q-9 -1 -21 -1 q-76 0 -206 -58 l-53 96 q129 79 255 79 q82 0 135 -31 q62 -39 62 -117 q0 -45 -39 -96 q102 -45 102 -130 Z" /><glyph glyph-name="" unicode="&#x2162;" d="M955 83 q0 -27 -12 -38 q-10 -10 -34 -16 q-55 -16 -182 -19 l-193 0 q-273 0 -487 35 l8 105 q43 -8 121 -8 q-8 181 -8 260 q0 94 7 227 l-88 -7 l-8 110 q354 13 395 13 q204 0 403 -17 q54 -6 54 -65 q0 -23 -17 -37 q-16 -13 -32 -13 q-13 0 -18 1 q-9 0 -56 6 q-7 -133 -7 -240 q0 -107 9 -254 q33 3 74 11 q9 2 29 4 q42 -22 42 -58 ZM697 122 q-9 207 -9 280 q0 68 8 224 q-49 0 -78 2 q-36 0 -73 -4 l-7 -243 q-1 -33 2 -118 q4 -122 4 -142 q66 -6 153 1 ZM434 118 q-8 165 -8 284 q0 78 7 228 q-93 0 -146 -6 l-7 -243 q-1 -31 2 -114 q4 -118 4 -138 q113 -11 148 -11 Z" /><glyph glyph-name="" unicode="&#xff01;" d="M337 682 q0 -30 -10 -80 l-82 -381 l-102 13 l61 437 q11 83 72 83 q61 0 61 -72 ZM277 0 q-150 42 -191 56 q-44 12 -44 44 q0 52 47 52 q16 0 216 -56 l-28 -96 Z" /><glyph glyph-name="" unicode="&#xff08;" d="M891 -94 q0 -16 -15 -28 q-16 -11 -34 -11 q-39 0 -77 32 q-85 71 -123 210 q-33 113 -33 244 q0 133 33 251 q41 148 123 217 q38 32 77 32 q18 0 34 -11 q15 -12 15 -28 q0 -20 -16 -39 l-29 -28 q-123 -135 -123 -391 q0 -123 23 -202 q29 -104 100 -181 l29 -28 q16 -19 16 -39 Z" /><glyph glyph-name="" unicode="&#xff09;" d="M391 353 q0 -131 -33 -244 q-40 -139 -123 -210 q-40 -32 -77 -32 q-20 0 -34 11 q-15 12 -15 28 q0 22 16 39 q19 19 29 28 q70 77 100 181 q23 84 23 202 q0 256 -123 391 q-10 9 -29 28 q-16 17 -16 39 q0 16 15 28 q14 11 34 11 q37 0 77 -32 q81 -69 123 -217 q33 -118 33 -251 Z" /><glyph glyph-name="" unicode="&#xff0c;" d="M355 31 q0 -62 -28 -126 l-78 11 l30 104 q-21 -20 -69 -20 q-32 0 -48 20 q-17 17 -17 49 q0 38 27 63 q27 24 69 24 q114 0 114 -125 Z" /><glyph glyph-name="" unicode="&#xff1a;" d="M353 462 q0 -98 -107 -98 q-42 0 -70 28 q-29 28 -29 70 q0 44 27 74 q28 28 72 28 q49 0 78 -26 q29 -27 29 -76 ZM353 98 q0 -98 -107 -98 q-42 0 -70 28 q-29 28 -29 70 q0 44 27 74 q28 28 72 28 q49 0 78 -26 q29 -27 29 -76 Z" /><glyph glyph-name="" unicode="&#xff1b;" d="M353 462 q0 -98 -107 -98 q-42 0 -70 28 q-29 28 -29 70 q0 44 27 74 q28 28 72 28 q49 0 78 -26 q29 -27 29 -76 ZM355 75 q0 -63 -28 -127 l-78 12 l30 104 q-24 -21 -69 -21 q-32 0 -48 20 q-17 18 -17 50 q0 38 29 63 q27 24 70 24 q111 0 111 -125 Z" /><glyph glyph-name="" unicode="&#xff1f;" d="M487 533 q0 -103 -32 -170 q-38 -80 -130 -139 q-14 -10 -32 -10 q-22 0 -39 18 q-16 16 -16 39 q0 28 25 46 q68 44 92 95 q21 42 21 121 q0 40 -40 77 q-40 34 -89 34 q-56 0 -92 -36 q-31 -31 -31 -71 q0 -72 21 -113 q7 -17 7 -28 q0 -23 -18 -38 q-18 -15 -40 -15 q-32 0 -47 32 q-34 65 -34 162 q0 86 64 150 q69 67 170 67 q89 0 162 -61 q78 -66 78 -160 ZM353 0 q-155 44 -191 56 q-44 12 -44 44 q0 52 47 52 q16 0 216 -56 l-28 -96 Z" /><glyph glyph-name="" unicode="&#xff3b;" d="M880 -60 q0 -73 -133 -73 q-89 0 -112 47 q-15 30 -15 137 l0 618 q0 103 20 137 q26 47 107 47 q133 0 133 -76 q0 -32 -16 -45 q-15 -11 -63 -11 q-9 0 -24 3 q-16 3 -24 3 q-19 0 -19 -51 l0 -633 q0 -50 19 -50 q7 0 23 3 q15 3 25 3 q44 0 61 -13 q18 -12 18 -46 Z" /><glyph glyph-name="" unicode="&#x3048;" d="M867 51 q-37 -42 -98 -69 q-61 -27 -122 -27 q-51 0 -92 24 q-46 28 -67 79 q-67 -46 -93 -62 q-63 -39 -91 -39 q-20 0 -36 16 q-16 16 -16 36 q0 29 40 60 q100 76 151 114 q119 90 192 163 q95 93 95 142 q0 30 -56 45 q-36 9 -76 9 q-182 0 -472 -163 l-56 103 q76 50 164 86 q61 26 194 69 l-83 61 q-34 24 -37 27 q-15 15 -15 43 q0 19 16 34 q16 14 37 14 q30 0 124 -59 q80 -52 128 -93 q104 0 178 -34 q89 -44 89 -127 q0 -104 -271 -363 q0 -62 70 -62 q68 0 138 67 l65 -94 Z" /><glyph glyph-name="" unicode="&#x3059;" d="M883 606 q0 -48 -57 -48 q-47 0 -120 8 q-84 9 -132 9 l16 -60 q202 -59 202 -273 q0 -116 -86 -207 q-75 -77 -192 -113 l-40 102 q202 63 202 236 q0 68 -79 138 q0 -132 -69 -212 q-70 -81 -182 -81 q-85 0 -136 51 q-50 49 -50 135 q0 100 100 167 q92 62 211 62 l-10 58 q-81 0 -350 -8 l0 106 q129 0 317 4 q-15 42 -15 52 q0 49 55 49 q32 0 54 -36 q5 -8 28 -64 q94 0 269 -15 q64 -6 64 -60 ZM492 409 q-77 0 -142 -28 q-77 -34 -77 -92 q0 -32 22 -55 q21 -24 54 -24 q118 0 143 199 Z" /><glyph glyph-name="" unicode="&#x305a;" d="M997 767 l-51 -48 l-66 64 q-19 18 -21 21 q-7 8 -7 27 q0 27 31 27 q20 0 60 -38 l54 -53 ZM862 733 l-51 -48 l-66 64 q-19 18 -21 21 q-7 8 -7 27 q0 27 31 27 q20 0 60 -38 l54 -53 ZM883 606 q0 -48 -57 -48 q-47 0 -120 8 q-84 9 -132 9 l16 -60 q202 -59 202 -273 q0 -116 -86 -207 q-75 -77 -192 -113 l-40 102 q202 63 202 236 q0 68 -79 138 q0 -132 -69 -212 q-70 -81 -182 -81 q-85 0 -136 51 q-50 49 -50 135 q0 100 100 167 q92 62 211 62 l-10 58 q-81 0 -350 -8 l0 106 q129 0 317 4 q-15 42 -15 52 q0 49 55 49 q32 0 54 -36 q5 -8 28 -64 q94 0 269 -15 q64 -6 64 -60 ZM492 409 q-77 0 -142 -28 q-77 -34 -77 -92 q0 -32 22 -55 q21 -24 54 -24 q118 0 143 199 Z" /><glyph glyph-name="" unicode="&#x3068;" d="M860 505 q0 -21 -16 -34 q-14 -13 -38 -13 l-78 18 q-78 18 -139 18 q-117 0 -212 -49 q-120 -63 -120 -177 q0 -103 92 -153 q70 -41 176 -41 q70 0 131 15 q21 6 76 26 q48 17 75 17 q17 0 33 -14 q15 -15 15 -32 q0 -41 -44 -62 q-44 -22 -132 -41 q-83 -17 -139 -17 q-168 0 -275 68 q-126 80 -126 232 q0 115 77 201 q74 84 198 123 q-43 107 -43 123 q0 54 64 54 q29 0 50 -45 l49 -112 q99 0 160 -8 q83 -12 140 -45 q26 -15 26 -52 Z" /><glyph glyph-name="" unicode="&#x306e;" d="M918 299 q0 -98 -45 -191 q-38 -77 -110 -168 l-89 68 q131 154 131 290 q0 233 -275 265 q94 -158 94 -286 q0 -108 -70 -176 q-71 -68 -180 -68 q-122 0 -202 72 q-83 74 -83 195 q0 179 133 281 q120 93 303 93 q182 0 287 -99 q106 -100 106 -276 ZM504 285 q0 155 -103 269 q-86 -27 -143 -94 q-58 -71 -58 -154 q0 -74 52 -119 q47 -43 122 -43 q60 0 96 42 q34 40 34 99 Z" /><glyph glyph-name="" unicode="&#x306f;" d="M936 562 q0 -53 -67 -53 q-27 0 -105 5 q29 -107 29 -160 q133 -135 136 -351 l-112 -13 q0 65 -6 96 q-9 37 -36 92 q-9 -94 -67 -150 q-55 -52 -124 -52 q-107 0 -166 53 q-59 52 -59 157 q0 105 71 164 q67 58 174 58 q4 0 70 -8 q-17 72 -29 118 q-94 -3 -275 -6 l0 104 l230 5 l-26 52 q-14 27 -14 38 q0 59 63 59 q20 0 39 -24 l26 -41 q10 -16 43 -82 q108 -6 144 -6 q61 0 61 -55 ZM164 -4 q-47 101 -47 309 q0 91 27 253 q17 103 73 103 q53 0 53 -68 l-18 -119 q-17 -110 -17 -177 q0 -157 38 -256 l-109 -45 ZM686 263 q-12 14 -40 22 q-28 7 -43 7 q-53 0 -89 -27 q-40 -30 -40 -86 q0 -41 25 -67 q23 -26 65 -26 q60 0 94 63 q28 53 28 114 Z" /><glyph glyph-name="" unicode="&#x307e;" d="M838 454 q0 -56 -47 -56 q-75 -3 -166 -3 q3 -35 6 -109 q167 -75 191 -285 l-109 -19 q-8 126 -88 183 q-23 -104 -88 -159 q-67 -56 -159 -56 q-90 0 -145 46 q-58 48 -58 135 q0 91 92 140 q77 42 191 42 q15 0 57 -5 q2 38 -1 80 q-74 0 -368 -28 l-2 111 q111 9 351 27 l-20 91 q-184 -13 -310 -24 l0 109 q80 7 273 19 q0 49 6 64 q11 27 52 27 q26 0 43 -19 q12 -15 27 -57 l201 -2 q67 -2 67 -50 q0 -61 -64 -59 l-181 4 q15 -58 21 -91 l160 -2 q68 -2 68 -54 ZM505 196 q-39 9 -65 9 q-50 0 -94 -21 q-55 -27 -55 -72 q0 -31 26 -45 q17 -11 46 -11 q60 0 98 35 q44 38 44 105 Z" /><glyph glyph-name="" unicode="&#x3081;" d="M920 287 q0 -171 -140 -329 l-91 65 q118 135 118 264 q0 75 -26 124 q-31 56 -109 101 q-17 -115 -52 -196 q-35 -81 -103 -165 l65 -97 l-97 -60 q-29 37 -65 92 q-81 -39 -130 -39 q-88 0 -144 51 q-57 51 -57 138 q0 141 123 253 l-40 92 q-36 83 -36 104 q0 50 57 50 q22 0 40 -33 q14 -34 29 -67 l37 -80 q108 62 267 81 q0 12 -2 46 q-3 24 -3 31 q-1 39 9 55 q9 15 41 15 q45 0 57 -67 l8 -44 q0 -12 5 -47 q114 -27 180 -127 q59 -94 59 -211 ZM555 520 q-111 -15 -210 -68 q39 -78 109 -204 q39 54 71 131 q30 78 30 141 ZM366 189 q-57 104 -104 196 q-64 -98 -64 -141 q0 -42 26 -65 q25 -25 65 -25 q48 0 77 35 Z" /><glyph glyph-name="" unicode="&#x3082;" d="M912 132 q-55 -80 -149 -130 q-94 -51 -191 -51 q-150 0 -227 93 q-73 86 -73 251 l-149 0 l1 115 q79 0 157 3 l33 143 l-161 -2 l0 109 l192 -1 l20 52 q23 61 63 61 q59 0 59 -46 q0 -17 -17 -71 l98 -11 q80 -8 138 -15 q41 -6 56 -15 q19 -13 19 -43 q0 -21 -15 -36 q-15 -16 -35 -16 q-11 0 -129 13 q-135 13 -169 13 q-21 -76 -31 -143 q99 0 297 -24 q61 -6 61 -54 q0 -25 -21 -40 q-22 -17 -47 -14 l-305 23 q0 -110 31 -163 q39 -73 135 -73 q165 0 281 143 l78 -71 Z" /><glyph glyph-name="" unicode="&#x308a;" d="M848 359 q0 -125 -29 -223 q-28 -90 -92 -195 l-100 55 q102 171 102 362 q0 156 -60 264 q-18 32 -18 59 q0 48 46 48 q46 0 84 -74 q67 -139 67 -296 ZM499 201 q-106 -79 -177 -79 q-83 0 -124 63 q-36 54 -36 147 q0 134 70 304 q26 64 64 64 q25 0 44 -16 q17 -15 17 -41 q0 -6 -24 -65 q-54 -135 -54 -247 q0 -83 41 -83 q51 0 119 53 l60 -100 Z" /><glyph glyph-name="" unicode="&#x3093;" d="M916 12 q-76 -57 -143 -57 q-59 0 -103 36 q-45 36 -45 91 q0 51 34 141 q34 93 34 139 q0 51 -44 78 q-35 20 -84 20 q-74 0 -149 -45 q-68 -42 -119 -103 q-19 -99 -39 -354 l-117 1 q3 128 42 356 q43 249 98 414 q17 51 66 51 q22 0 37 -15 q14 -16 14 -38 q0 -27 -23 -104 q-6 -16 -46 -138 q42 43 113 70 q65 24 122 24 q108 0 173 -50 q71 -56 71 -157 q0 -52 -33 -139 q-33 -87 -33 -120 q0 -41 47 -41 q22 0 64 35 l63 -95 Z" /><glyph glyph-name="" unicode="&#x30a4;" d="M856 721 q0 -26 -8 -39 q-8 -13 -30 -29 q-93 -66 -265 -194 q0 -105 16 -291 l19 -231 l-117 0 q-1 19 -15 198 q-12 156 -12 256 l-239 -193 l-77 87 l313 242 q177 132 325 226 q17 11 40 11 q50 0 50 -43 Z" /><glyph glyph-name="" unicode="&#x30a7;" d="M875 58 q0 -50 -61 -53 q-201 -9 -669 -37 l-1 111 l295 20 l0 304 l-262 -2 l0 115 q476 -8 613 -8 q24 0 40 -15 q16 -16 16 -38 q0 -65 -72 -65 q-15 0 -87 4 l-129 5 l0 -293 l242 7 q75 0 75 -55 Z" /><glyph glyph-name="" unicode="&#x30ab;" d="M864 336 q0 -74 -38 -174 q-39 -102 -90 -162 q-27 -30 -61 -30 q-21 0 -35 14 q-15 15 -15 36 q0 14 19 46 q47 79 69 125 q34 77 34 136 q0 72 -79 107 q-59 25 -139 25 q-25 0 -65 -4 q-33 -83 -97 -271 l-73 -216 l-108 28 q101 308 156 445 q-91 -19 -171 -53 l-34 100 q113 56 246 78 l63 150 q23 55 60 55 q61 0 61 -51 q0 -30 -51 -150 q153 0 244 -53 q104 -62 104 -181 Z" /><glyph glyph-name="" unicode="&#x30ad;" d="M887 295 q0 -49 -58 -57 l-252 -35 l46 -221 l-114 -24 l-48 228 l-323 -67 l-25 107 l325 67 l-40 231 l-257 -46 l-23 107 l265 46 l-10 82 q-1 3 -1 11 q0 43 56 43 q49 0 57 -44 l12 -78 l278 30 q62 0 62 -53 q0 -47 -57 -53 l-265 -33 l37 -224 l272 34 q26 0 45 -14 q18 -13 18 -37 Z" /><glyph glyph-name="" unicode="&#x30b0;" d="M983 744 l-51 -48 l-66 64 q-19 18 -21 21 q-7 8 -7 27 q0 27 31 27 q20 0 60 -38 l54 -53 ZM880 679 l-51 -48 l-66 64 q-19 18 -21 21 q-7 8 -7 27 q0 27 31 27 q20 0 60 -38 l54 -53 ZM895 446 q0 -80 -93 -262 q-94 -180 -157 -228 q-12 -9 -36 -9 q-25 0 -44 17 q-18 17 -18 40 q0 14 5 20 q98 137 135 196 q87 141 87 210 q0 53 -63 77 q-46 17 -104 17 q-150 0 -277 -106 l-115 -202 l-99 54 q81 152 265 465 q23 39 53 39 q57 0 57 -57 q0 -16 -30 -61 l-38 -57 q76 38 198 38 q107 0 185 -45 q89 -53 89 -146 Z" /><glyph glyph-name="" unicode="&#x30b3;" d="M883 335 q0 -209 -115 -285 q-90 -60 -306 -60 q-187 0 -348 41 l18 117 q173 -43 355 -43 q151 0 208 44 q68 51 68 200 q0 103 -24 155 q-39 81 -141 81 q-189 0 -469 -73 l-25 110 q218 71 520 71 q145 0 208 -107 q51 -87 51 -251 Z" /><glyph glyph-name="" unicode="&#x30b5;" d="M895 456 q0 -58 -73 -56 l-79 1 q0 -204 -52 -418 l-114 20 q53 198 53 402 q-100 0 -317 -11 l6 -276 l-111 -1 l-1 265 l-105 -8 l-2 107 l105 9 l5 154 q2 59 55 59 q20 0 35 -15 q14 -17 14 -37 l-1 -155 q182 15 321 15 q0 59 -6 161 q-2 22 13 38 q14 16 35 16 q55 0 60 -67 q9 -93 9 -148 l48 0 q102 0 102 -55 Z" /><glyph glyph-name="" unicode="&#x30b9;" d="M820 -34 q-128 50 -308 187 q-100 -88 -152 -128 q-67 -50 -85 -50 q-29 0 -47 15 q-18 15 -18 41 q0 29 33 54 q298 226 421 386 q36 47 36 79 q0 66 -179 66 q-100 0 -196 -32 q-63 -21 -178 -80 l-55 93 q197 127 456 127 q111 0 184 -33 q94 -44 94 -132 q0 -88 -149 -246 l-76 -78 q144 -102 273 -165 l-54 -104 Z" /><glyph glyph-name="" unicode="&#x30bd;" d="M869 617 q0 -138 -86 -340 q-81 -193 -183 -314 q-54 35 -93 68 q206 275 254 607 q9 59 56 59 q33 0 45 -26 q7 -19 7 -54 ZM264 207 q-48 63 -100 193 q-53 128 -53 193 q0 65 45 65 q27 0 42 -17 q11 -12 23 -49 q56 -188 140 -326 l-97 -59 Z" /><glyph glyph-name="" unicode="&#x30c1;" d="M900 301 q0 -59 -70 -59 l-312 6 l-82 -286 l-110 22 l78 271 l-280 14 l2 106 l303 -12 l62 261 l-348 -42 l-16 107 q323 57 662 57 q59 0 59 -48 q0 -53 -60 -56 q-115 -9 -179 -9 l-67 -278 l266 -6 q92 -3 92 -48 Z" /><glyph glyph-name="" unicode="&#x30c6;" d="M819 641 q0 -55 -63 -55 q-7 0 -64 6 q-311 29 -517 30 q0 86 2 109 q257 0 524 -27 q118 -12 118 -63 ZM887 349 q0 -57 -72 -57 l-211 1 q-29 -128 -47 -180 q-26 -74 -74 -152 l-103 43 q73 128 111 289 l-374 -5 l0 109 l680 2 q90 0 90 -50 Z" /><glyph glyph-name="" unicode="&#x30c8;" d="M797 250 q-186 85 -368 151 q0 -109 5 -224 q5 -160 5 -206 l-119 -3 q0 52 -3 197 q-2 86 -2 198 q0 83 5 185 q6 123 6 135 q0 93 63 93 q22 0 35 -18 q14 -20 14 -46 q0 -74 -5 -191 q210 -72 407 -167 l-43 -104 Z" /><glyph glyph-name="" unicode="&#x30c9;" d="M871 729 l-51 -48 l-66 64 q-19 18 -21 21 q-7 8 -7 27 q0 27 31 27 q20 0 60 -38 l54 -53 ZM768 664 l-51 -48 l-66 64 q-19 18 -21 21 q-7 8 -7 27 q0 27 31 27 q20 0 60 -38 l54 -53 ZM797 250 q-186 85 -368 151 q0 -109 5 -224 q5 -160 5 -206 l-119 -3 q0 52 -3 197 q-2 86 -2 198 q0 83 5 185 q6 123 6 135 q0 93 63 93 q22 0 35 -18 q14 -20 14 -46 q0 -74 -5 -191 q210 -72 407 -167 l-43 -104 Z" /><glyph glyph-name="" unicode="&#x30ce;" d="M691 682 q0 -101 -96 -341 q-99 -249 -195 -375 l-105 59 q215 323 278 663 q12 63 60 63 q58 0 58 -69 Z" /><glyph glyph-name="" unicode="&#x30d0;" d="M973 759 l-51 -48 l-66 64 q-19 18 -21 21 q-7 8 -7 27 q0 27 31 27 q20 0 60 -38 l54 -53 ZM870 694 l-51 -48 l-66 64 q-19 18 -21 21 q-7 8 -7 27 q0 27 31 27 q20 0 60 -38 l54 -53 ZM815 154 q-61 123 -101 201 q-59 109 -120 190 q-37 47 -37 76 q0 19 14 33 q14 14 33 14 q37 0 91 -68 q123 -157 224 -399 l-104 -47 ZM342 516 q0 -20 -13 -56 q-93 -239 -130 -392 l-110 28 q23 114 124 390 q16 43 25 56 q20 32 48 32 q56 0 56 -58 Z" /><glyph glyph-name="" unicode="&#x30d6;" d="M996 766 l-51 -48 l-66 64 q-19 18 -21 21 q-7 8 -7 27 q0 27 31 27 q20 0 60 -38 l54 -53 ZM893 701 l-51 -48 l-66 64 q-19 18 -21 21 q-7 8 -7 27 q0 27 31 27 q20 0 60 -38 l54 -53 ZM880 491 q0 -160 -288 -493 q-60 -69 -97 -69 q-21 0 -35 14 q-15 15 -15 36 q0 19 8 27 q311 359 311 479 q0 78 -88 114 q-64 26 -152 26 q-152 0 -366 -107 l-47 100 q212 118 439 118 q139 0 227 -54 q103 -67 103 -191 Z" /><glyph glyph-name="" unicode="&#x30de;" d="M880 514 q0 -99 -81 -219 q-44 -63 -151 -185 l124 -50 l-42 -98 q-143 41 -485 168 q-51 18 -51 51 q0 58 64 58 q11 0 125 -39 l146 -51 q73 75 138 158 q93 120 93 172 q0 129 -235 129 q-93 0 -198 -37 q-60 -22 -183 -84 l-41 99 q239 135 445 135 q134 0 222 -41 q110 -54 110 -166 Z" /><glyph glyph-name="" unicode="&#x30e2;" d="M889 413 q0 -48 -78 -51 q-301 -21 -447 -21 q-23 -63 -23 -136 q0 -141 187 -141 q84 0 269 73 l42 -89 q-182 -82 -326 -82 q-124 0 -201 60 q-84 63 -84 178 q0 64 23 127 l-140 -7 l2 111 l165 9 q19 39 56 98 q35 54 53 72 q-48 0 -135 -5 q-101 -7 -113 -7 l1 106 q183 0 606 28 l14 0 q64 0 64 -53 q0 -51 -70 -54 l-235 -12 l-55 -76 q-26 -37 -58 -94 l409 19 q74 0 74 -53 Z" /><glyph glyph-name="" unicode="&#x30e9;" d="M858 662 q0 -24 -19 -40 q-18 -17 -47 -17 l-289 20 q-203 11 -328 11 l5 108 q399 0 594 -24 q84 -10 84 -58 ZM885 331 q0 -72 -86 -166 q-63 -71 -154 -130 q-114 -73 -153 -73 q-25 0 -43 15 q-18 15 -18 38 q0 26 31 44 q95 50 176 112 q121 94 121 160 q0 36 -77 59 q-61 16 -107 16 q-128 0 -221 -14 q-109 -19 -211 -61 l-39 97 q201 89 476 89 q125 0 203 -36 q102 -48 102 -150 Z" /><glyph glyph-name="" unicode="&#x30f3;" d="M512 391 q-135 126 -270 243 q-29 23 -29 53 q0 59 54 59 q17 0 39 -14 q104 -72 289 -253 l-83 -88 ZM876 190 q0 -32 -34 -57 q-19 -13 -63 -30 q-142 -55 -311 -90 q-167 -34 -310 -37 l-11 108 q195 22 324 50 q165 36 302 97 q27 12 42 12 q61 0 61 -53 Z" /><glyph glyph-name="" unicode="&#x394;" d="M888 176 q0 -115 -142 -154 q-78 -22 -235 -22 q-399 0 -399 187 q0 74 65 210 q68 145 152 242 q98 115 175 115 q86 0 182 -113 q83 -100 144 -242 q58 -140 58 -223 ZM771 184 q0 89 -54 203 q-45 97 -111 176 q-66 77 -102 77 q-28 0 -96 -86 q-72 -91 -121 -186 q-60 -114 -60 -177 q0 -47 121 -65 q72 -12 163 -12 q81 0 146 11 q114 18 114 59 Z" /><glyph glyph-name="" unicode="&#x3b3;" d="M879 519 q0 -58 -52 -63 q-150 -13 -303 -150 q-82 -139 -120 -264 q-13 -42 -51 -42 q-26 0 -43 16 q-18 15 -18 41 q0 9 3 19 q17 60 57 149 q44 99 81 153 q-22 45 -25 49 q-21 29 -49 29 q-70 0 -143 -91 l-85 74 q117 134 228 134 q104 0 167 -116 q175 116 291 116 q27 0 45 -15 q17 -17 17 -39 Z" /><glyph glyph-name="" unicode="&#x3c0;" d="M847 116 q-85 -117 -213 -117 q-73 0 -124 55 q-50 54 -50 138 q0 94 76 262 q-76 -2 -167 -2 q-43 -147 -55 -201 q-30 -132 -30 -241 l-114 0 q-4 69 20 203 q23 133 61 237 q-59 -2 -104 -5 l0 114 q154 14 305 14 q110 0 162 -2 q92 -5 159 -22 q44 -12 44 -52 q0 -24 -14 -43 q-15 -19 -39 -19 q-10 0 -48 7 q-19 4 -40 7 l-24 4 q-3 -41 -41 -124 q-37 -81 -37 -137 q0 -37 21 -58 q17 -18 39 -18 q79 0 146 73 l67 -73 Z" /><glyph glyph-name="" unicode="&#x2500;" d="M1000 324 l-1000 0 l0 71 l1000 0 l0 -71 Z" /><glyph glyph-name="" unicode="&#x554a;" d="M395 544 q32 -2 42 -25 l4 5 q59 45 59 80 q0 72 -51 72 q-45 0 -97 -49 l-11 93 q61 47 130 50 q46 0 79 -33 q40 -43 40 -106 q0 -83 -62 -143 q39 -25 63 -51 q9 65 37 128 q16 34 48 37 q32 -3 39 -27 q25 0 51 -8 q22 -14 44 -54 q22 -53 22 -141 l0 -33 q0 -73 -20 -118 q-30 -72 -81 -72 l-27 0 q-54 0 -84 40 q-9 16 -15 31 q-9 -12 -7 -10 q-44 -53 -99 -53 q-23 0 -40 7 q7 -227 7 -257 l-94 0 q-3 209 -10 356 l-8 176 q-3 35 -3 61 q0 44 44 44 ZM455 255 q16 -2 30 -2 q60 0 60 82 q0 21 -18 55 q-27 21 -68 24 q-7 0 -12 3 l8 -162 ZM799 670 q-149 -4 -194 -18 l0 98 q60 15 278 18 q82 0 82 -53 q-3 -41 -49 -44 l-14 0 l26 -138 q21 -133 21 -271 q0 -197 -35 -269 q-38 -82 -110 -82 q-76 0 -138 41 l20 97 q41 -37 85 -37 q26 2 43 16 q16 15 25 40 q16 51 16 209 q-3 176 -55 390 l-1 3 ZM712 227 q17 0 26 42 q6 30 6 80 q0 71 -8 109 q-8 33 -28 39 l-12 -1 q-22 -63 -22 -135 q0 -83 8 -106 q7 -28 21 -28 l9 0 ZM116 719 q35 0 44 -32 l24 3 q41 -3 69 -9 q30 -12 48 -38 q29 -21 29 -298 l0 -47 q0 -157 -25 -195 q-27 -55 -112 -57 l-10 2 q-66 0 -90 25 q-24 15 -32 68 q-6 68 -6 213 q0 95 9 296 q14 65 52 69 ZM180 592 q-4 0 -21 -5 q-2 -16 -2 -25 q-3 -88 -3 -192 q0 -199 5 -212 q3 -15 28 -15 q33 0 37 18 q6 23 6 133 l0 45 q0 232 -17 247 q-16 6 -33 6 Z" /><glyph glyph-name="" unicode="&#x963f;" d="M235 778 q62 0 99 -43 q43 -58 43 -118 q0 -72 -60 -156 q68 -62 68 -160 q0 -74 -52 -121 q-50 -46 -118 -46 q-13 0 -22 4 q6 -171 6 -231 l-105 0 q-3 221 -10 379 q-1 36 -4 101 l-4 85 q-3 36 -3 65 q0 50 49 50 q54 -1 54 -58 q2 -18 13 -270 q0 -16 1 -22 q7 -2 19 -2 q24 0 46 22 q20 18 20 44 q0 25 -7 62 q-10 26 -29 37 q-24 9 -30 35 q0 24 13 35 q12 18 34 62 q12 29 12 57 q0 89 -59 89 q-64 0 -136 -57 l-11 105 q101 52 173 52 ZM873 775 q92 0 92 -60 q-3 -45 -55 -49 l-45 0 q9 -28 34 -159 q23 -129 23 -256 q0 -192 -36 -261 q-39 -79 -115 -79 q-78 0 -142 35 l21 104 q44 -30 86 -30 q21 2 39 15 q15 12 23 38 q14 47 14 195 q-3 165 -58 364 q-4 15 -4 27 l0 6 q-258 -4 -336 -20 l0 110 q104 16 459 20 ZM499 563 q24 0 31 -21 l22 6 q75 0 101 -13 q37 -12 61 -55 q27 -40 30 -162 q0 -113 -27 -161 q-43 -74 -132 -74 q-93 0 -135 55 q-40 56 -40 168 q0 106 24 205 q15 51 65 52 ZM524 444 q-12 -79 -12 -134 q0 -77 12 -103 q13 -31 50 -31 q39 0 54 30 q15 30 15 92 q0 128 -22 137 q-16 14 -37 16 q-22 3 -38 3 l-22 -10 Z" /><glyph glyph-name="" unicode="&#x57c3;" d="M271 560 q92 0 92 -59 q-3 -46 -54 -50 l-55 0 q1 -74 5 -238 q10 1 25 5 q12 3 23 3 q58 -3 64 -56 q-3 -44 -51 -53 q-27 -9 -127 -25 q-76 -13 -150 -13 l0 109 q62 3 107 10 q-6 135 -9 255 q-63 -3 -94 -10 l0 110 q31 5 91 8 q-2 37 -4 113 q3 72 54 78 q37 0 48 -26 q12 -21 12 -46 q0 -58 3 -115 l20 0 ZM651 809 q45 -3 48 -41 q-3 -21 -17 -35 q-76 -83 -92 -112 q-15 -27 -15 -40 q0 -14 22 -14 q68 0 170 23 l-19 22 q-22 18 -22 51 q3 45 50 51 q36 0 72 -42 q42 -43 107 -165 l-87 -67 q-5 9 -40 64 q-170 -38 -250 -38 q-3 -17 -17 -54 q115 4 247 5 q87 0 87 -57 q-3 -44 -52 -47 l-132 -1 q-3 -27 -23 -74 q-5 -11 -6 -19 q60 2 162 10 q30 2 43 2 q56 -3 62 -55 q-3 -41 -49 -50 q-55 -6 -231 -15 l-20 -1 q-26 -92 -46 -203 l-115 25 q25 106 43 174 q-45 -2 -137 -2 l0 106 q58 0 166 4 q18 66 30 95 q-53 -2 -76 -4 l-40 -80 l-96 40 q12 53 93 211 q2 6 8 14 l-6 5 q-29 26 -29 70 q0 78 129 211 q36 30 78 33 ZM755 87 q33 0 182 -91 l-57 -101 l-149 94 q-29 21 -30 52 q5 43 54 46 Z" /><glyph glyph-name="" unicode="&#x7691;" d="M509 786 q53 -3 53 -45 q-3 -30 -9 -61 q0 -39 27 -48 q21 -7 51 -8 q4 59 10 116 q9 59 60 65 q48 -3 54 -65 l-8 -61 q-4 -28 -6 -56 q40 3 70 17 q21 8 21 32 q-2 22 -4 64 q3 48 50 55 q41 -5 60 -43 q4 -86 4 -113 q0 -48 -32 -69 q-26 -19 -81 -28 q-66 -12 -126 -12 l-45 0 q-115 0 -163 18 q-53 19 -53 89 q0 39 12 112 q15 37 55 41 ZM761 500 q86 0 126 -48 q39 -43 39 -140 q0 -94 -33 -129 q-46 -45 -112 -45 q-117 0 -202 17 q-6 -39 -6 -64 q0 -38 28 -53 q24 -18 83 -18 q108 0 249 36 l0 -108 q-128 -34 -236 -34 l-29 0 q-82 0 -144 34 q-65 41 -65 121 q0 70 18 163 q12 49 58 52 q41 -3 51 -29 q84 -18 160 -18 q29 0 47 19 q11 16 11 56 q0 44 -11 66 q-15 23 -55 23 q-130 -6 -243 -31 l-15 98 q134 32 281 32 ZM313 768 q61 -3 61 -45 q0 -43 -46 -55 q-76 -33 -146 -67 q0 -1 1 -2 q39 7 73 11 q72 0 94 -12 q35 -12 56 -51 q27 -40 29 -154 q0 -195 -34 -285 q-51 -131 -158 -131 q-101 0 -148 81 q-45 84 -45 244 q0 134 41 254 q6 19 14 29 l-25 83 q182 97 233 100 ZM250 508 q-35 -5 -68 -12 q-15 -61 -21 -108 l15 -1 q57 -6 66 -6 q50 -12 50 -60 q-6 -52 -63 -54 q-17 0 -74 6 q2 -104 16 -142 q16 -52 60 -52 q57 0 78 71 q20 75 20 223 q0 111 -17 120 q-13 11 -31 13 q-24 2 -31 2 Z" /><glyph glyph-name="" unicode="&#x764c;" d="M634 609 q148 0 190 -27 q46 -32 46 -80 l0 -25 q0 -45 -32 -60 q-57 -36 -182 -36 l-58 0 q-108 0 -157 25 q-47 24 -47 72 l0 21 q0 53 51 83 q37 22 143 27 l46 0 ZM619 464 q80 0 132 12 q18 3 18 28 q0 14 -23 20 q-25 3 -124 3 q-87 0 -109 -8 q-18 -6 -18 -20 q0 -25 15 -28 q22 -7 109 -7 ZM350 380 q28 0 37 -17 q30 5 55 5 q31 0 75 -4 q26 -3 55 -25 q29 -18 29 -98 l0 -11 q0 -42 -42 -65 q-39 -24 -111 -24 l-13 0 q-82 0 -120 35 q-27 26 -27 77 q0 33 15 87 q10 37 47 40 ZM438 286 q-12 0 -56 -14 q0 -26 10 -37 q11 -12 42 -12 q45 0 58 8 q15 6 15 24 q-3 25 -26 28 q-24 3 -43 3 ZM780 373 q71 0 122 -28 q45 -27 48 -84 l0 -16 q0 -49 -35 -76 q-38 -28 -98 -28 l-34 0 q-79 0 -120 32 q-28 24 -28 73 l0 17 q0 58 37 86 q27 20 87 24 l21 0 ZM794 227 q39 0 49 9 q13 7 13 21 q0 16 -17 22 q-22 8 -65 8 q-29 0 -36 -7 q-9 -7 -9 -25 q0 -16 8 -23 q8 -5 57 -5 ZM391 110 q49 -3 49 -43 l-1 -17 q0 -38 35 -45 q31 -8 105 -11 q-3 36 -11 100 q9 59 61 65 q47 -3 53 -65 q0 -6 5 -54 q0 -17 2 -45 q69 7 105 18 q33 9 33 34 q-3 12 -7 34 q3 45 48 51 q38 -3 58 -41 q7 -52 7 -79 q0 -48 -41 -69 q-34 -19 -106 -28 q-84 -12 -162 -12 l-50 0 q-127 0 -181 17 q-59 19 -59 86 q0 26 4 65 q13 34 53 39 ZM562 823 q13 0 25 -6 q37 -21 89 -67 l-19 -21 q61 0 211 2 q71 -3 75 -49 q-3 -46 -51 -49 q-297 -3 -450 -9 q-66 -4 -126 -6 l-31 -213 q-29 -217 -35 -475 l-109 0 q0 119 13 263 q-67 -32 -73 -32 l-20 98 q80 42 104 50 q2 29 10 94 l-74 43 q-30 21 -31 52 q5 43 54 46 q14 0 66 -22 q9 78 21 158 q9 59 60 65 q32 -2 44 -27 q106 5 218 8 l-12 10 q-17 20 -17 36 q3 48 58 51 Z" /><glyph glyph-name="" unicode="&#x827e;" d="M749 441 q45 -6 51 -51 q-2 -27 -25 -55 q-87 -67 -223 -174 q57 -36 116 -54 q95 -35 242 -40 l-22 -115 q-126 0 -247 41 q-104 34 -187 90 q-92 -73 -218 -175 l-88 71 q105 96 210 183 q-72 73 -137 176 q-22 34 -22 50 q2 54 49 57 q38 0 53 -38 q74 -106 149 -170 q120 95 241 178 q29 26 58 26 ZM855 751 q74 -3 79 -51 q-3 -48 -54 -51 q-92 -2 -129 -2 q-15 -55 -28 -129 l-107 24 q16 69 25 103 q-190 -5 -284 -10 q11 -38 35 -114 l-118 -23 l-36 129 q-91 -7 -176 -9 l0 101 q60 6 148 12 q-4 14 -6 25 q3 54 50 57 q59 0 68 -62 q2 -8 4 -13 q188 8 344 10 q10 34 17 44 q22 31 50 31 q49 -3 52 -51 q-2 -14 -4 -22 l70 1 Z" /><glyph glyph-name="" unicode="&#x788d;" d="M354 736 q81 0 90 -48 q6 29 15 56 q15 54 64 54 q28 0 38 -21 q61 7 109 11 l12 0 q36 0 104 -5 q54 -10 89 -38 q51 -30 51 -170 l0 -33 q0 -48 -14 -70 q-18 -39 -67 -56 q-49 -23 -144 -23 l-38 0 q-132 0 -180 42 q-57 47 -57 121 l0 13 q0 39 8 76 q-15 -17 -43 -18 l-81 0 q-8 -23 -17 -38 q-82 -141 -118 -217 q7 -7 10 -15 q18 5 43 7 q37 0 77 -7 q32 -6 58 -40 q30 -27 30 -157 l0 -17 q0 -74 -40 -116 q-39 -42 -107 -42 l-15 0 q-93 0 -135 55 q-32 38 -32 120 q0 68 24 179 l4 10 l-38 27 q79 167 126 248 q-83 -3 -121 -10 l0 109 q60 10 295 13 ZM666 698 q-66 -6 -116 -23 l-6 -27 q85 -3 157 -11 q46 -12 49 -47 q-1 -43 -57 -46 q-91 0 -156 6 q6 -32 30 -47 q40 -20 133 -20 q74 0 95 20 q18 12 21 71 q0 97 -34 112 q-61 12 -116 12 ZM222 262 q-14 0 -47 -15 q-5 -29 -5 -64 q0 -53 11 -72 q12 -24 47 -24 q36 0 47 20 q12 18 12 64 q-3 74 -24 83 q-24 8 -41 8 ZM836 346 q82 0 82 -52 q-3 -42 -49 -45 l-21 0 l13 -63 l21 0 q71 -3 75 -49 q-3 -45 -52 -48 l-34 0 l0 -8 q0 -98 -31 -137 q-33 -41 -98 -41 q-67 0 -121 33 l19 94 q35 -29 71 -29 q15 0 28 5 q10 4 16 15 q10 17 11 66 q-42 -1 -186 -7 l37 -56 l-84 -64 q-36 59 -58 84 q-16 13 -19 29 q-11 -1 -30 -1 l0 98 q116 10 327 14 q-7 29 -20 64 q-205 -3 -264 -15 l0 98 q80 12 367 15 Z" /><glyph glyph-name="" unicode="&#x7231;" d="M790 806 q89 0 89 -60 q-3 -41 -61 -45 l-10 0 q5 -11 7 -25 q-3 -27 -46 -99 q64 -4 106 -18 q57 -24 60 -74 q-1 -26 -21 -73 q-6 -23 -28 -32 q13 -13 14 -30 q-3 -46 -51 -49 q-324 -6 -489 -22 l-19 -58 q122 35 247 36 q92 0 152 -23 q79 -33 79 -84 q0 -43 -54 -72 q-13 -10 -26 -17 q131 -28 160 -38 l-26 -97 q-121 29 -280 61 q-75 -33 -171 -72 q-23 -13 -39 -13 q-53 0 -53 61 q0 22 25 43 q18 6 52 16 l-81 15 q-22 5 -34 15 q-21 -76 -30 -128 l-103 30 q45 164 89 313 q-67 -7 -115 -8 l0 98 q66 9 149 18 q16 52 31 84 q2 2 6 8 q-78 -7 -153 -18 q-4 -44 -4 -67 l-99 0 q0 43 6 124 q9 55 55 59 q27 -1 39 -24 l82 11 q-27 51 -27 73 q0 28 18 41 q-92 -15 -129 -23 l0 106 q127 24 296 39 q179 17 387 18 ZM448 121 q42 -9 152 -31 q35 14 65 29 q29 14 29 22 q0 27 -121 27 q-93 -3 -197 -32 l72 -15 ZM412 475 q7 -13 8 -28 q0 -19 -12 -36 l-11 -27 q171 11 411 15 q-2 5 -2 16 q12 23 18 52 q0 20 -129 20 q-145 -2 -283 -12 ZM347 562 q72 6 108 8 q-31 53 -31 78 q0 26 16 40 l-72 -7 q-43 -4 -81 -9 q21 -7 30 -29 q12 -27 45 -71 l-15 -10 ZM555 575 l92 3 q19 39 64 105 q5 12 10 17 q-149 -4 -218 -8 q15 -9 21 -25 q14 -32 53 -78 l-22 -14 Z" /><glyph glyph-name="" unicode="&#x6c28;" d="M234 817 q39 0 42 -50 l0 -3 l162 6 q155 6 335 6 q82 0 82 -57 q-2 -38 -56 -41 q-239 0 -392 -6 q-87 -2 -179 -8 q-67 -115 -96 -187 l-86 61 q97 197 137 257 q24 22 51 22 ZM694 639 q72 -3 76 -49 q-3 -45 -52 -48 q-239 -3 -346 -10 q-84 -7 -138 -7 l0 98 q154 13 460 16 ZM506 508 q161 0 272 -42 q106 -40 109 -132 q-2 -25 -7 -50 q-36 -175 -36 -214 q0 -69 27 -69 q12 0 37 15 q12 7 16 8 q33 0 35 -49 q-3 -32 -31 -49 q-44 -23 -79 -23 q-58 0 -89 40 q-30 36 -30 102 q0 58 39 242 q4 26 4 38 q0 43 -68 63 q-94 23 -200 23 q-18 0 -73 -5 q16 -16 41 -46 q9 0 27 2 l54 0 q64 0 111 -28 q46 -31 46 -74 q-1 -39 -18 -84 q-3 -31 -47 -34 q-6 -37 -47 -40 l-34 0 l-6 -53 q41 6 85 18 l0 -94 l-95 -20 q-2 -16 -2 -50 l-106 0 q0 22 1 33 q-52 -6 -88 -6 q-89 0 -124 48 q-28 41 -28 103 l0 11 q-44 -4 -67 -9 l0 54 l-62 0 q0 62 8 146 q8 52 52 56 q25 -1 37 -22 q74 19 174 32 q-19 22 -19 38 q0 3 1 5 q-129 -21 -233 -41 l-11 98 q73 18 229 41 q107 18 195 18 ZM169 181 q32 2 45 4 q3 22 9 50 q0 2 3 5 l-53 -13 q-4 -32 -4 -46 ZM457 101 q-107 -2 -156 -4 q-1 -1 -1 -3 q0 -70 70 -70 q33 0 79 6 l7 68 q0 2 1 3 ZM318 191 q128 4 249 5 q19 0 31 -3 q7 28 7 36 q0 47 -79 47 q-113 -3 -221 -21 q14 -12 15 -34 q0 -10 -2 -30 Z" /><glyph glyph-name="" unicode="&#x5b89;" d="M388 573 q47 -3 50 -54 q0 -19 -10 -49 q-29 -50 -45 -79 q192 5 456 6 q83 -3 87 -57 q-3 -52 -60 -56 q-45 -1 -127 -1 q-2 -18 -20 -139 l-5 -43 q74 16 155 36 l0 -109 q-60 -26 -165 -45 q-3 -37 -3 -76 l-117 0 q0 39 1 59 q-54 -4 -77 -4 l-25 0 q-131 0 -208 43 q-82 54 -82 160 q1 51 14 104 q-60 -3 -117 -3 l0 114 q146 7 157 7 q26 60 69 138 q33 45 72 48 ZM617 281 q-78 -1 -288 -7 q-18 -51 -18 -89 q0 -56 39 -83 q47 -31 147 -31 q45 0 96 8 q9 94 24 202 ZM469 821 q35 -3 101 -73 q43 3 126 7 l83 0 q72 0 116 -32 q47 -41 50 -83 l0 -17 q-2 -51 -25 -143 q-12 -30 -65 -30 q-40 0 -40 38 q17 90 17 116 q0 45 -92 45 q-276 -4 -546 -59 q10 -82 16 -124 l-122 -25 q-25 207 -26 242 q2 57 51 60 q52 0 67 -47 q102 22 237 38 q-11 14 -11 28 q3 56 63 59 Z" /><glyph glyph-name="" unicode="&#x6309;" d="M197 794 q43 0 46 -51 q6 -44 16 -130 l6 0 q88 0 88 -58 q-3 -44 -53 -48 l-31 0 l8 -105 q18 4 25 4 q51 -4 54 -54 q-2 -38 -37 -54 q-14 -10 -35 -18 q4 -132 4 -196 q-3 -173 -115 -177 q-60 0 -108 21 l-3 101 q40 -17 85 -17 q36 0 36 114 q0 31 -6 124 q-41 -10 -112 -20 l-25 114 q69 8 129 24 l-11 138 l-113 -3 l0 105 q-13 -1 104 4 l-10 127 q0 52 58 55 ZM404 667 q28 0 42 -16 q77 26 164 38 q-15 11 -30 26 q-23 26 -23 45 q3 50 55 53 q43 -3 130 -102 l-11 -11 l19 0 q90 0 150 -30 q59 -36 59 -81 l0 -15 q-4 -44 -17 -86 q-18 -38 -65 -38 q-42 0 -42 55 q17 36 17 60 q0 20 -33 26 q-42 7 -101 7 q-126 -3 -243 -43 l19 -89 l-102 -21 q-30 150 -32 172 q1 47 44 50 ZM874 393 q82 0 82 -53 q-3 -41 -49 -44 l-69 0 l1 -5 q-3 -29 -21 -140 l-6 -56 q48 11 108 27 l0 -106 q-44 -20 -116 -33 q-3 -36 -3 -72 l-110 0 q0 37 1 57 l-34 -1 q-91 0 -141 39 q-56 47 -56 145 q2 66 18 135 q-71 -6 -109 -14 l0 98 q41 7 144 13 q12 30 43 95 q28 41 66 44 q45 -3 48 -50 q0 -19 -11 -46 l-18 -37 q74 2 232 4 ZM700 75 q11 114 26 216 q0 3 1 4 q-67 -1 -128 -3 l-15 -41 q-14 -42 -14 -80 q0 -49 20 -72 q23 -26 75 -26 q22 0 35 2 Z" /><glyph glyph-name="" unicode="&#x6697;" d="M147 747 q28 0 40 -18 q27 8 45 10 q50 -3 78 -11 q34 -16 52 -42 q33 -24 33 -337 l0 -53 q0 -179 -30 -218 q-30 -63 -127 -66 l-12 3 q-79 0 -108 26 q-28 15 -38 69 q-7 62 -7 216 q0 110 18 345 q13 70 56 76 ZM228 630 q-8 0 -34 -12 q-3 -22 -6 -51 q-4 -76 -4 -116 q40 -3 71 -9 q19 -6 29 -12 q-3 177 -18 192 q-21 8 -38 8 ZM285 342 q-18 -9 -39 -9 q-34 0 -63 3 q0 -184 6 -201 q6 -13 42 -13 q39 0 45 19 q9 27 9 152 l0 49 ZM869 711 q88 0 88 -58 q-3 -44 -53 -48 q-378 0 -470 -20 l0 105 q54 9 188 15 q-18 29 -18 48 q1 55 62 58 q35 -3 103 -102 q30 0 100 2 ZM559 577 q56 0 65 -61 l19 -69 q21 0 69 2 q15 40 42 94 q18 39 54 42 q45 -3 51 -48 q-3 -26 -29 -86 l39 0 q88 0 88 -58 q-3 -44 -53 -48 q-383 0 -482 -16 l0 105 q35 4 106 9 q-11 45 -17 78 q3 53 48 56 ZM514 292 q17 0 27 -6 q67 11 141 13 q60 0 118 -5 q48 -6 89 -37 q45 -25 45 -143 l0 -16 q0 -90 -66 -140 q-60 -51 -173 -51 l-20 0 q-128 0 -188 54 q-42 39 -42 116 q0 71 14 169 q13 43 55 46 ZM677 206 q-24 0 -117 -22 q-1 -6 -1 -16 q98 -6 159 -20 q46 -12 49 -47 q-1 -44 -57 -47 q-89 2 -151 10 q5 -27 19 -38 q26 -25 101 -25 q85 0 116 31 q29 27 29 95 q-6 64 -54 71 q-53 8 -93 8 Z" /><glyph glyph-name="" unicode="&#x5cb8;" d="M189 792 q54 -3 54 -46 q-5 -30 -13 -58 q0 -30 50 -36 q55 -8 167 -10 q5 73 8 105 q9 61 63 67 q48 -3 54 -67 l-7 -63 q-3 -21 -3 -41 q107 3 187 22 q48 9 48 37 q-6 14 -14 42 q3 49 51 55 q42 -3 62 -43 q14 -53 14 -91 q0 -55 -55 -79 q-45 -22 -138 -33 q-112 -12 -215 -12 l-66 0 q-170 0 -241 15 q-78 20 -78 83 q0 40 16 110 q13 38 56 43 ZM846 504 q88 0 88 -58 q-3 -44 -53 -48 q-479 0 -669 -19 q-4 -31 -13 -127 q-14 -146 -17 -333 l-110 0 q0 185 33 527 q9 59 61 64 q32 -2 44 -28 q177 17 636 22 ZM808 335 q77 -3 81 -53 q-3 -49 -56 -53 l-181 -5 l-4 -70 q72 3 206 7 q80 -3 84 -55 q-3 -51 -58 -55 q-108 -2 -238 -8 q-3 -64 -3 -132 l-114 0 q0 77 2 124 q-63 -6 -111 -12 q-91 -17 -186 -20 l0 109 q112 23 302 36 q0 35 3 71 q-8 0 -100 -7 q-84 -9 -160 -12 l0 105 q162 24 533 30 Z" /><glyph glyph-name="" unicode="&#x6848;" d="M276 628 q-60 -10 -89 -16 l7 -59 l53 6 q10 30 29 69 ZM172 710 q111 21 252 37 q-10 11 -10 22 q3 54 61 57 q35 -3 100 -67 l122 5 l83 0 q71 0 116 -27 q46 -35 49 -70 l0 -16 q-2 -41 -21 -119 q-12 -30 -65 -30 q-13 0 -17 2 q-14 -16 -40 -17 q-26 -1 -73 -1 l-4 -60 q54 11 95 22 l0 -106 q-34 -10 -100 -26 q-2 -19 -2 -57 l-110 0 l0 36 q-38 -7 -84 -11 q20 -18 20 -53 l1 -15 q183 4 315 5 q78 -3 81 -52 q-3 -49 -55 -53 q-192 -1 -333 -6 q0 -15 1 -21 q7 -164 7 -184 l-118 0 q-4 177 -5 201 q-25 -2 -76 -4 q-6 -15 -17 -26 q-94 -111 -135 -177 l-101 71 q66 86 97 122 q-80 -5 -140 -5 l0 105 q135 12 366 21 q-2 10 -2 28 q0 27 11 38 l-23 0 q-97 0 -141 42 q-48 42 -48 134 q-48 -4 -69 -4 l0 57 l-74 -15 q-19 170 -21 197 q3 53 48 56 q44 0 59 -36 ZM825 576 q7 47 7 56 q0 35 -89 35 q-192 -3 -358 -23 q4 -18 5 -28 q0 -10 -3 -22 q-6 -10 -13 -24 q165 10 404 15 q32 -2 47 -9 ZM616 483 q-171 -7 -273 -18 q2 -46 19 -61 q23 -20 94 -20 q46 0 130 12 q8 1 26 5 q2 54 4 82 ZM685 92 q43 0 234 -88 l-57 -101 l-201 92 q-29 21 -30 52 q5 42 54 45 Z" /><glyph glyph-name="" unicode="&#x51f9;" d="M283 649 q-53 0 -66 -16 q-15 -18 -21 -68 q-16 -111 -16 -222 q0 -162 21 -189 q27 -45 95 -51 q156 -9 280 -9 q139 0 190 17 q44 15 43 73 q7 100 7 224 q0 88 -11 145 q-14 55 -39 74 q-28 26 -77 26 q-48 0 -48 -16 q45 -75 45 -151 q0 -80 -40 -95 q-38 -31 -138 -31 q-120 0 -165 27 q-46 30 -46 84 q0 59 47 165 q0 13 -61 13 ZM682 762 q101 0 164 -48 q47 -41 66 -121 q22 -113 22 -189 q0 -235 -27 -304 q-25 -68 -86 -91 q-54 -24 -233 -24 l-51 0 q-199 0 -279 18 q-99 18 -147 76 q-49 48 -49 254 q0 159 22 276 q16 79 69 118 q50 31 118 31 l22 0 q83 0 128 -25 q40 -28 40 -67 q0 -16 -20 -61 q-27 -57 -27 -78 q0 -58 81 -58 q73 0 73 65 q0 13 -25 61 q-20 33 -20 55 q0 51 34 82 q39 30 112 30 l13 0 Z" /><glyph glyph-name="" unicode="&#x6556;" d="M433 730 q85 0 85 -55 q-3 -43 -51 -46 l-119 -1 q2 -36 4 -54 q34 0 53 1 q82 0 82 -53 q-3 -42 -49 -45 l-80 0 l3 -55 l77 1 q31 0 52 -8 q72 317 98 354 q23 32 53 32 q50 -3 53 -52 q-3 -32 -20 -72 q-6 -13 -9 -26 q80 3 203 6 q85 0 85 -55 q-3 -44 -51 -47 q-165 0 -267 -7 q-22 -84 -39 -180 l-75 16 q2 -10 2 -15 q-3 -44 -50 -47 l-155 -1 q5 -12 6 -30 q0 -23 -13 -52 q13 2 39 4 l21 0 q62 0 94 -32 q34 -40 35 -110 l0 -33 q0 -71 -50 -138 q-12 -31 -55 -31 q-46 0 -46 45 q49 77 49 126 q0 50 -17 69 q-17 14 -44 14 q-41 -2 -77 -18 q-67 -138 -95 -215 l-90 63 q103 250 151 335 q-112 -6 -152 -15 l0 102 q50 9 181 15 q-4 36 -5 54 q-118 -6 -157 -18 l0 97 q45 11 149 17 q-2 18 -4 54 q-133 -9 -176 -25 l0 102 q46 13 168 22 q-1 4 -1 10 q3 70 52 76 q36 0 48 -24 q11 -24 11 -45 q0 -9 1 -12 q28 0 92 2 ZM801 497 q53 -3 56 -57 q-3 -34 -26 -96 q-29 -80 -52 -180 q69 -27 159 -60 l-36 -107 q-83 29 -148 57 q-14 -59 -25 -128 l-119 27 l17 76 q10 46 16 70 q-51 22 -77 36 q-50 21 -50 60 q5 42 52 48 q23 0 51 -11 q30 -15 50 -23 q53 221 75 254 q26 34 57 34 Z" /><glyph glyph-name="" unicode="&#x71ac;" d="M457 771 q75 0 75 -49 q-3 -38 -45 -41 l-141 -1 q2 -30 4 -45 q22 0 78 2 q72 0 72 -47 q-3 -36 -43 -39 l-100 -1 q2 -22 3 -42 l100 1 q75 0 75 -48 q-3 -38 -45 -41 q-76 0 -178 -2 l1 -10 q0 -22 -18 -43 q14 2 42 4 l21 0 q64 0 94 -24 q34 -27 36 -80 l0 -24 q0 -49 -24 -93 q-12 -30 -54 -30 q-44 0 -44 43 q25 50 25 82 q0 28 -18 40 q-18 8 -45 8 q-52 -3 -102 -24 q-49 -73 -72 -116 l-83 59 q90 145 138 205 q-95 -5 -131 -12 l0 90 q51 7 185 12 l-5 43 q-122 -6 -160 -16 l0 86 q35 8 151 14 q-4 27 -5 44 q-136 -7 -184 -23 l0 90 q51 14 180 21 q7 44 45 49 q33 0 44 -23 q6 -13 9 -22 l119 3 ZM684 809 q45 -3 49 -46 q-1 -17 -9 -44 q16 -2 44 -4 q43 -4 84 -7 l40 -3 q46 -12 46 -56 q-6 -49 -58 -50 q-45 0 -190 16 q-16 -44 -61 -150 l-91 39 q13 70 94 265 q16 37 52 40 ZM841 563 q40 -6 46 -46 q-1 -23 -23 -51 q-26 -35 -76 -105 q74 -42 142 -84 l-50 -101 q-72 51 -153 99 l-105 -149 l-79 65 q42 70 88 137 q-25 12 -48 24 q-33 18 -36 45 q3 50 48 53 q17 0 36 -9 l59 -29 q42 59 98 127 q26 24 53 24 ZM285 98 q43 0 120 -34 q57 -28 92 -28 q33 0 102 33 q36 14 65 14 q36 -3 39 -51 q0 -29 -15 -46 q-70 -49 -183 -52 q-51 0 -125 34 q-61 29 -99 29 q-40 0 -80 -13 q-38 -9 -107 -51 l-12 102 q51 36 90 48 q53 15 113 15 ZM803 130 q26 0 52 -26 q30 -27 81 -105 l-78 -59 q-45 66 -81 100 q-19 15 -19 45 q3 41 45 45 Z" /><glyph glyph-name="" unicode="&#x50b2;" d="M575 713 q82 0 82 -53 q-3 -42 -49 -45 l-81 -1 l3 -45 l30 1 q71 -3 75 -49 q-3 -46 -52 -49 q-16 -1 -45 -1 q0 -24 3 -45 l34 1 q42 -1 59 -16 q68 316 91 351 q21 32 50 32 q49 -3 52 -51 q-3 -28 -18 -71 q-5 -12 -14 -44 q33 -3 91 -3 q65 -3 71 -54 q-6 -47 -63 -52 q-74 0 -126 7 q-19 -80 -32 -158 l-85 18 l2 -9 q-3 -48 -53 -51 q-134 -6 -124 -5 q6 -12 9 -27 q0 -14 -6 -32 q-1 -2 -1 -4 l37 5 l18 0 q54 0 81 -33 q31 -40 32 -111 l0 -34 q0 -75 -33 -144 q-10 -30 -53 -30 q-44 0 -44 43 q32 79 32 133 q0 51 -14 73 q-15 13 -35 13 q-26 -2 -47 -10 q-43 -155 -56 -218 l-98 50 q74 272 88 307 q1 3 5 9 q-47 -7 -79 -8 l0 102 q53 11 120 16 l-3 45 l-25 -2 q-37 -6 -71 -6 l0 97 q28 5 89 10 q-3 24 -3 46 q-64 -4 -95 -11 l0 48 l-86 -61 l14 -296 q11 -310 11 -382 l-110 0 q-3 272 -9 411 q-6 116 -9 195 q-63 -42 -69 -42 l-23 116 q221 170 263 175 q60 -3 63 -58 l0 -2 q29 2 43 4 q-3 27 -3 41 q3 49 47 52 q54 0 63 -57 q0 -12 2 -32 q35 0 54 1 ZM865 438 q49 -3 52 -51 q-3 -32 -32 -87 q-29 -65 -46 -114 q59 -84 117 -182 l-84 -74 l-73 133 q-19 -63 -37 -144 l-107 23 q31 112 68 230 l-40 50 q-29 21 -29 49 q3 51 54 54 q15 0 40 -23 l13 -15 q34 98 53 120 q23 31 51 31 Z" /><glyph glyph-name="" unicode="&#x5965;" d="M135 738 q318 80 414 83 q53 -3 53 -40 q0 -37 -40 -49 q-179 -35 -358 -75 q10 -14 13 -29 q162 65 371 80 l62 0 q126 0 205 -44 q75 -46 75 -108 l0 -15 q0 -53 -14 -143 q-19 -98 -35 -146 q-10 -34 -69 -34 q-41 0 -41 57 q26 84 38 152 q11 69 11 109 q0 35 -46 53 q-55 21 -146 21 q-143 -3 -285 -43 q14 -6 25 -16 q23 -19 60 -70 l-39 -30 l68 3 q-1 30 -3 63 q9 55 56 61 q44 -3 50 -61 q0 -30 1 -60 l98 1 l-67 28 q3 17 30 67 q18 35 50 38 q42 -3 48 -44 q-3 -21 -37 -89 l13 0 q78 0 78 -51 q-3 -40 -46 -43 l-165 -1 l1 -138 l-101 0 q0 55 -3 136 q-141 -4 -194 -14 l0 94 q43 5 66 7 q-16 20 -28 31 q-20 16 -20 45 q2 19 10 27 l-67 -24 q12 -148 30 -307 l-108 -21 q-35 343 -40 427 q1 49 44 52 l-18 60 ZM399 346 q36 -4 39 -39 q0 -20 -18 -43 q-22 -20 -32 -30 l7 1 q47 -3 53 -50 l-1 -5 q182 7 424 12 q74 -3 78 -51 q-3 -48 -53 -51 q-81 -1 -160 -3 q0 -1 2 -1 q49 -28 125 -96 l-68 -79 q-71 41 -127 85 q-23 29 -23 48 q0 28 22 41 q-146 -6 -257 -12 q-20 -46 -82 -170 l-98 41 q7 35 45 117 q-93 -11 -201 -14 l0 101 q96 14 255 25 l10 19 q6 12 10 18 l-60 49 q29 36 65 67 q23 20 45 20 ZM640 351 q22 0 116 -48 l-51 -89 q-56 32 -86 51 q-25 20 -26 46 q3 37 47 40 Z" /><glyph glyph-name="" unicode="&#x6fb3;" d="M108 485 q31 0 168 -82 l-62 -110 q-83 51 -132 85 q-31 22 -33 56 q6 48 59 51 ZM151 755 q32 0 167 -84 l-62 -111 q-60 38 -131 87 q-31 24 -33 57 q6 48 59 51 ZM238 150 q52 -4 57 -56 q-1 -38 -39 -56 q-48 -32 -187 -56 l-25 118 q95 12 162 41 q20 9 32 9 ZM373 764 q300 59 389 61 q52 -3 52 -40 q0 -37 -40 -49 q-179 -28 -344 -57 l0 -2 q0 -17 1 -33 q119 37 259 44 l46 0 q105 0 149 -35 q60 -30 63 -174 l0 -19 q-2 -112 -24 -236 q-12 -36 -50 -36 q-44 0 -44 42 q24 125 24 226 q0 101 -36 131 q-42 15 -97 15 q-142 -4 -288 -51 q0 -22 2 -86 q0 -177 16 -273 l-91 0 q-15 63 -15 273 l0 26 q0 83 -5 185 q8 45 44 50 l-11 38 ZM509 537 q14 0 81 -56 l-22 -38 q10 0 38 2 q-2 40 -2 54 l0 31 q0 40 40 40 q44 -2 44 -47 q0 -31 2 -75 l25 0 q7 23 26 67 q13 29 40 32 q34 -3 38 -37 q-1 -18 -21 -66 q28 -9 28 -35 q-3 -31 -37 -34 l-97 -1 l1 -33 l28 -5 q48 -11 62 -13 q29 -9 29 -36 q-3 -32 -38 -32 q-23 0 -79 14 l1 -50 l-35 0 q14 -14 16 -45 l-1 -9 q57 0 201 2 q66 -3 69 -45 q-3 -42 -48 -45 l-296 -3 q-93 -104 -134 -168 l-98 68 l79 97 q-63 -3 -120 -3 l0 90 l200 5 q22 24 42 43 q18 15 39 21 l-1 93 q-26 -29 -88 -101 l-59 48 q38 52 85 102 q-56 -4 -83 -11 l0 74 q34 5 54 7 l-27 27 q-19 15 -21 38 q3 30 39 33 ZM719 52 q33 0 187 -61 l-51 -89 q-166 67 -157 64 q-25 21 -26 46 q3 37 47 40 Z" /><glyph glyph-name="" unicode="&#x82ad;" d="M622 520 q143 0 212 -51 q65 -45 65 -146 q0 -98 -61 -135 q-85 -47 -208 -47 q-244 0 -422 23 l0 -5 q0 -83 55 -111 q51 -32 204 -32 q205 0 444 62 l0 -110 q-208 -57 -437 -57 l-55 0 q-150 0 -233 48 q-95 55 -95 184 q0 149 29 306 q12 50 61 56 q31 -3 46 -24 q188 39 395 39 ZM227 379 q-10 -72 -14 -115 q119 -15 232 -21 q-9 82 -15 145 q0 9 2 23 q-99 -11 -205 -32 ZM545 419 q3 -12 3 -24 l13 -156 l34 0 q94 0 149 21 q34 17 34 63 q0 51 -28 73 q-41 26 -150 26 l-55 -3 ZM864 755 q74 -3 78 -51 q-3 -48 -53 -51 q-98 -2 -137 -2 q-17 -50 -29 -103 l-107 23 q8 30 25 78 q-190 -5 -285 -10 q11 -46 27 -94 l-117 -24 q-5 17 -29 111 q-77 -5 -166 -7 l0 101 l139 11 l-3 13 q-2 7 -2 9 q3 55 50 58 q59 0 68 -62 l3 -12 q123 5 352 10 q9 21 13 25 q23 31 51 31 q49 -3 52 -51 q0 -2 -1 -4 l71 1 Z" /><glyph glyph-name="" unicode="&#x5427;" d="M767 747 q89 0 131 -72 q41 -64 41 -207 q0 -136 -47 -191 q-68 -65 -163 -65 q-119 0 -208 23 l0 -41 q0 -103 32 -136 q29 -39 114 -39 q121 0 265 70 l0 -109 q-123 -66 -258 -66 l-37 0 q-104 0 -160 53 q-65 64 -65 212 q0 250 46 526 q11 47 57 51 q36 -3 47 -29 q102 20 205 20 ZM556 620 q-22 -153 -30 -281 q46 -14 86 -20 q2 129 16 314 q-46 -7 -72 -13 ZM742 645 l-12 -142 q-7 -100 -8 -188 q44 8 70 37 q22 31 22 116 q0 88 -10 131 q-17 46 -60 46 l-2 0 ZM128 719 q35 0 47 -29 q24 2 35 4 q48 -3 81 -9 q35 -13 56 -39 q34 -22 34 -301 l0 -48 q0 -161 -30 -197 q-33 -57 -130 -58 l-12 3 q-77 0 -106 25 q-27 15 -38 68 q-6 68 -6 215 q0 92 12 290 q15 70 57 76 ZM205 589 q-5 0 -30 -7 q-3 -12 -3 -24 q-4 -77 -4 -187 q0 -196 7 -210 q4 -14 39 -14 q43 0 49 18 q8 22 8 130 l0 44 q0 227 -22 243 q-24 7 -44 7 Z" /><glyph glyph-name="" unicode="&#x2f0b;&#x516b;" d="M320 649 q50 -3 56 -54 q0 -13 -7 -38 q-148 -389 -193 -545 l-117 60 q168 470 198 534 q18 40 63 43 ZM531 766 q36 0 70 -32 q139 -191 345 -656 l-120 -73 q-177 422 -330 657 q-19 20 -19 47 q3 51 54 57 Z" /><glyph glyph-name="" unicode="&#x5df4;" d="M656 760 q129 0 192 -72 q58 -66 58 -209 q0 -140 -67 -193 q-92 -67 -226 -67 q-216 0 -382 34 q-1 -21 -1 -59 q0 -99 49 -132 q47 -38 183 -38 q206 0 452 82 l0 -113 q-213 -78 -445 -78 l-52 0 q-143 0 -222 53 q-90 63 -90 209 q0 245 57 522 q12 52 66 58 q39 -3 51 -31 q185 34 377 34 ZM271 608 q-23 -134 -32 -240 q90 -19 194 -29 q5 118 24 296 q-96 -9 -186 -27 ZM583 639 l-16 -133 q-9 -84 -12 -173 l17 0 q109 0 170 37 q39 27 39 109 q0 87 -23 124 q-35 44 -127 44 q-34 -2 -49 -2 l1 -6 Z" /><glyph glyph-name="" unicode="&#x62d4;" d="M242 805 q45 0 48 -52 q4 -38 10 -112 l3 0 q80 -3 84 -54 q-3 -51 -58 -55 l-21 0 q6 -92 8 -133 q12 3 20 3 q50 -4 55 -54 q-2 -38 -37 -54 q-12 -9 -33 -20 q3 -93 3 -182 q-3 -173 -127 -177 q-66 0 -119 35 l-4 104 q50 -30 97 -30 q44 0 44 111 q0 26 -3 98 q-59 -16 -137 -30 l-25 114 q79 11 156 37 l-10 174 l-57 -4 q-40 -6 -77 -6 l0 110 q55 7 127 10 l-7 111 q0 53 60 56 ZM840 607 q92 0 92 -59 q-3 -46 -55 -50 q-186 0 -299 -6 q-9 -24 -26 -85 l25 6 q66 14 159 17 q71 0 113 -33 q40 -37 40 -73 l0 -13 q0 -31 -18 -73 q-23 -53 -73 -110 q61 -56 147 -145 l-85 -74 q-75 79 -138 139 q-64 -61 -134 -115 q-28 -22 -53 -22 q-52 0 -52 56 q0 30 23 56 q61 43 122 97 l-57 39 q-28 20 -28 49 q3 51 55 54 q20 0 55 -19 l58 -42 q27 31 40 51 q23 34 23 51 q0 10 -11 18 q-16 7 -34 7 q-42 0 -104 -13 q-48 -10 -106 -27 q-24 -92 -41 -178 l-107 23 q54 213 93 350 q-43 -7 -53 -10 l0 110 q18 4 85 11 q47 153 70 184 q23 31 51 31 q49 -3 52 -51 q-5 -46 -39 -121 q-10 -24 -14 -36 l224 6 ZM808 800 q12 0 26 -7 q33 -21 97 -85 l-69 -79 q-54 37 -95 77 q-18 27 -18 44 q3 47 59 50 Z" /><glyph glyph-name="" unicode="&#x9776;" d="M305 732 q-3 6 -3 12 q-4 16 -4 25 q3 37 50 40 q30 0 52 -30 l12 -47 q55 -8 55 -48 q-3 -37 -42 -41 q2 -34 2 -47 q0 -53 -33 -83 q-29 -29 -91 -37 q4 -16 5 -24 l0 -6 l28 -3 q37 -10 74 -38 q38 -36 38 -99 l0 -22 q0 -52 -35 -82 q-45 -44 -119 -50 q-1 -15 -1 -43 l66 1 q74 -3 79 -51 q-3 -48 -54 -51 q-68 -2 -94 -2 q-1 -32 -1 -95 l-101 0 q0 60 1 92 l-131 -7 l0 101 q50 6 133 9 q0 30 1 46 q-60 5 -96 25 q-53 37 -53 107 l0 11 q0 65 21 120 q18 36 51 39 q24 -2 35 -17 q23 6 52 9 l0 6 q1 13 6 22 q-30 2 -54 7 q-39 8 -54 28 q-28 28 -28 86 q0 25 2 37 q-4 -1 -27 -4 l0 89 l45 5 q8 27 19 53 q21 27 52 30 q47 -3 50 -46 q0 -12 -9 -30 l101 3 ZM219 567 q75 0 93 22 q13 15 13 42 l-1 12 q-104 -2 -148 -4 q-2 -8 -2 -18 q0 -29 6 -41 q6 -13 39 -13 ZM298 245 q21 4 36 14 q20 14 20 36 q0 31 -24 46 q-13 7 -27 10 l-5 -106 ZM194 243 q2 74 4 111 q-31 -4 -58 -15 q-3 -19 -3 -39 q0 -36 21 -47 q15 -8 36 -10 ZM794 747 q75 0 111 -72 q34 -65 34 -207 q0 -137 -42 -191 q-59 -65 -142 -65 q-101 0 -174 20 q-1 -14 -1 -38 q0 -102 25 -136 q26 -39 95 -39 q106 0 233 70 l0 -109 q-108 -66 -226 -66 l-34 0 q-93 0 -144 53 q-58 64 -58 212 q0 250 40 526 q9 46 56 51 q41 -3 50 -34 q88 25 177 25 ZM610 618 q-20 -162 -26 -287 q31 -11 66 -16 q1 113 14 318 q-28 -6 -54 -15 ZM771 645 l-11 -139 q-7 -103 -8 -192 q31 9 51 35 q19 33 19 119 q0 92 -8 134 q-12 47 -44 47 l1 -4 Z" /><glyph glyph-name="" unicode="&#x628a;" d="M241 805 q45 0 48 -52 q4 -38 10 -112 l2 0 q80 -3 84 -54 q-3 -51 -58 -55 l-20 0 q3 -43 7 -132 q12 2 16 2 q50 -4 55 -54 q-2 -38 -37 -54 q-13 -10 -29 -18 q3 -94 3 -184 q-3 -172 -126 -177 q-65 0 -118 35 l-4 104 q48 -30 96 -30 q43 0 43 111 q0 26 -3 99 q-56 -17 -135 -31 l-25 114 q81 12 154 38 l-10 173 l-56 -4 q-39 -6 -76 -6 l0 110 q55 7 126 10 q-3 38 -7 111 q0 53 60 56 ZM767 747 q89 0 131 -72 q41 -64 41 -207 q0 -136 -47 -191 q-68 -65 -163 -65 q-119 0 -208 23 l0 -41 q0 -103 32 -136 q29 -39 114 -39 q121 0 265 70 l0 -109 q-123 -66 -258 -66 l-37 0 q-104 0 -160 53 q-65 64 -65 212 q0 250 46 526 q11 47 57 51 q37 -3 49 -33 q96 24 203 24 ZM555 614 q-22 -157 -29 -275 q46 -14 86 -20 q2 129 16 312 q-30 -6 -73 -17 ZM742 645 l-12 -142 q-7 -100 -8 -188 q44 8 70 37 q22 31 22 116 q0 88 -10 131 q-17 46 -60 46 l-2 0 Z" /><glyph glyph-name="" unicode="&#x7f62;" d="M188 786 q38 -3 50 -32 q131 20 292 26 l44 0 q190 0 261 -31 q79 -27 79 -133 l0 -17 q0 -83 -51 -110 q-52 -27 -151 -29 l-158 0 q8 -15 10 -39 l-2 -23 l200 5 q74 -3 78 -51 q-3 -48 -54 -51 l-233 -5 q-4 -52 -4 -78 l273 6 q88 0 88 -57 q-3 -44 -53 -48 l-102 0 q54 -43 136 -135 l-66 -75 q-45 30 -84 60 q-115 -27 -227 -44 q-102 -12 -157 -12 l-31 0 q-68 0 -118 31 q-44 25 -44 78 q0 30 18 72 q-54 -8 -100 -19 l0 105 q105 22 357 34 q0 35 3 77 q-112 -8 -106 -8 q-84 -11 -180 -14 l0 102 q97 14 293 23 q0 9 2 27 q3 26 15 39 l-102 0 q-153 0 -206 28 q-60 30 -60 101 l0 22 q0 65 28 131 q24 41 62 44 ZM674 672 q-16 -46 -26 -101 l-98 22 q13 56 25 97 q-70 -3 -122 -6 q-3 -4 -3 -7 q-15 -43 -28 -110 l-99 22 q11 44 23 86 q-76 -9 -125 -16 q-6 -24 -6 -39 q0 -47 14 -61 q11 -10 26 -10 l417 0 q88 0 109 22 q16 13 16 57 q0 27 -32 44 q-24 10 -86 15 l-5 -15 ZM659 46 q-18 30 -18 48 q0 12 7 24 q-202 -3 -334 -12 q-21 -36 -21 -46 q0 -54 80 -54 q55 0 149 15 q60 8 137 25 Z" /><glyph glyph-name="" unicode="&#x7238;" d="M600 434 q112 0 178 -36 q66 -34 66 -116 l0 -48 q0 -80 -51 -109 q-61 -31 -155 -31 l-21 0 q-162 2 -303 21 q13 -38 49 -59 q52 -32 161 -32 q108 0 335 32 l0 -101 q-232 -29 -332 -29 l-43 0 q-102 0 -182 41 q-101 55 -101 184 q0 83 31 222 q0 5 2 11 q-43 -20 -144 -65 l-42 94 q106 50 314 150 q-35 12 -94 35 l-117 -97 l-69 88 q110 100 164 148 q76 68 120 68 q49 -3 52 -56 q0 -32 -37 -54 l-25 -22 q74 -27 136 -46 l134 66 q-7 2 -17 7 q-36 18 -39 49 q3 53 52 56 q18 0 39 -9 q182 -70 284 -122 l-52 -107 q-73 40 -148 75 l-8 -6 q-31 -19 -98 -55 q159 -50 322 -95 l-33 -99 q-230 66 -419 127 q-117 -58 -205 -98 q16 -4 25 -18 q132 33 271 36 ZM326 295 q-3 -6 -3 -12 q-9 -40 -12 -68 q69 -9 161 -16 q2 64 7 130 q-72 -13 -153 -34 ZM581 337 q-3 -26 -6 -62 q-5 -45 -5 -81 q32 -2 49 -2 q68 0 98 10 q29 9 29 41 q0 62 -55 82 q-33 10 -110 12 Z" /><glyph glyph-name="" unicode="&#x2f69;&#x767d;" d="M619 779 q92 0 92 -64 q-3 -42 -64 -45 q-171 0 -281 -33 q-72 -19 -124 -44 q17 -7 26 -21 q116 36 216 42 l67 0 q127 0 175 -18 q87 -21 129 -83 q43 -51 43 -186 l0 -23 q0 -141 -48 -240 q-63 -135 -284 -135 l-100 0 q-144 0 -234 51 q-111 72 -111 244 l0 24 q0 154 38 303 q16 35 44 43 l0 88 q74 40 181 66 q106 28 235 31 ZM539 505 q-152 0 -275 -48 q-15 -70 -19 -104 q97 7 317 10 q102 0 102 -65 q-3 -52 -60 -56 q-257 0 -365 -9 q5 -110 58 -149 q57 -45 240 -45 q84 0 144 22 q47 15 74 86 q23 43 26 172 q0 125 -58 162 q-37 24 -184 24 Z" /><glyph glyph-name="" unicode="&#x67cf;" d="M794 780 q89 0 89 -61 q-3 -41 -61 -45 q-118 0 -198 -22 q-42 -13 -52 -17 q12 -15 12 -45 l98 18 l11 0 q34 0 111 -7 q58 -15 93 -58 q53 -44 53 -255 l0 -49 q0 -102 -14 -149 q-22 -83 -76 -122 q-55 -46 -160 -47 l-39 0 q-133 0 -182 64 q-60 74 -60 188 l0 29 q0 159 52 391 q11 38 38 50 l0 69 q53 29 124 45 q69 20 161 23 ZM675 503 q-61 -6 -112 -26 q-15 -88 -20 -141 q59 3 149 6 q85 0 85 -54 q-3 -44 -50 -47 q-128 0 -194 -6 q-1 -16 -1 -43 q0 -92 33 -131 q41 -35 134 -35 q86 0 113 55 q22 36 25 196 q0 179 -37 204 q-69 22 -125 22 ZM312 615 q91 0 91 -60 q-3 -46 -54 -49 l-62 0 q0 -39 3 -81 q34 -9 128 -68 l-60 -104 l-65 47 q8 -310 8 -385 l-113 0 l-5 344 l-73 -67 l-69 88 l99 90 q24 20 40 30 q-1 8 -1 22 q-3 42 -3 79 q-81 -6 -108 -16 l0 109 q30 9 105 15 q-2 44 -2 62 q-3 48 -3 85 q0 53 53 53 q57 -1 57 -62 q2 -20 6 -133 l28 1 Z" /><glyph glyph-name="" unicode="&#x767e;" d="M830 778 q80 -3 84 -55 q-3 -51 -58 -54 q-276 -2 -354 -2 q-3 -12 -10 -26 q-12 -26 -21 -59 l33 1 q95 0 189 -13 q107 -21 157 -95 q43 -60 43 -218 l0 -40 q0 -64 -27 -142 q-39 -101 -154 -131 q-84 -21 -212 -21 l-58 0 q-153 3 -228 51 q-103 61 -103 269 l0 26 q0 102 39 258 q21 46 69 52 q41 -4 48 -39 q38 14 79 23 q20 68 33 103 l-67 -1 q-152 -2 -218 -2 l0 109 q224 5 736 6 ZM509 473 q-112 0 -264 -67 q-13 -61 -16 -96 q108 -6 342 -6 q92 0 92 -59 q-3 -46 -55 -50 q-269 0 -380 6 q9 -88 55 -118 q48 -47 222 -50 q111 0 186 21 q46 18 69 64 q19 57 19 117 q0 105 -14 145 q-31 60 -105 81 q-75 12 -151 12 Z" /><glyph glyph-name="" unicode="&#x6446;" d="M470 786 q39 -3 48 -34 q77 17 176 23 l30 0 q128 0 174 -29 q54 -27 54 -128 l0 -17 q0 -82 -35 -108 q-37 -28 -104 -29 l-114 0 q22 -17 25 -55 l0 -3 q64 2 104 2 q68 -3 71 -46 q-3 -43 -48 -46 q-104 -2 -137 -2 q-4 -35 -6 -73 q66 2 144 3 q83 0 83 -54 q-3 -43 -50 -46 q-172 0 -310 -7 q2 -6 4 -16 q0 -7 -3 -15 q-14 -42 -14 -58 q0 -43 28 -43 q38 0 97 13 q18 4 70 19 q-10 19 -10 34 q3 42 52 45 q16 0 32 -11 q47 -36 118 -122 l-60 -70 q-30 22 -63 50 q-87 -30 -147 -41 q-75 -13 -105 -13 l-20 0 q-48 0 -78 30 q-30 24 -30 74 q0 43 24 116 q-52 -7 -78 -15 l0 100 q55 13 206 22 q0 20 4 74 q-27 -3 -46 -3 q-73 -7 -118 -7 l0 92 q72 7 171 11 l1 6 q6 40 33 55 l-66 0 q-104 0 -139 28 q-42 29 -42 97 l0 24 q0 68 17 132 q23 38 57 41 ZM802 675 q-13 -40 -23 -104 l-90 20 q13 64 25 103 q-38 -2 -57 -4 l-2 -9 q-12 -46 -22 -114 l-90 21 q11 58 18 89 l-52 -11 q-5 -25 -5 -48 q0 -49 8 -64 q8 -9 15 -9 l244 0 q53 0 64 23 q10 13 10 60 q0 29 -18 47 q-8 6 -22 12 l-3 -12 ZM242 805 q45 0 48 -52 q4 -38 10 -112 l3 0 q80 -3 84 -54 q-3 -51 -58 -55 l-21 0 q6 -92 8 -133 q9 3 16 3 q50 -4 55 -54 q-2 -38 -37 -54 q-13 -10 -29 -18 q3 -94 3 -184 q-3 -173 -127 -177 q-66 0 -119 35 l-4 104 q50 -30 97 -30 q44 0 44 111 q0 26 -3 99 q-57 -17 -137 -31 l-25 114 q82 12 156 38 l-10 173 l-57 -4 q-40 -6 -77 -6 l0 110 q55 7 127 10 l-7 111 q0 53 60 56 Z" /><glyph glyph-name="" unicode="&#x4f70;" d="M861 765 q88 0 88 -57 q-3 -44 -53 -48 q-84 0 -198 -2 l3 -19 l-16 -61 q-3 -12 -7 -34 q46 -2 107 -6 q63 -15 101 -53 q57 -39 57 -230 l0 -45 q0 -96 -15 -138 q-24 -77 -81 -113 q-59 -41 -173 -44 l-43 0 q-148 0 -201 71 q-66 81 -66 207 l0 21 q0 111 39 276 q15 54 65 54 q37 0 43 -36 q18 6 54 16 q5 45 23 115 q0 5 4 15 q-126 -6 -179 -19 l0 106 q98 18 448 24 ZM648 442 q-82 -11 -152 -43 q-8 -43 -16 -101 l68 -4 q91 -6 145 -11 q46 -12 46 -56 q-6 -49 -57 -50 q-44 0 -208 15 q3 -93 39 -135 q47 -41 160 -41 q101 0 132 50 q26 32 29 180 q0 156 -42 177 q-81 19 -144 19 ZM342 798 q60 -3 63 -59 q-3 -36 -43 -57 l-91 -64 q2 -12 2 -20 q5 -42 16 -301 q12 -304 12 -394 l-113 0 q-4 260 -11 424 l-11 219 q-84 -57 -92 -57 l-23 115 q247 190 291 194 Z" /><glyph glyph-name="" unicode="&#x8d25;" d="M723 805 q44 0 47 -55 q0 -28 -24 -58 l-36 -52 q47 2 155 4 q88 0 88 -57 q-3 -44 -53 -48 q-179 0 -260 -9 q-43 -71 -58 -104 l-88 62 q-3 -112 -28 -249 q-13 -41 -56 -41 q-50 0 -50 47 q29 140 29 253 q0 108 -16 140 q-18 18 -42 18 q-84 -6 -167 -55 l-16 -140 q0 -148 9 -231 q77 234 96 279 q16 35 56 38 q43 -3 47 -46 q0 -14 -6 -34 q-131 -384 -177 -554 l-102 51 l78 241 l-89 0 q-11 60 -11 256 l0 27 q0 105 23 200 q9 54 55 57 q31 -3 40 -29 q70 34 151 41 l32 0 q71 0 101 -39 q41 -34 43 -194 l0 -12 q117 205 170 269 q27 24 59 24 ZM849 477 q50 -3 53 -53 q-6 -37 -48 -95 q-31 -53 -63 -116 q68 -86 148 -202 l-103 -63 q-49 77 -98 146 q-34 -83 -65 -181 l-111 24 q54 141 102 254 q-54 65 -102 114 q-17 17 -17 40 q3 46 48 50 q30 0 58 -28 q30 -27 63 -63 q53 115 82 141 q23 32 53 32 ZM329 135 q35 0 187 -107 l-56 -97 q-65 46 -154 111 q-28 20 -29 49 q5 41 52 44 Z" /><glyph glyph-name="" unicode="&#x62dc;" d="M368 782 q55 -3 58 -53 q-3 -32 -38 -50 l-100 -18 l7 -120 l69 1 q77 -3 81 -53 q-3 -49 -55 -53 q-68 -2 -90 -2 l5 -137 q36 8 53 13 q20 4 30 4 q56 -3 62 -55 q-3 -41 -49 -50 q-29 -11 -92 -23 q6 -196 6 -267 l-105 0 l-5 248 q-77 -11 -153 -11 l0 105 q83 5 150 16 l-6 151 q-18 -3 -32 -3 q-48 -4 -90 -6 l0 105 q45 8 117 12 q-2 38 -2 53 q-3 30 -3 54 q-91 -17 -104 -17 l-21 102 q260 53 307 54 ZM846 773 q88 0 88 -58 q-3 -44 -53 -47 l-137 -1 q0 -26 3 -98 l75 1 q88 0 88 -58 q-3 -44 -53 -48 l-107 -1 q0 -40 3 -85 l77 1 q88 0 88 -58 q-3 -44 -53 -48 l-109 -1 q0 -38 2 -96 q45 2 87 6 q26 2 38 2 q56 -3 62 -54 q-3 -42 -49 -51 q-28 -4 -136 -11 l2 -161 l-110 0 q-1 56 -1 155 q-112 -5 -210 -5 l0 106 q121 2 209 7 q-2 72 -2 100 q-125 -4 -171 -14 l0 106 q43 8 169 13 l0 2 q-2 60 -2 84 q-121 -5 -160 -13 l0 105 q41 7 156 13 l-3 98 q-118 -5 -157 -13 l0 105 q84 14 366 17 Z" /><glyph glyph-name="" unicode="&#x6591;" d="M437 743 q26 0 50 -21 q30 -22 76 -85 l-43 -33 l82 3 q74 -3 78 -51 q-3 -47 -54 -50 l-28 -1 q19 -12 22 -41 q-4 -36 -38 -97 q-24 -52 -34 -78 q63 -78 109 -142 l-84 -73 q-35 54 -68 99 q-36 -107 -67 -235 l-99 23 q56 190 94 301 q-8 9 -29 29 q-20 20 -32 31 q-28 20 -28 49 q3 50 53 53 q17 0 42 -19 l33 -31 q32 86 52 110 q10 13 21 19 q-86 -3 -141 -11 q-47 -8 -88 -9 l0 102 q47 10 138 16 q-29 31 -45 44 q-21 18 -21 49 q4 43 49 49 ZM861 738 q88 0 88 -58 q-3 -44 -53 -48 l-56 0 l1 -4 q-1 -15 -4 -222 q85 -3 85 -58 q-3 -44 -53 -48 l-33 0 q-2 -166 -2 -252 l39 0 q80 -3 84 -55 q-3 -49 -58 -55 q-120 0 -218 -4 q-31 0 -87 -2 l0 110 q38 2 135 4 q0 157 1 253 q-63 -3 -101 -7 l0 105 q41 5 101 7 q0 144 1 224 q0 2 1 2 q-85 -3 -115 -6 l0 105 q54 6 244 9 ZM260 697 q92 0 92 -60 q-3 -46 -55 -49 l-48 0 l-6 -169 q79 -5 79 -59 q-3 -46 -54 -50 l-28 0 q-4 -124 -4 -189 l16 6 q24 9 41 9 q50 -4 55 -53 q-1 -37 -37 -55 q-62 -37 -241 -64 l-25 115 q42 4 89 14 q0 92 3 215 q-37 -2 -65 -7 l0 110 q19 3 68 6 q0 50 4 170 l-82 -4 l0 109 q50 4 198 5 Z" /><glyph glyph-name="" unicode="&#x73ed;" d="M551 790 q46 -3 52 -63 q-2 -28 -29 -297 q-22 -256 -25 -511 l-106 0 q0 296 50 808 q9 57 58 63 ZM857 740 q92 0 92 -60 q-3 -46 -54 -49 l-67 0 q0 -49 -3 -223 l5 0 q92 0 92 -60 q-3 -46 -55 -50 l-43 0 q-2 -80 -2 -246 l48 1 q83 -3 87 -56 q-3 -51 -60 -57 q-144 0 -218 -6 q-29 -2 -87 -4 l0 114 q44 3 117 6 q0 154 1 246 q-61 -3 -85 -6 l0 109 q23 3 85 6 q0 143 1 222 q-66 -3 -90 -9 l0 109 q48 10 236 13 ZM287 697 q92 0 92 -60 q-3 -46 -55 -49 l-61 0 q-1 -49 -6 -168 q52 -2 72 -19 q15 115 22 131 q21 29 49 29 q46 -3 49 -50 q-1 -18 -8 -55 q-20 -116 -31 -244 l-102 23 q5 52 10 81 q-12 -6 -26 -6 l-39 0 q-3 -93 -3 -191 q8 2 24 8 q29 9 46 9 q50 -4 55 -53 q-1 -37 -37 -55 q-69 -37 -269 -64 l-25 115 q52 4 100 15 q0 93 3 214 q-46 -2 -78 -7 l0 110 q22 3 80 6 q2 113 4 170 l-92 -4 l0 109 q57 4 226 5 Z" /><glyph glyph-name="" unicode="&#x822c;" d="M533 792 q34 0 46 -24 q2 -6 6 -14 q89 37 177 40 q117 0 117 -97 q0 -24 -15 -80 q-16 -70 -16 -90 q0 -21 21 -21 l51 6 q34 -3 37 -47 q-6 -55 -102 -58 q-66 0 -93 27 q-24 24 -24 69 q0 28 24 131 q8 30 8 38 q0 22 -25 22 q-48 0 -146 -40 q16 -144 31 -259 l-101 -16 q-20 143 -46 339 q3 68 50 74 ZM833 387 q41 0 77 -30 q28 -26 28 -78 q0 -53 -50 -121 q-24 -30 -71 -78 q64 -22 138 -32 l-23 -103 q-115 19 -200 53 q-56 -52 -82 -75 q-22 -16 -40 -16 q-51 0 -51 56 q0 16 18 34 q38 34 53 49 q-42 22 -83 54 q-26 25 -26 61 q5 33 44 38 q15 0 31 -8 q62 -42 114 -67 q111 111 114 140 q0 26 -26 26 q-142 -16 -256 -78 l-22 101 q154 74 313 74 ZM369 803 q61 -3 61 -45 q0 -43 -46 -55 q-105 -28 -185 -51 l0 -26 q51 22 113 27 l25 0 q59 0 99 -30 q43 -37 43 -155 q0 -115 -29 -518 q-9 -47 -62 -47 q-47 0 -47 56 q14 145 22 295 l-170 -1 q0 -34 1 -50 q20 -8 14 -5 q54 -29 118 -35 l-22 -99 q-61 7 -107 29 q3 -108 11 -190 l-104 0 q-11 79 -14 349 l-43 -2 l0 101 l43 1 l0 20 q0 183 7 343 q8 56 56 59 q20 -1 32 -15 q143 43 184 44 ZM194 354 q97 0 157 1 l16 -1 q2 76 2 109 q0 96 -51 96 q-62 -3 -114 -32 l8 -3 q54 -29 118 -35 l-20 -94 q-68 9 -115 32 q-1 -24 -1 -73 Z" /><glyph glyph-name="" unicode="&#x677f;" d="M331 609 q92 0 92 -60 q-3 -45 -55 -49 l-63 0 q0 -37 3 -76 q27 0 142 -90 l-59 -105 q-24 20 -80 69 q8 -315 8 -389 l-113 0 l-5 354 l-93 -89 l-69 88 l104 98 q30 30 54 39 q-1 6 -1 17 q-3 42 -3 80 q-105 -6 -135 -17 l0 110 q36 9 131 15 q-2 44 -2 61 q-3 48 -3 86 q0 52 52 52 q58 -2 58 -62 l6 -133 l31 1 ZM562 770 q27 -1 39 -21 q201 35 269 37 q64 -3 64 -47 q0 -43 -48 -58 q-180 -26 -282 -44 l-19 -142 l46 11 q61 11 148 14 q66 0 105 -39 q37 -43 37 -86 l0 -15 q0 -37 -14 -87 q-24 -76 -75 -157 q72 -48 129 -90 l-53 -108 q-50 41 -139 104 q-40 -54 -88 -110 q-27 -21 -50 -21 q-50 0 -50 53 q0 28 22 54 q48 57 70 88 l-121 72 q-10 -150 -13 -263 l-105 0 q0 284 70 793 q9 56 58 62 ZM561 286 q17 0 40 -10 q79 -46 133 -79 q40 61 60 109 q18 42 18 66 q0 17 -11 30 q-13 13 -30 13 q-42 0 -95 -11 q-58 -12 -106 -26 q-6 -46 -9 -92 Z" /><glyph glyph-name="" unicode="&#x7248;" d="M145 766 q43 -3 47 -57 l-11 -209 q35 2 78 3 q3 105 13 234 q9 55 56 61 q44 -3 50 -61 q-3 -37 -10 -107 q-7 -68 -8 -125 q74 -5 78 -55 q-3 -51 -58 -55 q-122 -1 -185 -6 q-8 -1 -20 -1 q-4 -73 -5 -107 q41 14 85 17 l19 0 q58 0 87 -37 q32 -43 34 -124 l0 -38 q0 -84 -27 -161 q-12 -31 -56 -31 q-45 0 -45 45 q26 90 26 149 q0 67 -15 89 q-13 18 -38 18 q-37 -1 -73 -21 q-5 -147 -5 -268 l-98 0 q0 280 27 790 q9 53 54 57 ZM562 762 q29 -2 42 -25 q201 46 266 49 q64 -3 64 -47 q0 -43 -48 -58 q-144 -27 -282 -57 l-18 -129 l48 11 q62 11 152 14 q68 0 108 -39 q38 -43 38 -86 l0 -15 q0 -39 -15 -87 q-24 -78 -79 -159 q89 -60 127 -88 l-53 -108 q-62 51 -138 103 q-37 -50 -91 -109 q-27 -21 -50 -21 q-50 0 -50 53 q0 27 21 54 q37 41 73 87 q-71 43 -126 74 q-10 -150 -13 -264 l-105 0 q0 278 72 785 q9 56 57 62 ZM562 286 q16 0 39 -10 q58 -33 139 -81 q41 58 64 111 q18 42 18 66 q0 17 -11 30 q-13 13 -34 13 q-42 0 -97 -11 q-59 -11 -110 -26 q-4 -28 -10 -92 l2 0 Z" /><glyph glyph-name="" unicode="&#x626e;" d="M576 757 q42 0 45 -53 q0 -26 -21 -53 q-91 -131 -139 -221 q107 41 230 50 l41 0 q82 0 135 -50 q49 -52 49 -121 l0 -17 q0 -61 -20 -164 q-25 -109 -49 -167 q-12 -36 -72 -36 q-42 0 -42 59 q37 98 53 178 q17 79 17 126 q0 40 -23 61 q-28 26 -72 26 q-36 -1 -69 -6 q3 -9 3 -16 q-3 -31 -21 -80 q-46 -148 -78 -348 l-110 25 q59 296 89 391 q-56 -20 -97 -41 l-25 104 q17 9 35 16 l-79 56 q114 195 164 257 q26 24 56 24 ZM718 783 q15 0 33 -8 q102 -133 210 -158 l-25 -111 q-141 39 -239 170 q-27 27 -27 66 q5 37 48 41 ZM242 805 q45 0 48 -52 q4 -38 10 -112 l3 0 q80 -3 84 -54 q-3 -51 -58 -55 l-21 0 q6 -92 8 -133 q9 3 16 3 q50 -4 55 -54 q-2 -38 -37 -54 q-13 -10 -29 -18 q3 -94 3 -184 q-3 -173 -127 -177 q-66 0 -119 35 l-4 104 q50 -30 97 -30 q44 0 44 111 q0 26 -3 99 q-57 -17 -137 -31 l-25 114 q82 12 156 38 l-10 173 l-57 -4 q-40 -6 -77 -6 l0 110 q55 7 127 10 l-7 111 q0 53 60 56 Z" /><glyph glyph-name="" unicode="&#x4f34;" d="M420 674 q38 -3 53 -35 q18 -32 68 -86 l-97 -61 q-73 94 -73 129 q2 49 49 53 ZM872 719 q40 -6 46 -46 q-2 -25 -22 -50 q-56 -63 -102 -118 l-79 65 q47 66 104 125 q27 24 53 24 ZM807 480 q88 0 88 -58 q-3 -43 -53 -47 l-159 -1 q-3 -63 -3 -125 q81 2 177 3 q92 0 92 -60 q-3 -46 -54 -50 q-89 0 -217 -2 q-2 -148 -2 -225 l-110 0 q0 140 2 223 q-174 -6 -240 -20 l0 109 q69 12 241 18 q2 60 3 126 q-148 -6 -193 -17 l0 106 q56 9 195 15 q2 120 6 258 q9 59 61 65 q46 -3 52 -65 l-7 -255 q35 0 121 2 ZM331 798 q61 -3 64 -59 q-3 -36 -43 -57 l-85 -62 q2 -14 2 -22 q1 -12 14 -301 q12 -304 12 -394 l-113 0 q-3 268 -11 424 l-11 217 q-77 -55 -86 -55 l-23 115 q238 190 280 194 Z" /><glyph glyph-name="" unicode="&#x74e3;" d="M593 769 q55 -3 55 -42 q0 -39 -42 -51 q-90 -16 -181 -36 l-29 94 q156 34 197 35 ZM438 622 q40 -3 41 -42 q-3 -51 -26 -119 q-60 -226 -102 -523 l-88 20 q20 111 36 204 q-40 -7 -77 -11 q-12 -105 -15 -217 l-94 0 q0 83 12 209 q-44 -4 -68 -5 l-20 94 q50 1 98 6 q3 34 9 74 q0 4 2 12 q-65 4 -99 7 l0 90 q18 0 67 -6 q-6 30 -9 65 q-8 67 -8 95 q0 20 11 33 l-46 -4 l0 90 q33 3 115 6 q-5 5 -11 13 q-14 22 -14 40 q3 45 57 48 q11 0 20 -6 q30 -24 76 -79 l-12 -14 l30 0 q75 0 75 -49 q-3 -37 -41 -41 q3 -7 3 -15 q-3 -18 -16 -47 q-25 -58 -47 -140 l21 0 q15 -1 28 -5 q33 158 50 191 q18 26 42 26 ZM241 312 l-8 -64 q22 2 33 4 q36 4 45 4 l5 -1 q2 13 7 34 l6 32 q-2 -1 -4 -1 q-59 0 -85 1 l1 -9 ZM523 520 q19 -3 27 -11 q-5 70 -5 90 q2 41 37 42 q44 0 50 -47 q6 -124 10 -182 l51 -1 q-15 143 -18 186 q-18 -3 -27 -3 l0 94 q28 4 125 7 q-10 9 -20 22 q-15 27 -15 43 q3 46 57 49 q11 0 21 -8 q34 -27 79 -85 l-18 -20 l2 0 q78 0 78 -51 q-2 -28 -23 -37 l1 -7 q-1 -14 -11 -47 q-20 -74 -31 -144 l10 0 q61 -3 66 -50 q-6 -43 -59 -48 l-73 0 l0 -2 q-2 -26 -2 -83 l32 0 q78 0 78 -51 q-3 -40 -47 -43 l-65 0 q-3 -105 -3 -218 l-98 0 q0 130 1 217 q-48 -1 -75 -3 l3 -45 l-33 -7 q22 -55 47 -100 l-76 -49 l-20 40 q-55 -22 -63 -22 q-48 0 -73 31 q-25 32 -25 111 q0 95 16 185 q20 121 49 214 q9 30 40 33 ZM735 310 q0 2 1 3 q-61 0 -88 1 q1 -33 5 -92 q30 2 81 3 l1 85 ZM554 438 q-58 -219 -58 -333 q0 -43 11 -54 q9 -15 27 -15 q8 0 14 3 q-13 35 -13 56 q2 36 35 41 l-16 302 ZM210 411 q51 180 69 201 q-88 -2 -111 -2 q13 -14 17 -30 q6 -89 23 -169 l2 0 ZM808 410 q26 145 41 192 l-88 -1 q12 -129 20 -191 l27 0 Z" /><glyph glyph-name="" unicode="&#x534a;" d="M223 747 q39 -3 52 -35 q25 -51 79 -120 l-96 -61 q-84 119 -84 162 q2 48 49 54 ZM763 760 q47 -3 53 -49 q-3 -34 -73 -165 l-97 41 q5 30 61 130 q19 40 56 43 ZM775 509 q92 0 92 -59 q-3 -46 -55 -50 q-105 0 -249 -2 l-6 -142 l298 0 q74 -3 80 -60 q-7 -52 -71 -58 q-214 0 -311 1 q-4 -150 -4 -228 l-113 0 q0 114 4 229 q-246 4 -365 8 l0 117 q57 0 207 -6 q72 -2 162 -2 q1 41 5 139 q-221 -6 -301 -20 l0 109 q81 11 306 19 l13 232 q9 61 62 67 q49 -3 55 -67 q-1 -9 -2 -33 l-3 -49 q-5 -74 -9 -148 l205 3 Z" /><glyph glyph-name="" unicode="&#x529e;" d="M520 813 q48 -6 51 -54 q0 -20 -12 -40 q-10 -22 -22 -57 q124 -9 181 -62 q66 -63 67 -217 q16 13 40 14 q48 -3 144 -167 l-72 -67 q-60 51 -103 109 q-9 13 -10 17 q-6 -167 -47 -323 q-9 -51 -69 -51 q-52 0 -52 63 q48 174 48 337 q0 165 -37 196 q-36 45 -126 48 q-38 -110 -78 -259 q-69 -238 -96 -381 l-113 32 q107 406 164 596 q-90 -18 -181 -62 l-23 102 q105 55 239 72 q22 69 40 113 q24 40 67 41 ZM168 415 q51 -3 54 -53 q-1 -17 -12 -44 q-27 -89 -44 -194 l-110 24 q45 214 59 234 q24 33 53 33 Z" /><glyph glyph-name="" unicode="&#x7eca;" d="M357 117 q55 -5 59 -58 q-1 -40 -40 -58 q-74 -45 -280 -78 l-28 123 q135 16 242 59 q29 12 47 12 ZM243 262 q63 0 169 64 l0 -110 q-108 -63 -195 -63 q-56 0 -95 33 q-36 36 -36 85 q0 48 53 126 q18 25 37 45 q-34 6 -58 19 q-65 31 -65 89 q0 48 43 107 q52 67 124 115 q26 17 52 18 q56 -3 59 -38 q-1 -27 -19 -40 q-128 -125 -128 -155 q0 -14 62 -14 q24 0 38 2 q22 18 34 27 q27 23 57 26 q61 -3 64 -49 q0 -23 -26 -41 q-142 -118 -168 -160 q-30 -36 -30 -66 q0 -20 28 -20 ZM471 727 q38 -3 50 -33 q19 -41 66 -100 l-93 -58 q-70 101 -70 139 q1 46 47 52 ZM892 755 q45 -3 49 -46 q-3 -37 -82 -185 l-90 38 q7 36 71 152 q16 38 52 41 ZM826 488 q88 0 88 -58 q-3 -44 -53 -48 l-128 -1 q-4 -82 -5 -122 q87 2 129 4 q92 0 92 -59 q-3 -46 -54 -50 q-95 0 -170 -3 q-5 -132 -5 -240 l-106 0 q0 118 4 235 q-124 -9 -174 -28 l0 109 q53 17 178 26 l5 125 q-121 -6 -161 -16 l0 105 q54 10 166 16 q9 189 14 264 q7 56 57 62 q46 -3 52 -62 l-16 -261 q25 0 87 2 Z" /><glyph glyph-name="" unicode="&#x5e2e;" d="M156 266 q36 0 48 -24 l7 -18 q102 29 227 43 q-1 4 -1 12 q-3 24 -3 42 q0 55 54 55 q60 -1 60 -65 q1 -2 4 -35 l58 0 q125 0 209 -29 q76 -43 76 -98 l0 -21 q-3 -58 -33 -139 q-15 -27 -60 -27 q-61 0 -61 56 q4 12 8 18 q20 30 24 73 q0 36 -37 54 q-57 11 -142 11 l-34 -1 q0 -14 2 -38 q12 -177 12 -228 l-117 0 q-3 158 -11 249 l-1 8 q-112 -14 -214 -43 l28 -136 l-105 -18 q-37 161 -50 223 q3 70 52 76 ZM457 751 q82 0 82 -53 q-3 -42 -49 -45 l-122 -1 l-14 -39 l72 1 q82 0 82 -53 q-3 -42 -49 -45 l-136 -1 l-10 -35 l142 3 q82 0 82 -53 q-3 -42 -49 -45 q-88 0 -200 -2 q-17 -71 -22 -101 l-99 22 l18 75 q-81 -6 -111 -13 l0 98 q42 6 136 12 q2 5 10 36 q-80 -4 -115 -11 l0 97 q42 8 142 12 l12 40 q-118 -5 -157 -13 l0 98 q47 8 190 13 q10 24 16 31 q22 28 47 28 q45 -3 48 -48 l-1 -9 l55 1 ZM758 798 q68 0 111 -29 q49 -37 49 -75 q0 -47 -83 -98 q99 -42 99 -107 q0 -61 -65 -100 q-59 -37 -144 -37 q-8 0 -11 1 l4 -60 l-102 0 q-6 121 -15 185 l-14 92 q-5 15 -5 31 q0 48 47 48 q52 -2 52 -56 q5 -12 21 -130 q0 -5 2 -13 q7 -4 15 -4 q36 0 67 15 q30 12 30 28 q0 12 -13 27 q-17 11 -52 17 q-26 9 -32 36 q0 26 13 39 q22 10 50 29 q19 14 19 27 q0 42 -68 42 q-74 0 -159 -41 l-11 97 q113 36 195 36 Z" /><glyph glyph-name="" unicode="&#x68d2;" d="M281 615 q92 0 92 -60 q-3 -46 -55 -49 l-43 0 q2 -71 4 -105 q30 -11 98 -54 l0 91 q30 0 86 2 q14 36 21 52 q-8 -1 -31 -7 l0 94 q16 4 72 11 l10 23 q7 14 10 22 q-51 -7 -111 -10 l0 101 q59 11 164 19 q16 28 20 34 q23 37 63 38 q45 -6 48 -50 q0 -7 -2 -15 q57 2 120 3 q74 -3 78 -51 q-3 -48 -54 -51 q-136 -3 -201 -7 q-13 -24 -24 -48 q49 2 156 4 q78 0 78 -51 q-3 -40 -47 -43 q-131 0 -231 -5 l-25 -58 q134 7 277 20 q32 2 44 2 q55 -2 61 -52 q-3 -40 -47 -49 l-12 -2 q23 -43 66 -99 l-89 -56 q-76 107 -77 147 q-33 -4 -92 -7 q9 -16 9 -38 l2 -22 l33 1 q78 0 78 -51 q-3 -40 -47 -43 l-57 0 q0 -29 3 -59 l0 -7 q47 3 89 9 q28 2 37 2 q57 -3 63 -54 q-3 -42 -49 -51 q-37 -6 -135 -15 q3 -78 3 -110 l-109 0 q-2 76 -2 102 q-110 -7 -196 -7 l0 106 q101 3 192 9 q-2 28 -2 37 q-2 24 -2 34 q-74 -6 -101 -15 l0 94 q23 8 95 14 q-2 13 -2 36 q0 14 3 23 q-56 -4 -80 -4 q-45 -116 -65 -183 l-107 30 l60 150 l-28 0 l2 -1 l-56 -97 q-26 18 -57 41 q6 -274 6 -365 l-113 0 l-5 329 q-20 -20 -66 -64 l-69 88 q60 56 90 83 q23 21 42 31 l-1 40 q-2 56 -2 80 q-86 -6 -112 -17 l0 109 q35 10 109 16 q-2 42 -2 61 q-3 48 -3 85 q0 53 53 53 q58 -2 58 -62 q2 -29 5 -132 l9 0 Z" /><glyph glyph-name="" unicode="&#x80de;" d="M286 786 q54 0 91 -35 q39 -42 39 -181 l0 -36 q101 185 154 256 q26 23 55 23 q40 0 43 -52 q0 -21 -16 -47 q51 13 100 17 l34 0 q77 0 111 -43 q46 -38 47 -213 l0 -23 q-2 -142 -31 -292 q-15 -42 -58 -42 q-51 0 -51 49 q31 160 31 281 q0 127 -19 165 q-22 20 -48 20 q-103 -6 -208 -63 l-24 -41 q9 3 19 3 q34 0 46 -24 q52 7 91 8 q45 0 75 -51 q26 -47 26 -137 q0 -103 -35 -156 q-39 -54 -110 -54 l-72 12 l0 -14 q0 -45 21 -68 q21 -28 78 -28 q68 0 223 62 l0 -109 q-140 -59 -238 -62 q-92 0 -138 44 q-45 47 -51 123 q0 208 25 378 l-11 -22 l-70 50 q-7 -197 -25 -531 q-9 -46 -62 -46 q-46 0 -46 55 q9 117 15 224 q-16 -14 -45 -14 q-31 0 -55 3 l2 -260 l-109 0 q-4 444 -5 496 l-5 244 q-2 32 -2 84 q0 51 51 51 q32 -2 45 -19 q42 12 90 15 l22 0 ZM187 668 q0 -50 3 -131 q41 -5 70 -13 q40 -11 49 -34 l0 74 q0 120 -42 120 q-43 -3 -80 -16 ZM192 426 q0 -33 1 -50 q0 -37 2 -93 l65 -9 q28 -7 40 -22 q4 66 8 199 q-14 -27 -56 -29 q-24 0 -60 4 ZM583 224 q20 -6 46 -9 q31 0 46 24 q16 19 16 83 q0 51 -4 75 q-5 22 -14 22 q-19 0 -72 -11 l-18 -184 Z" /><glyph glyph-name="" unicode="&#x5305;" d="M297 805 q46 0 49 -57 q0 -18 -9 -38 q138 29 309 37 l63 0 q89 0 154 -68 q56 -68 59 -194 l0 -18 q-6 -142 -45 -260 q-18 -54 -76 -54 q-54 0 -54 61 q50 147 50 245 q-3 94 -26 140 q-36 38 -82 38 q-221 -5 -431 -60 q-68 -114 -107 -201 l-100 71 q128 251 185 333 q30 25 61 25 ZM520 536 q78 0 126 -45 q45 -42 45 -123 q0 -91 -44 -140 q-46 -48 -135 -48 l-227 23 q-4 -27 -4 -44 q0 -70 45 -106 q47 -41 169 -41 q121 0 403 79 l0 -104 q-247 -77 -418 -80 q-152 0 -224 57 q-75 57 -84 156 q0 200 48 350 q15 35 53 35 q22 0 36 -11 q110 39 211 42 ZM301 297 q69 -9 191 -19 q45 0 67 19 q23 14 23 64 q0 46 -20 61 q-22 16 -62 16 q-47 0 -182 -46 l-17 -95 Z" /><glyph glyph-name="" unicode="&#x5265;" d="M421 796 q59 0 103 -47 q39 -47 40 -134 l0 -12 q-3 -73 -28 -141 l19 0 q74 -3 78 -51 q-3 -48 -54 -51 q-138 -2 -199 -4 l3 -9 q6 -11 21 -91 q14 -72 14 -142 q0 -113 -29 -156 q-32 -47 -92 -47 q-65 0 -113 21 l20 101 q28 -17 60 -17 q10 0 22 7 q10 6 14 18 q9 21 9 90 q-3 91 -38 191 q-1 6 -1 14 q0 12 2 16 l-71 -4 q-78 -7 -150 -9 l0 102 q133 13 366 19 q34 79 34 130 q-1 58 -12 88 q-15 24 -35 24 q-152 -3 -302 -49 l-22 93 q125 41 298 50 l43 0 ZM340 620 q82 0 82 -53 q-3 -42 -49 -45 q-190 0 -242 -10 l0 98 q42 7 209 10 ZM576 317 q50 -3 53 -49 q-3 -30 -35 -46 q-127 -53 -136 -53 l-19 94 q117 53 137 54 ZM485 133 q17 0 36 -8 q69 -32 127 -67 l-49 -100 q-54 41 -125 78 q-33 18 -36 45 q1 49 47 52 ZM705 708 q53 -2 53 -57 q2 -16 13 -233 q10 -262 10 -304 l-103 0 q-3 192 -10 328 l-8 161 q-3 32 -3 56 q0 49 48 49 ZM867 809 q43 0 46 -51 q32 -343 32 -665 q-3 -172 -133 -178 q-69 0 -124 29 l-4 108 q51 -24 101 -24 q55 0 55 107 q0 64 -31 620 q0 51 58 54 ZM63 303 l72 -7 l77 -11 q44 -12 44 -54 q-5 -45 -56 -47 q-27 0 -144 21 l7 98 ZM209 151 q61 -3 61 -45 q0 -42 -46 -56 q-104 -44 -154 -68 l-31 102 q131 64 170 67 Z" /><glyph glyph-name="" unicode="&#x8584;" d="M115 340 q21 0 51 -10 q35 -14 119 -34 l-35 -108 q-99 29 -137 45 q-51 21 -51 60 q5 42 53 47 ZM143 555 q20 0 50 -10 q31 -14 112 -39 l-35 -107 q-98 32 -129 49 q-51 21 -51 59 q4 42 53 48 ZM251 102 q50 -4 55 -54 q-2 -38 -37 -54 q-51 -33 -196 -57 l-25 114 q95 12 170 42 q20 9 33 9 ZM864 769 q74 -3 78 -51 q-3 -47 -53 -50 q-98 -2 -138 -2 q-8 -24 -20 -76 l-106 24 q9 33 16 50 q-147 -3 -284 -8 q11 -37 26 -76 l-117 -24 q-11 31 -29 93 q-100 -7 -166 -7 l0 102 q60 5 136 9 q-2 4 -2 6 q3 55 50 58 q58 0 67 -59 q152 6 354 9 q6 14 10 18 q22 31 50 31 q46 -3 52 -48 l76 1 ZM780 564 q-7 11 -7 22 q3 39 48 42 q10 0 24 -7 q32 -23 83 -77 l-56 -65 q-19 12 -36 27 q-9 -24 -41 -27 l-150 -1 l1 -14 l51 0 q94 0 155 -30 q55 -43 55 -96 l0 -21 q-1 -60 -21 -141 q-14 -23 -52 -23 q-52 0 -52 48 q1 8 5 19 q14 34 17 80 q0 49 -25 74 q-36 15 -93 15 l-35 -1 l1 -24 l39 0 q61 0 61 -39 q-3 -30 -36 -33 l-60 0 l1 -28 l37 1 q61 0 61 -39 q-3 -30 -36 -33 l-58 0 l1 -53 l-101 0 q-1 18 -1 50 q-58 -3 -79 -9 l0 73 q21 4 77 7 q-1 10 -1 29 l-84 -5 l0 72 l80 5 l-1 18 q-69 -8 -123 -19 q13 -89 35 -212 l-103 -21 q-37 235 -41 274 q1 47 44 50 q29 0 44 -18 q62 14 139 22 l-1 20 q-134 -5 -176 -13 l0 85 q49 7 170 12 q3 42 47 42 q44 -2 50 -39 q35 0 129 2 l14 -1 ZM884 135 q48 -2 54 -46 q-3 -35 -42 -43 q-24 -3 -66 -3 q2 -22 2 -30 q0 -54 -29 -80 q-37 -30 -96 -30 q-58 0 -100 13 l-10 93 q54 -12 93 -12 q21 0 34 5 q14 5 14 17 q0 8 -2 20 q-34 -2 -105 -4 q-61 -3 -123 -3 l35 -32 l-71 -83 q-42 31 -71 60 q-12 21 -12 33 q0 10 4 20 l-77 0 l0 90 q205 1 385 9 q5 40 48 44 q27 -1 46 -25 q3 -8 8 -15 q22 0 32 1 l49 1 Z" /><glyph glyph-name="" unicode="&#x4fdd;" d="M469 758 q29 0 42 -19 q80 22 134 23 l20 0 q43 0 96 -5 q58 -8 102 -46 q55 -53 55 -159 l0 -32 q0 -38 -11 -69 q-15 -43 -45 -64 q-30 -27 -91 -39 q-37 -8 -89 -10 l6 -62 l176 0 q77 -3 81 -53 q-3 -49 -55 -52 l-195 0 q0 -12 1 -17 q12 -183 12 -235 l-111 0 q-3 108 -6 187 l-5 -7 q-109 -103 -172 -165 l-82 69 q80 90 170 167 l-3 0 q-54 -1 -155 -1 l0 105 l234 2 q-2 16 -2 24 q-3 24 -3 42 q-67 9 -114 41 q-72 54 -72 147 l0 8 q0 58 27 166 q15 54 55 54 ZM655 661 q-51 0 -147 -30 q-12 -51 -12 -96 l0 -8 q0 -46 35 -65 q42 -24 99 -24 l30 0 q38 0 67 5 q29 3 45 17 q24 12 30 33 q7 21 7 37 l0 17 q0 66 -29 86 q-24 18 -68 24 q-40 4 -57 4 ZM782 126 q18 0 36 -9 q76 -32 127 -63 l-49 -100 q-50 37 -125 74 q-34 19 -37 45 q3 50 48 53 ZM331 798 q61 -3 64 -59 q-3 -36 -43 -57 l-85 -62 q2 -14 2 -22 q1 -12 14 -301 q12 -304 12 -394 l-113 0 q-3 268 -11 424 l-11 217 q-77 -55 -86 -55 l-23 115 q238 190 280 194 Z" /><glyph glyph-name="" unicode="&#x5821;" d="M800 209 q73 -3 77 -50 q-3 -47 -53 -50 q-157 -3 -276 -6 q-1 -23 -1 -67 q185 4 315 5 q74 -3 77 -50 q-2 -46 -52 -50 q-368 -3 -585 -16 q-108 -7 -234 -10 l0 99 q128 11 370 19 l0 66 l-115 -6 q-98 -8 -200 -10 l0 99 q108 11 315 19 l0 22 q9 59 60 65 q47 -3 53 -65 l0 -18 q81 2 249 4 ZM282 780 q55 -3 58 -53 q-3 -32 -38 -50 l-36 -14 q-23 -8 -32 -12 q2 -16 2 -22 q44 -317 52 -380 l-104 -18 q-33 215 -57 381 q-54 -20 -63 -20 l-21 103 q199 82 239 85 ZM644 792 q100 0 172 -32 q66 -32 69 -97 l0 -19 q0 -56 -58 -90 q-64 -32 -153 -32 l1 -8 l-1 -17 q83 2 170 3 q80 0 80 -52 q-3 -41 -48 -44 l-209 -1 q-5 -78 -5 -146 l-101 0 q0 57 3 144 q-46 -2 -62 -2 q4 -11 5 -19 q-1 -22 -20 -45 q-56 -52 -88 -84 l-70 57 q44 50 84 86 q-66 -5 -91 -10 l0 96 q69 9 246 15 l1 19 q0 3 2 9 q-104 5 -162 40 q-48 29 -48 91 l0 18 q0 63 72 94 q54 22 169 26 l42 0 ZM641 612 q88 0 109 14 q29 9 29 33 q0 21 -31 32 q-36 11 -110 11 q-110 0 -136 -9 q-35 -9 -35 -29 q0 -30 23 -42 q26 -10 151 -10 ZM756 387 q27 0 146 -62 l-48 -84 l-118 64 q-24 18 -25 43 q3 36 45 39 Z" /><glyph glyph-name="" unicode="&#x9971;" d="M188 815 q52 -3 55 -56 q-3 -26 -18 -68 q-2 -5 -4 -13 q35 8 55 10 l24 0 q68 0 101 -27 q35 -30 38 -86 q88 157 131 215 q26 23 55 23 q40 0 43 -52 q0 -23 -17 -49 q45 13 101 19 l34 0 q78 0 111 -42 q46 -38 47 -210 l0 -23 q-2 -138 -34 -286 q-15 -42 -57 -42 q-52 0 -52 48 q34 158 34 276 q0 124 -19 162 q-22 19 -48 19 q-104 -6 -212 -69 l-19 -33 l6 1 q32 0 44 -21 q58 4 86 5 q45 0 74 -46 q26 -44 26 -126 q0 -93 -35 -142 q-39 -49 -109 -49 l-70 9 q-3 -33 -3 -47 q0 -45 20 -68 q23 -27 79 -27 q74 0 235 44 l0 -108 q-150 -43 -249 -45 q-92 0 -138 44 q-45 48 -51 124 q0 194 28 359 l-49 35 q-7 -27 -14 -43 q-13 -33 -61 -33 q-48 0 -48 49 q22 60 22 97 q0 31 -18 43 q-19 8 -48 8 q-40 -3 -73 -19 q-21 -80 -40 -184 l-116 27 q71 326 97 364 q24 33 56 33 ZM569 256 q23 -4 40 -5 q31 0 46 19 q17 15 17 69 q0 45 -5 62 q-4 18 -14 18 q-12 0 -65 -7 l-19 -156 ZM275 51 q19 0 97 22 l0 -121 q-80 -25 -123 -26 l-15 0 q-43 0 -78 43 q-27 36 -27 95 q0 109 49 357 q18 41 56 41 q56 -3 59 -57 q0 -22 -6 -52 q-37 -209 -37 -256 q0 -46 25 -46 Z" /><glyph glyph-name="" unicode="&#x5b9d;" d="M445 813 q44 -3 125 -102 q50 2 76 4 l75 0 q95 0 150 -26 q56 -35 59 -105 q-2 -45 -34 -120 q-9 -42 -76 -42 q-12 0 -16 2 q-16 -10 -36 -11 l-202 -5 l-8 -97 q97 0 151 1 q92 0 92 -59 q-3 -46 -55 -50 l-197 -1 q-6 -78 -6 -156 q66 0 234 2 q-17 28 -32 45 q-22 18 -22 51 q4 45 50 51 q22 0 40 -20 q22 -20 62 -79 l-62 -48 l9 0 q80 -3 84 -55 q-3 -49 -57 -55 q-349 0 -526 -6 q-69 -2 -210 -4 l0 110 l308 7 q0 69 6 156 q-149 -3 -212 -8 l0 109 q54 4 218 7 q4 67 7 94 q-55 -3 -96 -6 q-89 -11 -169 -12 l0 34 l-77 -16 q-27 200 -29 229 q3 53 48 56 q46 0 61 -38 q108 29 236 46 q-6 3 -6 5 q-25 31 -25 54 q3 55 62 58 ZM201 498 q177 18 540 24 q33 -1 54 -11 q10 30 14 54 q0 49 -117 49 q-255 -4 -498 -66 q4 -34 7 -50 Z" /><glyph glyph-name="" unicode="&#x62b1;" d="M242 805 q45 0 48 -52 q4 -38 10 -112 l3 0 q73 -3 82 -45 q61 131 97 188 q30 25 61 25 q46 0 49 -57 q0 -18 -8 -37 q60 13 143 20 l40 0 q90 0 129 -42 q53 -35 56 -208 l0 -22 q-2 -136 -37 -282 q-15 -44 -60 -44 q-53 0 -53 50 q37 154 37 270 q0 116 -26 150 q-30 19 -67 19 q-116 -5 -236 -51 q-23 -45 -32 -64 q13 5 26 5 q20 0 34 -8 q58 14 116 16 q55 0 91 -48 q32 -46 32 -130 q0 -95 -40 -146 q-43 -51 -124 -51 l-70 11 q-2 -22 -2 -48 q0 -45 23 -65 q24 -27 87 -27 q87 0 294 54 l0 -109 q-184 -52 -308 -54 q-102 0 -153 43 q-50 44 -56 118 q0 196 16 364 l-7 -17 l-101 71 l12 25 q6 16 11 25 q-13 -7 -30 -8 l-21 0 q6 -92 8 -133 q9 3 16 3 q50 -4 55 -54 q-2 -38 -37 -54 q-13 -10 -29 -18 q3 -94 3 -184 q-3 -173 -127 -177 q-66 0 -119 35 l-4 104 q50 -30 97 -30 q44 0 44 111 q0 26 -3 99 q-57 -17 -137 -31 l-25 114 q82 12 156 38 l-10 173 l-57 -4 q-40 -6 -77 -6 l0 110 q55 7 127 10 l-7 111 q0 53 60 56 ZM555 355 q-4 -54 -6 -93 l43 -7 q37 0 55 18 q21 15 21 66 q0 47 -9 62 q-9 18 -26 18 q-24 0 -75 -15 l-3 -49 Z" /><glyph glyph-name="" unicode="&#x62a5;" d="M245 805 q45 0 48 -52 l12 -113 l41 1 q80 -3 84 -54 q-3 -51 -58 -55 l-58 -1 q6 -71 9 -143 q33 14 52 14 q50 -4 55 -54 q-2 -38 -37 -54 q-25 -17 -65 -32 q3 -87 3 -170 q-3 -173 -133 -177 q-69 0 -125 35 l-4 104 q53 -30 103 -30 q50 0 50 111 l-4 95 q-64 -15 -143 -27 l-25 114 q85 12 161 33 l-11 177 l-50 -3 q-46 -6 -88 -6 l0 110 q48 6 131 9 q-6 70 -8 112 q0 53 60 56 ZM525 790 q31 -1 43 -32 q68 22 155 28 l32 0 q65 0 110 -39 q44 -47 44 -106 l0 -20 q-6 -65 -24 -118 q-20 -41 -72 -41 q-45 0 -45 59 q24 54 24 94 q0 38 -18 50 q-19 11 -54 11 q-76 -3 -146 -27 q-2 -116 -2 -255 q90 37 165 44 q79 0 130 -30 q64 -53 64 -96 q0 -70 -48 -147 q-9 -16 -27 -44 l97 -71 l-57 -100 l-57 39 q-35 23 -53 36 q-33 -39 -69 -78 q-28 -28 -50 -28 q-46 0 -55 45 q0 26 20 49 q32 33 65 73 q-24 15 -77 53 q-28 21 -30 52 q5 43 54 46 q33 0 123 -57 q14 20 21 34 q24 50 24 69 q0 52 -78 52 q-70 -10 -162 -53 q0 -219 7 -371 l-110 0 q-6 111 -6 480 l0 40 q0 198 2 296 q9 60 60 63 Z" /><glyph glyph-name="" unicode="&#x66b4;" d="M191 774 q22 0 35 -11 q135 24 261 27 l38 0 q218 0 296 -40 q69 -33 68 -108 l2 -17 q0 -86 -59 -116 q-27 -14 -94 -22 l1 -7 q-2 -18 -6 -44 l63 0 q75 0 75 -49 q-3 -38 -45 -41 l-112 0 l-11 -48 q94 0 144 1 q75 0 75 -48 q-3 -38 -45 -41 l-59 0 q54 -53 101 -107 l-78 -67 q-42 53 -67 80 l-23 23 q-3 -23 -31 -39 q-104 -22 -112 -22 l-17 83 q83 18 111 22 q-10 13 -10 27 q-55 -1 -151 -1 q5 -7 10 -21 q5 -9 15 -57 q10 -48 10 -89 q0 -76 -25 -107 q-29 -32 -81 -32 q-54 0 -101 25 l7 34 l-9 -6 q-44 -21 -166 -36 l-19 93 q80 7 143 27 q20 5 29 5 q38 -3 43 -38 q23 -14 44 -14 q11 2 15 4 q7 5 9 9 q6 12 6 52 q-3 52 -28 111 q-2 2 -2 7 q0 21 11 32 l-118 -1 q-4 -13 -12 -26 q44 -17 87 -38 l-45 -80 q-38 19 -90 47 q-8 7 -11 12 q-37 -36 -111 -110 l-73 61 q66 77 127 132 l-104 -3 l0 90 l187 4 l-6 48 l-131 -2 l0 90 l119 2 q-3 21 -3 31 q0 12 3 19 q-60 8 -90 22 q-56 31 -56 99 l0 20 q0 45 15 111 q17 38 51 38 ZM605 346 l-216 -1 q4 -32 7 -48 q127 0 201 1 l8 48 ZM623 435 q3 22 9 44 q-34 -2 -109 -2 l-111 0 q-31 0 -44 1 l4 -17 q2 -17 4 -26 l247 0 ZM536 712 q-134 0 -301 -35 l-1 -3 q253 -3 375 -7 q36 -9 39 -37 q-2 -36 -44 -38 q-217 0 -372 6 q7 -16 24 -22 q51 -21 173 -21 l85 0 q160 0 233 19 q42 14 42 57 q-6 50 -53 65 q-64 16 -200 16 ZM648 59 q34 0 173 -63 l-50 -89 l-143 66 q-25 22 -26 46 q3 37 46 40 Z" /><glyph glyph-name="" unicode="&#x9c8d;" d="M215 813 q42 -3 48 -45 q-2 -13 -7 -28 l11 3 l16 0 q49 0 87 -20 q42 -24 42 -72 q0 -39 -37 -110 q8 -7 23 -22 q25 74 123 244 q16 35 49 38 q42 -3 48 -45 q-3 -20 -13 -46 q68 19 133 25 l35 0 q81 0 115 -42 q48 -37 49 -211 l0 -23 q-2 -139 -43 -290 q-13 -39 -54 -39 q-48 0 -48 44 q43 160 43 283 q0 125 -22 161 q-25 19 -58 19 q-103 -6 -213 -60 q-24 -47 -63 -115 l-59 25 q25 -53 25 -126 l0 -33 q0 -91 -32 -144 q-51 -88 -135 -88 l-44 0 q-85 0 -133 39 q-54 56 -54 157 l0 18 q0 118 47 215 q6 15 16 23 l-48 21 q12 51 103 206 q18 35 50 38 ZM293 567 q25 47 25 64 q0 26 -40 26 q-40 -6 -75 -28 l-40 -71 q0 -1 2 -1 q32 9 76 12 l19 0 q13 0 33 -2 ZM316 459 q-7 -21 -5 -16 q-10 -32 -15 -59 q32 -12 35 -40 q-1 -40 -52 -43 q-8 -35 -12 -70 l-84 19 l11 57 q-39 4 -57 8 l0 -8 q0 -73 24 -96 q26 -25 68 -25 l27 0 q57 0 81 52 q18 39 18 100 q0 70 -23 104 q-10 12 -16 17 ZM214 404 q9 43 18 74 q-40 -3 -67 -14 q-10 -25 -16 -52 q26 -2 65 -8 ZM373 75 q57 -3 63 -55 q-3 -41 -49 -51 q-26 -6 -140 -22 q-78 -10 -167 -12 l0 106 q140 6 268 31 q12 3 25 3 ZM684 532 q46 0 72 -41 q23 -44 25 -115 l0 -42 q0 -97 -33 -126 q-41 -32 -103 -32 q-35 0 -62 8 q-2 -18 -2 -38 q0 -71 18 -100 q18 -34 71 -34 q56 0 236 44 l0 -97 q-167 -43 -226 -44 l-34 0 q-79 0 -121 50 q-44 57 -44 166 q0 91 34 354 q13 40 55 43 q19 0 30 -8 q45 12 84 12 ZM611 431 q-16 -123 -19 -156 q18 -6 41 -10 q25 0 39 13 q14 9 14 66 q0 67 -9 85 q-8 14 -21 14 q-12 0 -45 -12 Z" /><glyph glyph-name="" unicode="&#x7206;" d="M504 821 q25 -1 37 -16 q46 8 117 10 l27 0 q58 0 106 -6 q50 -12 93 -47 q48 -43 48 -120 l0 -27 q0 -59 -44 -92 q-40 -32 -85 -43 q21 -12 24 -41 q-2 -12 -2 -16 l35 0 q54 -3 58 -43 q-6 -39 -52 -42 l-59 0 q-3 -14 -7 -42 q30 0 46 1 l44 1 q47 -1 53 -47 q-3 -35 -42 -43 l-23 -1 q28 -53 81 -128 l-84 -54 q-25 35 -42 63 q-89 -37 -94 -37 l-16 80 q45 21 69 30 q-13 29 -16 44 q-25 -2 -80 -2 q-2 12 10 -48 q9 -49 9 -100 q0 -84 -24 -114 q-25 -34 -73 -34 q-50 0 -91 25 l7 36 l-11 -7 q-107 -35 -111 -35 l-17 83 q98 34 114 35 q39 -3 45 -33 q17 -14 36 -14 q10 2 14 4 q5 5 8 11 q5 15 5 59 q-3 63 -23 130 q-12 -1 -35 -1 q-7 -18 -16 -28 q-9 -12 -18 -21 l57 -21 l-27 -77 q-37 21 -89 30 q-6 -8 -21 -25 l-20 -24 l-71 57 q40 58 86 108 l-57 0 l0 90 q78 0 115 1 l-6 49 l-97 1 l0 86 l87 -1 q3 48 29 61 q-22 7 -34 14 q-32 20 -48 49 q-9 -21 -33 -36 q-17 -15 -94 -78 l-19 24 q-27 -114 -47 -226 l10 -4 q55 -48 113 -57 l-25 -111 q-68 12 -119 51 q-14 -86 -31 -209 l-107 23 q56 332 96 534 l-62 -39 q-60 123 -60 168 q1 50 51 56 q41 -3 55 -36 q11 -36 31 -75 q39 197 60 236 q23 31 51 31 q49 -3 52 -50 q-4 -59 -35 -159 q-2 -4 -2 -7 l5 4 q40 31 63 31 q18 -2 27 -7 q-1 5 -1 15 l0 11 q0 76 38 137 q21 42 58 45 ZM594 291 q39 0 107 2 q2 18 8 45 l-119 1 q2 -32 4 -48 ZM725 423 q5 23 10 35 q6 8 10 11 q-14 -2 -43 -2 l-56 0 q-49 0 -77 5 q0 -3 2 -3 q10 -22 10 -40 q0 -4 1 -6 l143 0 ZM678 733 q-77 0 -140 -24 l-16 -8 q-3 -7 -3 -13 q99 -4 180 -17 q36 -9 39 -38 q-1 -35 -45 -37 q-94 1 -174 11 q9 -28 29 -38 q37 -20 97 -20 l37 0 q82 0 118 27 q26 20 26 52 q0 52 -33 77 q-31 25 -115 28 ZM764 38 q10 0 29 -7 q25 -10 102 -43 l-41 -81 q-50 31 -100 52 q-26 14 -29 36 q1 40 39 43 Z" /><glyph glyph-name="" unicode="&#x676f;" d="M309 599 q91 0 91 -59 q-3 -46 -54 -50 l-62 0 l1 -87 q35 -12 114 -66 q138 177 276 312 q-64 -3 -112 -6 q-62 -5 -134 -7 l0 102 q135 15 449 18 q74 -3 78 -51 q-3 -48 -54 -51 q-64 -2 -90 -2 q-6 -17 -20 -36 l-115 -125 l4 -4 q61 -102 92 -192 q28 -90 28 -188 q0 -94 -35 -137 q-45 -50 -113 -50 q-63 0 -104 23 l-12 109 q55 -23 97 -23 q25 0 40 19 q17 20 17 66 q0 69 -18 132 q-17 55 -76 157 l-127 -142 l-64 54 l-50 -88 l-71 52 l1 -368 l-109 0 l0 341 q-26 -25 -73 -68 l-70 88 l99 90 q26 23 44 32 l0 93 q-90 -6 -116 -14 l0 110 q33 8 116 12 l0 148 q0 51 51 51 q55 -2 55 -61 q0 -57 1 -134 l25 0 ZM822 393 q15 0 31 -8 q54 -35 109 -41 l-24 -102 q-80 12 -134 53 q-26 23 -26 60 q5 33 44 38 Z" /><glyph glyph-name="" unicode="&#x60b2;" d="M326 737 q11 0 27 -2 l1 8 q9 58 60 64 q47 -3 53 -64 l-15 -172 q-11 -134 -13 -295 l-109 0 q0 34 1 53 q-201 0 -251 -14 l0 102 q56 10 226 13 q12 0 28 -2 q0 29 3 59 q-172 0 -232 -4 l0 98 q39 2 217 4 l20 -1 q2 38 4 55 q-202 0 -272 -4 l0 98 q44 2 252 4 ZM602 813 q45 -3 51 -59 q145 -3 224 -11 q46 -12 49 -47 q-1 -44 -57 -47 q-112 0 -219 7 q-1 -24 -3 -51 q42 -6 171 -6 q65 -3 69 -51 q-6 -45 -61 -50 q-109 0 -183 7 q-3 -39 -3 -76 l210 1 q74 -3 78 -50 q-3 -48 -54 -51 l-236 -1 q-1 -18 -1 -54 l-110 0 q0 188 14 475 q9 58 61 64 ZM168 208 q51 -3 54 -47 q0 -10 -10 -68 q-12 -60 -12 -165 l-106 13 q0 159 25 238 q21 26 49 29 ZM348 231 q51 0 54 -42 q0 -17 -6 -43 q-9 -43 -9 -62 q0 -42 29 -62 q23 -17 94 -17 q104 0 283 73 l0 -102 q-158 -73 -289 -73 q-121 0 -173 41 q-54 45 -54 111 q0 77 16 138 q18 38 55 38 ZM532 249 q42 -3 126 -120 l-68 -66 q-51 35 -91 81 q-22 29 -22 52 q1 50 55 53 ZM785 250 q32 0 171 -106 l-56 -96 q-78 60 -138 108 q-27 20 -29 50 q5 41 52 44 Z" /><glyph glyph-name="" unicode="&#x5317;" d="M243 553 q27 0 50 -5 q-3 54 -3 97 q-2 30 -2 80 q0 57 56 57 q62 -3 62 -67 l10 -336 q8 -363 8 -441 l-121 0 l-1 115 q-35 -15 -101 -33 q-66 -19 -142 -21 l0 125 q123 12 224 58 q14 4 18 4 l-5 243 q-4 -1 -11 -1 q-177 0 -219 -9 l0 125 q39 6 177 9 ZM641 786 q48 -3 51 -58 l-4 -39 q-13 -113 -16 -147 l202 -20 q56 -15 56 -68 q-6 -58 -71 -60 q-41 0 -197 18 q-8 -104 -8 -214 q0 -70 24 -105 q18 -30 60 -30 q73 0 192 49 l0 -121 q-121 -49 -188 -49 l-28 0 q-81 0 -137 64 q-44 54 -44 179 q0 291 38 550 q15 51 70 51 Z" /><glyph glyph-name="" unicode="&#x8f88;" d="M840 777 q63 -3 66 -43 q-3 -40 -46 -43 q-134 -3 -203 -9 q-12 -3 -22 -3 l-3 -34 q51 5 186 8 q73 0 73 -47 q-3 -36 -43 -39 q-138 0 -222 -7 q-1 -10 -1 -30 q84 5 227 6 q63 -3 66 -43 q-3 -40 -46 -43 q-125 -1 -213 -5 q-26 -2 -37 -2 q-1 -18 -1 -52 l-101 0 q0 144 14 362 q9 54 56 60 q39 -3 48 -45 q77 6 202 9 ZM327 766 q10 0 24 -2 q14 41 55 45 q47 -3 53 -64 q1 5 -11 -132 q-8 -108 -9 -226 l-109 0 l0 43 q-197 -1 -248 -11 l0 87 q52 9 239 12 l12 -1 q0 12 2 36 q-169 0 -218 -7 l0 87 q49 7 208 8 l15 -1 q0 12 2 38 q-192 0 -248 -7 l0 87 q56 7 233 8 ZM860 71 q72 -3 76 -49 q-3 -45 -52 -49 q-119 0 -283 -4 q3 -45 3 -66 l-114 0 q-2 48 -2 64 q-84 -1 -176 -5 q-75 -4 -228 -8 l0 97 q144 9 399 15 l-3 37 q-48 -4 -84 -4 l-28 0 q-95 0 -139 43 q-40 37 -40 101 l-82 -10 l0 98 q73 7 98 10 l6 25 q20 41 55 44 q52 -3 58 -43 q-2 -12 -2 -16 q28 1 86 5 q182 11 394 12 q82 0 82 -57 q-3 -38 -57 -41 q-110 0 -268 -4 q22 -17 22 -52 l1 -6 q124 14 263 38 l0 -93 q-82 -19 -233 -36 q-16 -2 -21 -2 l3 -36 q0 -8 1 -11 q126 2 265 3 ZM304 253 q7 -61 78 -61 q47 0 91 5 q-2 10 -2 26 q0 29 14 40 l-181 -10 Z" /><glyph glyph-name="" unicode="&#x80cc;" d="M371 821 q56 -2 56 -61 l9 -155 q5 -173 5 -202 l-109 0 l-1 57 q-73 -39 -242 -66 l-22 98 q127 17 221 58 q24 10 41 12 q-2 48 -2 62 l0 5 l-5 -1 q-172 0 -217 -16 l0 98 q41 12 184 15 q19 0 34 -3 q-1 4 -1 11 q-2 14 -2 37 q0 51 51 51 ZM832 725 q82 0 82 -53 q-3 -41 -49 -44 q-138 0 -226 -7 q-2 -20 -2 -48 q0 -80 111 -80 q81 0 182 49 l0 -94 q-104 -49 -188 -49 l-42 0 q-65 0 -124 46 q-49 39 -49 110 q0 67 13 201 q6 58 58 61 q50 -3 53 -59 l-4 -40 q55 4 185 7 ZM223 360 q22 -1 34 -16 q126 30 282 36 l48 0 q139 0 209 -44 q76 -55 79 -151 l0 -46 q0 -101 -29 -194 q-15 -38 -69 -38 q-56 0 -56 56 q29 108 29 179 q0 91 -55 123 q-53 25 -142 25 q-141 -3 -284 -37 q-2 -20 -2 -33 q196 -5 335 -18 q43 -12 46 -45 q-1 -42 -53 -45 q-190 1 -334 14 l-1 -24 q0 -32 1 -46 q159 6 310 25 q26 2 35 2 q48 -1 54 -47 q-3 -34 -42 -43 q-69 -9 -189 -19 q-79 -6 -164 -9 q2 -39 6 -66 l-106 0 q-11 50 -11 203 l0 24 q0 94 11 174 q9 57 58 60 Z" /><glyph glyph-name="" unicode="&#x8d1d;" d="M270 811 q44 -3 51 -56 q89 32 202 41 l39 0 q151 0 217 -52 q65 -54 66 -183 l0 -38 q0 -145 -26 -298 q-9 -52 -69 -52 q-52 0 -52 64 q26 141 26 266 q0 129 -36 154 q-37 37 -129 37 q-124 -3 -241 -51 q-4 -63 -9 -162 q0 -195 8 -282 q166 305 205 359 q18 40 63 43 q49 -3 55 -53 q0 -12 -7 -37 q-243 -420 -327 -605 l-116 58 l121 224 l-111 0 q-9 68 -9 293 l0 31 q0 125 14 233 q10 63 65 66 ZM562 153 q17 0 69 -24 q227 -95 256 -115 l-31 -108 q-137 67 -296 128 q-60 13 -61 64 q6 49 63 55 Z" /><glyph glyph-name="" unicode="&#x94a1;" d="M198 813 q48 -3 54 -50 q-4 -29 -14 -63 q37 2 74 3 q95 0 95 -62 q-3 -48 -56 -52 q-99 0 -154 -5 q-15 -36 -30 -75 q40 5 144 8 q94 0 94 -61 q-3 -48 -56 -52 l-56 -1 l-3 -17 q-6 -40 -9 -73 l48 1 q95 0 95 -61 q-3 -47 -57 -52 l-97 -1 q-3 -51 -3 -93 q0 -40 9 -58 q7 -16 26 -16 q41 0 103 17 l0 -117 q-65 -17 -99 -17 l-21 0 q-60 0 -99 48 q-33 42 -33 131 q0 51 3 99 q-67 -6 -94 -15 l0 114 q25 8 103 14 q5 50 13 90 q-40 -6 -57 -12 l0 36 l-90 38 q16 81 112 311 q18 40 55 43 ZM531 779 q29 -1 41 -30 q78 28 165 35 l36 0 q82 0 119 -43 q46 -37 49 -212 l0 -23 q-1 -132 -29 -288 q-15 -44 -59 -44 q-54 0 -54 50 q29 156 29 277 q0 124 -20 158 q-25 19 -54 19 q-88 -4 -181 -44 l-15 -178 q0 -176 11 -269 l-105 0 q-11 64 -11 269 l0 31 q0 117 21 232 q8 57 57 60 ZM737 560 q43 -3 49 -47 q0 -11 -7 -34 q-131 -398 -178 -582 l-104 53 q156 508 184 572 q15 35 56 38 ZM744 125 q18 0 36 -9 q110 -63 173 -109 l-50 -100 q-77 65 -171 119 q-34 19 -37 45 q3 51 49 54 Z" /><glyph glyph-name="" unicode="&#x5907;" d="M312 809 q44 0 47 -55 l-1 -8 q133 25 281 27 q81 0 133 -37 q48 -40 48 -113 q0 -40 -74 -93 q-19 -13 -55 -35 q203 -49 251 -67 l-28 -102 q-152 40 -358 88 q-69 -40 -163 -91 q77 14 160 17 l62 0 q111 0 153 -12 q75 -15 112 -59 q38 -36 38 -132 l0 -16 q0 -78 -47 -134 q-60 -75 -269 -75 l-88 0 q-126 0 -205 32 q-98 45 -98 153 l0 15 q0 64 14 120 l-61 -32 q-26 -20 -53 -20 q-56 0 -56 62 q0 26 25 52 q186 89 315 156 l-178 37 q-11 2 -14 4 q-27 -45 -53 -96 l-97 69 q140 243 201 321 q27 24 58 24 ZM501 237 q-92 -9 -164 -28 l-7 -31 q51 4 166 7 l5 52 ZM574 11 q80 0 136 10 q42 6 70 38 q22 19 25 75 q0 72 -49 93 q-31 13 -141 14 q-2 -9 -7 -54 l41 1 q79 0 79 -51 q-3 -40 -47 -43 l-82 0 q-2 -21 -2 -63 l-110 0 q0 39 2 61 q-111 -3 -159 -7 q12 -35 43 -50 q48 -24 201 -24 ZM268 593 l278 -64 q71 39 111 66 q36 20 36 35 q0 45 -74 45 q-186 -11 -329 -49 l-22 -33 Z" /><glyph glyph-name="" unicode="&#x88ab;" d="M162 798 q26 0 54 -25 q30 -25 81 -99 l-28 -21 l9 0 q55 -3 81 -31 q32 -27 32 -79 q0 -47 -40 -115 l-11 -18 q29 -14 91 -51 q2 150 10 279 q9 55 56 58 q32 -3 41 -32 q52 13 125 23 l7 60 q9 56 58 62 q45 -3 51 -62 q-4 -45 -5 -51 l43 0 q51 0 87 -33 q36 -34 36 -86 q-1 -45 -23 -104 q-4 -35 -63 -35 q-36 0 -36 43 q17 45 17 65 q0 52 -48 52 l-25 -1 q-9 -81 -12 -164 l8 1 q68 0 116 -33 q52 -44 52 -88 l0 -18 q0 -52 -58 -134 l-32 -41 q74 -49 122 -84 l-51 -104 q-60 50 -143 106 q-54 -57 -108 -102 q-24 -21 -46 -21 q-49 0 -49 53 q0 25 21 50 q45 35 92 78 l-75 43 q-35 17 -38 47 q1 52 49 55 q18 0 37 -9 l102 -58 q12 14 18 22 q49 60 49 93 q0 21 -18 31 q-26 13 -50 13 q-85 -9 -172 -51 l-23 103 q47 21 91 32 q2 78 10 169 q-58 -9 -113 -24 l-9 -288 q0 -231 -3 -347 l-102 0 q4 108 4 347 l0 66 l-42 -75 q-45 29 -96 67 l-6 5 l-8 -10 q5 -15 5 -29 q0 -7 3 -52 l42 1 q85 0 85 -55 q-3 -44 -51 -47 l-71 0 l1 -14 q7 -199 7 -220 l-106 0 q-3 158 -6 238 q-2 52 -2 71 q-24 -26 -36 -38 q-24 -21 -46 -21 q-49 0 -49 49 q0 22 17 43 q165 171 193 229 q16 35 16 44 q0 22 -21 22 q-90 -12 -189 -61 l-24 103 q74 34 133 50 q-28 35 -47 52 q-24 20 -24 53 q4 47 53 53 Z" /><glyph glyph-name="" unicode="&#x5954;" d="M842 743 q80 -3 84 -55 q-3 -51 -58 -55 l-50 -1 q46 -38 120 -145 l-91 -70 q-74 94 -136 146 q-23 19 -23 53 q0 9 3 15 q-192 -3 -283 -7 l-139 -142 q70 9 176 15 q0 13 2 41 q9 58 61 64 q47 -3 53 -64 l-3 -36 q51 2 108 3 q80 -3 84 -55 q-3 -51 -58 -55 q-44 -2 -142 -4 q-3 -51 -3 -105 l-109 0 q0 61 2 100 l-64 -5 q-70 -10 -126 -11 l0 92 l-91 -94 l-85 70 q75 91 157 176 q-78 -6 -149 -6 l0 109 q92 8 268 16 q42 40 63 58 q28 26 57 26 q44 -6 50 -50 q-1 -14 -8 -29 l330 5 ZM838 231 q80 -3 84 -55 q-3 -50 -58 -54 q-64 -2 -89 -2 q-7 -121 -7 -213 l-114 0 q0 85 6 211 q-191 -5 -344 -16 q-11 -89 -13 -191 l-114 0 q0 74 12 182 q-78 -4 -111 -4 l0 109 q54 6 126 12 q2 19 11 75 q9 61 62 67 q49 -3 55 -67 l-10 -68 q170 7 331 11 q0 27 3 57 q9 61 62 67 q49 -3 55 -67 l-3 -55 l56 1 Z" /><glyph glyph-name="" unicode="&#x672c;" d="M850 637 q80 -3 84 -54 q-3 -51 -58 -55 l-323 -6 q5 -113 7 -141 q4 -110 9 -199 l120 1 q71 -3 77 -57 q-7 -50 -69 -56 q-48 0 -124 -2 q3 -102 3 -149 l-113 0 l-3 145 q-73 -5 -171 -16 l0 113 q32 0 107 13 q5 1 61 5 q-3 128 -9 215 q-122 -126 -332 -335 l-69 88 q80 91 248 275 q57 64 101 94 l-93 -6 q-99 -7 -229 -11 l0 109 q131 12 361 21 q-2 22 -2 32 q-5 40 -5 84 q0 53 52 53 q58 -2 58 -63 l8 -103 q178 4 304 5 ZM647 430 q55 0 280 -165 l-56 -96 q-133 88 -247 168 q-27 19 -28 49 q5 41 51 44 Z" /><glyph glyph-name="" unicode="&#x7b28;" d="M195 809 q49 -3 52 -51 q-1 -6 -5 -18 q63 6 165 9 q85 0 85 -55 q-3 -44 -51 -47 l-94 -1 q27 -35 51 -74 l-80 -62 q-50 72 -90 110 q-10 7 -13 16 q-10 -2 -13 -2 q-18 -57 -34 -132 l-106 23 q62 229 83 253 q22 31 50 31 ZM601 812 q48 -3 51 -51 q0 -2 -1 -4 q92 4 208 5 q82 0 82 -52 q-3 -42 -48 -45 l-79 0 q25 -31 61 -90 l-84 -65 q-44 68 -82 110 q-20 15 -20 42 q-10 -1 -69 -4 q-16 -54 -26 -105 l-107 24 q47 183 63 204 q22 31 51 31 ZM649 125 q80 -3 84 -55 q-3 -50 -57 -55 l-112 -1 q3 -70 3 -104 l-113 0 q-2 72 -2 101 l-81 -4 q-70 -5 -122 -5 l0 81 q-31 -32 -86 -91 l-82 68 q135 164 277 297 l-49 -4 q-111 -13 -212 -15 l0 109 q129 17 331 26 q-1 12 -1 33 q0 52 52 52 q58 -2 58 -62 l2 -18 l274 6 q81 -3 84 -55 q-1 -49 -57 -54 q-138 -2 -293 -8 l11 -187 l2 -56 l89 1 ZM440 281 q-72 -72 -162 -167 q83 5 171 8 l-9 159 ZM664 300 q50 0 264 -149 l-56 -97 q-132 86 -231 153 q-28 20 -29 49 q4 41 52 44 Z" /><glyph glyph-name="" unicode="&#x903c;" d="M817 796 q67 -3 70 -45 q-3 -42 -48 -45 q-241 -3 -362 -12 q-77 -8 -145 -9 l0 90 q147 17 485 21 ZM617 679 q149 0 192 -26 q45 -30 45 -79 l0 -25 q0 -43 -33 -60 q-59 -34 -190 -34 l-60 0 q-108 0 -158 24 q-49 25 -49 71 l0 20 q0 54 55 82 q39 23 150 27 l48 0 ZM595 533 q90 0 145 13 q21 3 21 28 q0 17 -25 23 q-36 4 -130 4 q-100 0 -127 -9 q-21 -6 -21 -23 q0 -25 17 -28 q24 -8 120 -8 ZM366 442 q29 -1 41 -21 q76 7 197 9 l37 0 q56 0 116 -5 q53 -9 101 -39 q53 -38 53 -102 l0 -24 q0 -70 -55 -113 q-84 -68 -229 -68 l-64 0 q-125 0 -196 37 q-79 52 -79 148 l0 11 q0 67 24 124 q18 40 54 43 ZM639 296 l70 -4 q33 -9 33 -41 q-3 -37 -43 -37 q-37 0 -67 2 q-3 -25 -3 -51 q100 3 143 36 q38 27 38 70 q0 36 -39 54 q-39 16 -127 19 l-5 -48 ZM531 166 q0 15 2 55 q-91 5 -134 8 q11 -29 35 -41 q39 -19 97 -22 ZM538 300 q2 26 4 41 q-55 -3 -115 -11 q-19 -6 -33 -6 q-2 -6 -2 -17 q45 -3 132 -6 l14 -1 ZM176 446 q53 -3 54 -52 q0 -18 -15 -86 q-14 -73 -14 -121 q0 -79 41 -111 q38 -36 127 -36 q240 0 533 41 l0 -112 q-274 -39 -519 -39 l-37 0 q-104 0 -177 52 q-81 63 -81 183 q0 104 29 230 q12 48 59 51 ZM139 704 q26 0 140 -87 l-64 -112 q-27 22 -104 89 q-31 24 -33 58 q6 49 61 52 Z" /><glyph glyph-name="" unicode="&#x2f50;&#x6bd4;" d="M226 398 q-14 -102 -14 -200 q0 -77 23 -110 q20 -33 60 -33 q63 0 172 33 l0 -110 q-108 -32 -168 -32 l-28 0 q-80 0 -134 63 q-44 53 -44 176 q0 285 81 549 q14 50 68 50 q48 -3 51 -57 q0 -6 -11 -39 q-23 -89 -37 -173 q104 -4 186 -17 q54 -15 57 -56 q-3 -53 -66 -56 q-113 1 -196 12 ZM658 801 q45 -3 48 -53 q0 -4 -10 -39 q-27 -118 -42 -226 q54 3 141 6 q92 0 92 -60 q-3 -46 -55 -49 q-129 0 -192 -6 q-9 -87 -9 -160 q0 -89 35 -130 q29 -38 92 -38 q68 0 181 40 l0 -110 q-114 -40 -177 -40 l-33 0 q-95 0 -160 70 q-51 62 -51 196 q0 286 75 553 q12 46 65 46 Z" /><glyph glyph-name="" unicode="&#x7b14;" d="M736 536 q89 0 89 -61 q-3 -40 -60 -45 q-128 0 -227 -3 q-2 -18 -2 -24 l-7 -40 q87 2 189 3 q71 -3 75 -49 q-3 -46 -52 -49 q-249 -6 -228 -5 q-3 -15 -8 -57 q144 6 322 9 q73 -1 78 -50 q-3 -48 -53 -51 q-207 -3 -354 -12 q3 -39 23 -56 q26 -26 98 -26 q68 0 311 54 l0 -110 q-221 -52 -300 -53 l-42 0 q-99 0 -152 47 q-53 49 -56 136 l-57 -5 q-111 -15 -211 -18 l0 101 q98 15 274 28 l7 59 q-24 -3 -44 -3 q-92 -7 -158 -8 l0 97 q66 7 216 14 q6 40 10 62 q-22 -2 -30 -2 q-133 -10 -219 -24 l0 106 q111 14 246 23 q149 11 322 12 ZM195 809 q49 -3 52 -51 l-1 -4 q48 5 161 8 q85 0 85 -54 q-3 -44 -51 -47 l-92 -1 q16 -21 49 -69 l-80 -61 q-55 72 -90 103 q-9 8 -14 17 l-9 -1 q-24 -68 -37 -129 l-106 24 q61 211 83 234 q22 31 50 31 ZM602 813 q44 -3 50 -42 q92 4 207 5 q82 0 82 -53 q-3 -42 -48 -45 l-78 0 q25 -33 56 -80 l-84 -64 q-45 66 -78 99 q-20 15 -20 42 l-68 -3 q-16 -50 -27 -101 l-107 23 q48 170 64 188 q22 31 51 31 Z" /><glyph glyph-name="" unicode="&#x5f7c;" d="M810 704 q58 0 98 -33 q41 -36 41 -87 q-2 -50 -25 -106 q-4 -36 -65 -36 q-38 0 -38 45 q19 46 19 64 q0 55 -61 55 q-44 -2 -67 -4 q-4 -56 -8 -164 l4 0 q80 0 137 -34 q61 -44 61 -88 l0 -18 q0 -52 -61 -134 q-5 -7 -37 -44 q74 -51 125 -85 l-56 -97 l-150 94 q-52 -51 -105 -93 q-25 -24 -51 -24 q-55 0 -55 59 q0 29 24 56 q43 31 85 66 l-89 57 q-26 19 -28 50 q5 41 52 44 q38 0 154 -67 q3 4 10 11 l9 10 q52 57 52 90 q0 23 -24 36 q-32 13 -63 13 q-103 -9 -211 -57 l-14 64 q-2 -25 -4 -73 q0 -206 10 -324 l-110 0 q-10 83 -10 324 l0 43 q0 159 18 316 q9 60 61 63 q32 -3 42 -33 q59 16 127 27 q2 40 4 59 q9 58 61 64 q47 -3 53 -64 q1 7 -4 -48 l41 3 l48 0 ZM475 386 q53 23 119 37 q2 82 7 165 q-63 -11 -118 -27 l-8 -175 ZM255 778 q58 -3 61 -57 q-3 -36 -41 -54 q-185 -73 -195 -73 l-22 112 q166 69 197 72 ZM282 551 q59 -3 62 -56 q-3 -36 -41 -55 l-70 -24 q1 -11 11 -214 q8 -234 8 -283 l-113 0 q-3 220 -7 306 l-7 155 q-49 -16 -57 -16 l-22 111 q198 73 236 76 Z" /><glyph glyph-name="" unicode="&#x78a7;" d="M392 770 q85 0 85 -55 q-3 -43 -51 -46 l-108 0 l5 -65 l40 0 q82 0 82 -53 q-3 -42 -49 -45 l-69 0 l2 -59 q16 2 44 8 q38 8 59 8 q42 -3 45 -44 q-1 -31 -32 -45 q-92 -30 -349 -48 l-20 94 q87 5 149 13 l-1 72 q-75 0 -115 -2 l0 97 q32 2 111 3 q-2 22 -2 30 q-1 11 -1 29 l0 5 q-99 -3 -135 -6 l0 101 q72 7 310 8 ZM814 806 q49 -3 49 -36 q0 -33 -37 -45 q-114 -15 -222 -33 l-1 -10 q62 6 108 8 l12 0 q19 0 93 -4 q48 -7 80 -29 q45 -22 45 -129 l0 -24 q0 -49 -13 -72 q-21 -41 -70 -59 q-52 -23 -149 -23 l-31 0 q-111 0 -150 35 q-48 39 -48 102 l0 14 q0 80 31 192 q12 44 52 46 l-9 31 q202 34 260 36 ZM709 608 q-65 -3 -125 -15 q-5 -28 -5 -31 q65 4 143 5 q75 0 75 -49 q-3 -38 -45 -41 q-109 0 -172 -5 q6 -16 21 -25 q33 -15 107 -15 q88 0 114 22 q23 14 26 79 q0 59 -32 68 q-66 7 -107 7 ZM868 319 q67 -3 70 -45 q-3 -42 -48 -45 q-306 -4 -506 -14 q-6 -17 -19 -35 q-66 -66 -218 -226 l-76 62 q82 99 171 188 q-66 -5 -144 -7 l0 90 q239 26 770 32 ZM584 176 q192 0 246 -30 q59 -35 59 -89 l0 -27 q0 -53 -40 -73 q-70 -42 -226 -42 l-71 0 q-132 0 -194 30 q-58 31 -58 89 l0 22 q0 60 61 91 q46 25 169 29 l54 0 ZM580 8 q109 0 179 16 q24 5 24 33 q0 17 -33 23 q-36 3 -180 3 q-111 0 -141 -8 q-24 -6 -24 -20 q0 -31 22 -37 q31 -10 153 -10 Z" /><glyph glyph-name="" unicode="&#x6bd5;" d="M192 793 q53 -3 56 -53 q0 -12 -5 -39 l-4 -22 q57 3 147 6 q82 0 82 -53 q-3 -41 -49 -44 q-131 0 -199 -6 q-9 -55 -9 -73 q0 -67 52 -67 q40 0 217 49 l0 -91 q-151 -52 -237 -52 l-17 0 q-53 0 -96 40 q-32 32 -32 90 q0 88 42 277 q15 38 52 38 ZM595 801 q51 -3 54 -51 q0 -15 -3 -38 q-3 -13 -3 -24 q49 4 163 7 q85 0 85 -55 q-3 -44 -51 -47 q-128 0 -209 -7 q-4 -40 -4 -59 q0 -65 40 -65 q42 0 229 54 l0 -94 q-160 -58 -250 -58 l-15 0 q-48 0 -86 41 q-29 32 -29 92 q0 86 27 267 q17 37 52 37 ZM850 245 q80 -3 84 -55 q-3 -51 -58 -55 q-160 -2 -336 -8 q-11 -94 -14 -220 l-123 0 q0 86 12 215 l-125 -8 q-115 -13 -233 -16 l0 110 q141 17 369 26 l5 45 q9 67 67 73 q55 -3 61 -73 l-5 -40 l296 6 Z" /><glyph glyph-name="" unicode="&#x5e01;" d="M152 460 q38 0 50 -27 q104 31 235 47 l-1 40 q-2 26 -2 69 q0 18 6 30 q-168 -12 -353 -12 l0 109 q373 9 682 42 q46 4 64 4 q58 -3 64 -56 q-2 -44 -50 -53 q-71 -11 -313 -28 q14 -17 14 -46 q0 11 4 -89 l75 1 q123 0 209 -55 q82 -67 82 -150 l0 -31 q-15 -101 -57 -185 q-18 -40 -68 -40 q-45 0 -45 58 q57 101 57 172 q0 74 -52 98 q-58 23 -161 23 l-36 -1 q0 -40 3 -88 q7 -339 7 -375 l-117 0 q-3 289 -7 404 q-2 34 -2 49 q-111 -15 -219 -45 q19 -145 36 -268 l-109 -17 q-22 149 -49 341 q3 73 53 79 Z" /><glyph glyph-name="" unicode="&#x75f9;" d="M533 817 q14 0 28 -7 q35 -20 88 -72 q93 2 201 3 q74 -3 78 -51 q-3 -48 -54 -51 q-284 -3 -447 -11 q-59 -5 -124 -7 q-21 -153 -31 -218 q-28 -227 -34 -488 l-109 0 q0 127 11 264 q-80 -34 -86 -34 l-21 99 q90 41 117 50 q6 66 10 95 q-37 20 -71 41 q-28 21 -30 52 q3 43 53 46 q17 0 62 -21 q8 75 23 179 q9 59 61 65 q31 -1 43 -27 q64 5 186 10 q-12 20 -12 32 q3 48 58 51 ZM679 456 q75 0 75 -49 q-3 -38 -45 -41 l-61 0 q-2 -18 -2 -53 l-97 0 q0 32 1 51 q-80 -3 -127 -9 q11 -26 34 -36 q41 -21 169 -21 q65 0 113 9 q36 6 59 32 q17 14 20 66 q0 68 -41 89 q-24 10 -116 12 q0 -2 1 -4 q-3 -20 -5 -46 l22 0 ZM561 502 q-77 -6 -133 -19 q-4 -13 -8 -40 q44 5 136 10 l5 49 ZM440 577 q87 16 169 19 l52 0 q94 0 132 -11 q67 -15 98 -55 q33 -33 33 -123 l0 -15 q0 -68 -41 -117 q-51 -66 -233 -66 l-77 0 q-109 0 -177 27 q-85 39 -85 134 l0 13 q0 88 30 178 q15 36 54 42 q34 -4 45 -26 ZM857 176 q70 -3 73 -46 q-3 -44 -50 -47 l-76 -1 q2 -8 2 -11 q-2 -15 -6 -59 q-5 -53 -5 -101 l-106 0 q0 62 7 160 l2 10 l-184 -4 q-3 -10 -9 -19 q-19 -31 -38 -80 q-19 -43 -27 -73 l-102 29 q37 98 56 138 q-68 -2 -97 -2 l0 94 q171 9 560 12 Z" /><glyph glyph-name="" unicode="&#x95ed;" d="M127 688 q58 -2 58 -62 q5 -47 19 -311 q15 -312 15 -404 l-114 0 q-3 280 -14 435 l-13 215 q-4 37 -4 74 q0 53 53 53 ZM728 799 q84 0 143 -35 q63 -43 63 -183 q0 -130 -28 -623 q-9 -49 -64 -49 q-49 0 -49 57 q27 354 27 609 q0 115 -114 115 q-125 -3 -239 -37 l-26 107 q108 36 250 39 l37 0 ZM271 815 q43 -3 133 -128 l-87 -83 q-53 38 -94 87 q-24 33 -24 57 q3 64 72 67 ZM704 487 q88 0 88 -58 q-3 -44 -53 -48 l-74 0 q16 -93 16 -185 q0 -110 -35 -159 q-43 -60 -111 -60 q-63 0 -105 11 l-12 109 q54 -10 98 -10 q25 0 39 26 q16 27 16 90 q0 32 -4 88 q-103 -109 -247 -267 l-82 68 q134 166 261 287 q-175 -6 -230 -18 l0 105 q61 11 256 17 q-6 18 -8 27 q-17 23 -17 49 q4 45 56 51 q33 -3 53 -29 q19 -54 30 -95 l65 1 Z" /><glyph glyph-name="" unicode="&#x5f0a;" d="M125 766 q20 0 42 -19 q24 -22 63 -81 l-71 -55 l8 -6 q49 20 89 31 q-2 23 -4 77 q-2 18 -2 48 q0 48 47 48 q52 -2 52 -55 l6 -101 l52 0 l-31 25 q33 48 67 85 q25 23 49 23 q39 -4 43 -43 q-1 -22 -20 -47 l-47 -55 q28 -11 50 -27 l9 -12 q56 103 117 184 q26 24 52 24 q40 -6 46 -46 q-1 -22 -18 -45 l133 3 q88 0 88 -57 q-3 -44 -52 -48 q-173 0 -239 -6 l-63 -102 l-35 29 q6 -25 6 -51 l0 -27 q-2 -83 -37 -195 q-12 -22 -48 -22 q-49 0 -49 45 q3 14 9 31 q22 54 28 125 q0 68 -18 99 q-28 20 -69 20 l-19 -1 l0 -12 q0 -23 2 -59 q23 -6 95 -47 l-45 -80 q-23 13 -46 30 q3 -78 3 -109 l-101 0 q-2 80 -2 112 q-13 -33 -35 -76 l-50 21 q7 -44 21 -91 l-94 -19 q-30 87 -33 222 q0 78 10 125 q21 36 53 39 l4 -1 q-26 39 -42 55 q-21 18 -21 47 q4 41 47 47 ZM173 386 q12 29 33 72 q13 28 40 31 q13 -2 17 -4 q-2 44 -2 59 q-46 -15 -90 -36 q-3 -33 -3 -54 q0 -38 5 -68 ZM857 585 q41 -4 45 -45 q-2 -25 -21 -49 q-40 -40 -59 -60 q65 -42 112 -76 l-48 -97 q-63 51 -135 99 q-27 -28 -79 -84 l12 1 q57 -1 57 -62 q2 -9 5 -41 l94 1 q73 -1 78 -50 q-3 -48 -54 -51 q-76 -2 -109 -2 q9 -120 9 -158 l-114 0 q-3 94 -6 156 q-177 -6 -294 -12 q-13 -72 -14 -144 l-109 0 q0 57 12 135 q-69 -5 -149 -7 l0 101 q79 9 168 14 l6 32 q9 59 60 65 q47 -3 53 -65 l-5 -26 q117 6 264 9 q-2 14 -2 21 q-3 18 -3 31 q0 18 6 28 l-70 56 q56 68 94 109 q-6 2 -14 8 q-32 17 -35 42 q3 48 46 51 q17 0 35 -9 q24 -14 36 -20 q39 39 78 75 q24 24 50 24 Z" /><glyph glyph-name="" unicode="&#x5fc5;" d="M172 555 q49 -3 52 -50 q-2 -23 -13 -53 q-30 -100 -51 -233 l-106 24 q50 255 67 281 q23 31 51 31 ZM375 633 q55 0 55 -51 q0 -14 -10 -51 q-51 -165 -51 -261 q0 -40 5 -61 q186 267 375 480 q28 26 57 26 q45 -4 49 -49 q-2 -27 -23 -55 q-163 -210 -384 -505 q47 -23 124 -23 q126 0 264 54 l0 -119 q-150 -53 -258 -53 l-36 0 q-101 0 -169 40 l-61 -83 l-85 71 q42 64 64 96 q-35 61 -35 156 q2 167 60 342 q15 43 59 46 ZM492 762 q29 0 60 -28 q30 -27 89 -116 l-94 -72 q-49 72 -85 106 q-24 20 -24 56 q3 48 54 54 ZM789 454 q31 0 64 -31 q35 -31 96 -122 l-94 -72 q-55 78 -96 114 q-25 21 -25 56 q4 49 55 55 Z" /><glyph glyph-name="" unicode="&#x58c1;" d="M367 786 q55 0 92 -34 q33 -33 33 -95 q0 -70 -38 -108 q-41 -37 -118 -37 l-153 16 q-22 -118 -27 -246 l-94 0 q0 162 70 452 q8 52 52 56 q23 -1 34 -18 q82 13 149 14 ZM203 615 q42 -6 115 -13 q40 0 56 11 q21 9 21 38 q0 26 -12 35 q-13 10 -33 10 q-31 0 -133 -17 l-14 -64 ZM242 485 q24 0 36 -15 q26 5 58 7 q36 0 71 -5 q29 -3 54 -27 q27 -19 27 -107 l0 -12 q0 -48 -38 -72 q-34 -27 -99 -27 l-15 0 q-90 0 -131 34 q-29 25 -29 76 q0 43 19 109 q12 36 47 39 ZM332 399 q-14 0 -60 -20 q-2 -9 -2 -23 q0 -26 12 -38 q14 -13 55 -13 q34 0 46 11 q12 11 12 34 q-3 40 -24 44 q-23 5 -39 5 ZM691 817 q22 0 40 -18 q17 -14 53 -59 l67 1 q75 0 75 -49 q-3 -38 -45 -41 l-8 0 q5 -11 7 -30 q0 -11 -10 -26 q-18 -30 -23 -40 l24 0 q78 0 78 -50 q-3 -40 -47 -43 l-120 0 l1 -6 q-2 -14 -3 -55 l59 0 q75 0 75 -49 q-3 -38 -45 -41 l-94 0 q-2 -56 -2 -84 l-109 0 q0 51 1 83 q-95 -1 -130 -3 l0 90 q39 2 133 3 q0 16 2 56 q0 3 1 5 q-141 -3 -179 -7 l0 94 l88 4 q-3 8 -7 26 q-12 51 -12 64 q-20 -2 -45 -7 l0 90 q44 7 138 11 q-9 15 -9 34 q3 41 46 47 ZM734 554 q42 74 56 93 l4 4 l-134 -3 q10 -48 32 -94 l42 0 ZM790 188 q85 0 85 -55 q-3 -43 -51 -46 l-257 0 q-3 -28 -3 -57 q83 0 307 2 q74 -3 78 -51 q-3 -47 -53 -51 q-367 0 -587 -5 q-123 -3 -235 -3 l0 101 q138 3 375 6 q0 27 3 57 l-296 -3 l0 101 q84 2 303 3 q0 8 2 24 q9 61 62 67 q49 -3 55 -67 l-2 -23 l214 0 Z" /><glyph glyph-name="" unicode="&#x81c2;" d="M348 805 q64 0 103 -30 q37 -29 37 -84 q0 -63 -38 -96 q-41 -32 -118 -32 l-167 13 q-16 -117 -19 -224 l-89 0 q0 138 42 388 q6 49 49 54 q17 -1 27 -11 q88 20 173 22 ZM178 656 q68 -7 137 -11 q40 0 58 9 q22 6 22 31 q0 23 -17 29 q-15 9 -47 9 q-38 0 -146 -24 l-7 -43 ZM238 548 q23 0 34 -14 q25 4 53 6 q29 0 71 -4 q26 -3 51 -25 q28 -17 28 -95 l0 -11 q0 -40 -37 -62 q-35 -22 -100 -22 l-14 0 q-81 0 -119 30 q-27 23 -27 68 q0 33 15 90 q12 36 45 39 ZM321 469 q-13 0 -52 -18 q-1 -6 -1 -13 q0 -25 10 -35 q14 -12 47 -12 q35 0 48 9 q12 9 12 28 q-3 34 -24 37 q-28 4 -40 4 ZM688 825 q27 -3 75 -58 l91 1 q76 0 76 -49 q-3 -38 -45 -41 l-18 0 q-6 -23 -29 -74 l28 0 q75 0 75 -49 q-3 -38 -45 -41 l-147 -1 l2 -50 l84 1 q75 0 75 -49 q-3 -38 -45 -41 l-110 -1 q0 -32 2 -66 q35 -8 55 -18 q76 -27 79 -144 l0 -14 q0 -79 -16 -180 q-15 -44 -60 -44 q-53 0 -53 50 q15 89 15 160 q0 77 -45 98 q-51 12 -121 12 q-170 -4 -356 -41 q0 -11 2 -39 q110 16 368 22 q72 0 72 -47 q-3 -36 -43 -39 q-274 0 -394 -19 q0 -22 1 -31 q99 8 364 11 q72 0 72 -47 q-3 -35 -43 -39 q-277 0 -391 -9 l1 -42 l-114 0 q-2 147 -4 198 q0 45 -2 99 q-1 12 -1 33 q0 53 52 53 q25 0 41 -14 q153 34 336 41 l78 0 l0 54 q-101 -6 -134 -13 l0 90 q44 7 132 11 q-1 12 -1 32 q-1 8 -1 20 q-122 -4 -166 -12 l0 90 l93 8 q-10 60 -11 73 q-26 -2 -62 -7 l0 90 q37 5 140 10 q-3 8 -3 13 q3 46 51 49 ZM652 675 q8 -50 13 -75 q22 0 70 2 q12 32 34 75 q-51 0 -117 -2 Z" /><glyph glyph-name="" unicode="&#x907f;" d="M499 778 q50 0 83 -42 q29 -40 29 -115 q0 -86 -35 -130 q-37 -45 -107 -45 l-111 17 q-12 -168 -15 -349 l-94 0 q0 215 36 608 q8 52 52 56 q21 -2 33 -16 q64 14 129 16 ZM378 669 q-7 -70 -11 -118 q36 -9 84 -15 q32 0 46 17 q17 14 17 62 q0 43 -8 57 q-10 16 -25 16 q-24 0 -103 -19 ZM428 415 q23 0 32 -14 q12 3 25 3 q35 0 60 -6 q24 -5 45 -34 q23 -26 23 -137 l0 -14 q0 -57 -31 -90 q-28 -33 -82 -33 l-12 0 q-72 0 -105 43 q-25 29 -25 93 q0 57 27 153 q11 33 43 36 ZM480 318 q-7 0 -28 -6 q-8 -32 -8 -67 q0 -38 8 -51 q9 -18 32 -18 q26 0 35 15 q8 13 8 44 q-3 67 -17 75 q-18 8 -30 8 ZM757 813 q21 0 42 -21 q23 -23 54 -71 l25 0 q75 0 75 -49 q-3 -37 -41 -40 q2 -8 2 -11 q-2 -18 -13 -44 q-23 -62 -39 -136 l26 0 q60 -3 65 -50 q-6 -43 -58 -48 l-68 0 l0 -6 q0 -22 2 -66 q9 0 25 2 l19 1 q52 -2 58 -51 q-3 -38 -45 -47 q-14 -2 -54 -4 q0 -52 3 -103 l99 12 l0 -112 q-301 -39 -569 -39 l-37 0 q-102 0 -177 52 q-81 63 -81 183 q0 100 30 230 q12 48 58 51 q52 -3 55 -52 q0 -14 -16 -86 q-13 -75 -13 -121 q0 -79 41 -111 q38 -36 127 -36 q184 0 384 20 q-2 35 -4 108 q-28 -1 -86 -1 l0 97 q30 0 82 2 q-3 33 -3 65 q0 9 1 13 q-85 0 -122 1 l0 98 l59 -1 q-6 29 -13 83 q-9 77 -9 98 q-12 -3 -18 -3 l0 90 q36 5 108 8 q-21 18 -21 48 q4 41 47 47 ZM776 441 q39 161 55 190 q-78 -2 -99 -2 q9 -104 31 -188 l13 0 ZM121 704 q26 0 138 -81 l-65 -113 q-48 39 -100 84 q-33 24 -33 58 q5 49 60 52 Z" /><glyph glyph-name="" unicode="&#x8fb9;" d="M176 446 q53 -3 54 -52 q0 -18 -15 -86 q-14 -73 -14 -121 q0 -79 41 -111 q38 -36 127 -36 q240 0 533 41 l0 -112 q-274 -39 -519 -39 l-37 0 q-104 0 -177 52 q-81 63 -81 183 q0 104 29 230 q12 48 59 51 ZM139 704 q26 0 144 -77 l-64 -113 q-85 62 -108 80 q-31 24 -33 58 q6 49 61 52 ZM708 669 q90 0 148 -49 q54 -52 54 -120 l0 -18 q0 -59 -17 -161 q-21 -102 -44 -164 q-12 -35 -72 -35 q-42 0 -42 58 q31 87 47 174 q15 75 15 124 q0 43 -26 66 q-33 27 -85 27 q-28 -1 -75 -5 q-34 -89 -56 -158 q-60 -174 -84 -279 l-114 32 q89 281 125 385 q-70 -17 -120 -35 l-22 97 q87 31 181 47 q34 87 47 113 q24 40 67 41 q49 -6 52 -53 q0 -20 -13 -41 q-8 -15 -22 -47 l5 1 l51 0 Z" /><glyph glyph-name="" unicode="&#x7f16;" d="M284 105 q49 -4 54 -53 q-2 -37 -37 -53 q-60 -38 -222 -65 l-23 113 q106 13 190 48 q27 10 38 10 ZM218 263 q43 0 117 46 l0 -103 q-79 -46 -143 -46 q-54 0 -90 32 q-35 34 -35 81 q0 47 45 126 q20 30 32 45 q-25 7 -40 16 q-57 30 -57 86 q0 50 35 108 q43 68 103 119 q25 16 49 17 q53 -3 56 -36 q-2 -26 -19 -39 q-99 -133 -99 -164 q0 -14 45 -14 q8 0 12 1 l37 35 q25 22 53 25 q57 -3 62 -46 q0 -22 -25 -39 q-119 -122 -140 -164 q-26 -35 -26 -67 q0 -19 28 -19 ZM747 719 q78 0 130 -37 q46 -35 46 -100 q0 -76 -40 -116 q-43 -39 -125 -39 l-268 15 l-7 -39 q-35 -206 -41 -426 l-99 0 q0 242 82 674 q9 56 54 60 q25 -2 37 -20 q53 12 96 17 q-9 6 -25 20 q-16 22 -16 35 q3 51 62 54 q12 0 24 -6 q33 -18 87 -63 l-26 -30 l29 1 ZM519 595 q-6 -27 -12 -63 q78 -6 232 -13 q40 0 59 13 q21 9 21 43 q0 30 -23 41 q-22 12 -67 12 q-54 0 -210 -33 ZM533 364 q17 -2 25 -10 q85 37 197 46 l33 0 q70 0 119 -47 q43 -68 43 -154 l0 -33 q-1 -102 -18 -243 q-12 -20 -44 -20 q-44 0 -44 41 q1 12 5 41 q5 32 10 97 q-4 -1 -9 -1 l-39 0 l-1 -153 l-81 0 q0 93 1 152 l-40 -1 q-2 -51 -2 -156 l-81 0 q0 93 2 152 l-38 -3 q0 -96 10 -156 l-93 0 q-9 42 -9 181 l0 26 q0 95 3 189 q7 49 51 52 ZM572 163 q18 2 39 3 q2 79 4 115 q-28 -10 -41 -16 q-2 -54 -2 -102 ZM697 304 l1 -9 l-5 -125 q25 0 38 1 q0 38 2 138 l-36 -5 ZM812 172 l6 0 q26 0 44 -6 q-3 80 -18 118 q-16 14 -28 19 l-4 -131 Z" /><glyph glyph-name="" unicode="&#x4fbf;" d="M327 794 q61 -3 64 -59 q-3 -36 -43 -57 q-65 -48 -81 -59 q2 -12 2 -21 q1 -12 14 -301 q12 -304 12 -394 l-113 0 q-3 268 -11 424 l-11 217 q-79 -55 -86 -55 l-23 115 q233 185 276 190 ZM869 795 q92 0 92 -60 q-3 -46 -55 -50 l-126 -1 q2 -8 2 -12 q-1 -23 -8 -56 q56 -12 101 -52 q60 -58 60 -182 l0 -37 q0 -40 -11 -75 q-15 -45 -44 -68 q-30 -30 -90 -42 q-40 -11 -102 -13 l-21 0 l-10 -59 q168 -43 284 -70 l-34 -103 l-267 68 q-8 -50 -11 -76 l-107 23 q5 36 14 82 q-79 22 -127 39 q-49 21 -49 58 q4 40 51 46 q22 0 49 -11 q53 -17 95 -28 l7 40 q-48 9 -86 31 q-75 48 -75 128 l0 12 q0 86 29 230 q14 53 52 53 q20 0 32 -9 q75 22 126 23 l18 0 q11 41 18 59 q-199 -6 -262 -18 l0 109 q99 16 455 21 ZM745 508 q-10 -33 -18 -73 q70 -3 70 -52 q-3 -41 -49 -44 l-43 0 q-10 -42 -18 -86 q33 0 60 4 q29 4 46 20 q23 14 29 36 q7 25 7 41 l0 21 q0 84 -33 108 q-20 16 -51 25 ZM596 337 q-51 -3 -89 -6 l0 -18 q0 -30 37 -45 q18 -6 37 -9 l15 78 ZM615 434 l17 83 q-41 -3 -106 -18 q-9 -37 -12 -71 l101 6 Z" /><glyph glyph-name="" unicode="&#x53d8;" d="M478 823 q32 -3 96 -81 l-11 -10 q126 2 273 3 q74 -3 78 -51 q-3 -48 -54 -51 q-134 -2 -184 -2 l0 -2 q2 -9 13 -119 q10 -133 10 -154 l-107 0 q-3 100 -10 169 l-8 84 q-3 12 -3 20 q-40 -2 -137 -4 l1 -9 l-7 -98 q-6 -81 -6 -168 l-106 0 q0 94 9 266 q0 3 1 4 l-7 0 q-112 -7 -215 -9 l0 102 q145 11 335 16 q-2 0 -2 2 q-17 21 -17 37 q3 52 58 55 ZM216 561 q42 -6 48 -48 q-1 -25 -24 -52 q-43 -49 -82 -97 l-82 68 q41 58 85 104 q28 25 55 25 ZM779 571 q29 0 158 -85 l-56 -99 q-66 45 -125 88 q-28 21 -29 51 q3 42 52 45 ZM573 344 q127 0 208 -31 q82 -36 82 -90 q-3 -54 -60 -87 q-44 -30 -102 -58 q168 -54 199 -70 l-26 -98 q-138 50 -323 106 q-127 -47 -295 -99 q-33 -11 -61 -11 q-58 0 -58 55 q0 26 30 53 q109 26 203 54 l-110 30 q-53 12 -55 59 q3 19 13 29 l-43 -11 l-24 100 q198 57 422 69 ZM288 203 q32 -7 108 -32 l150 -45 l5 2 q156 60 177 90 q0 23 -160 23 q-130 -3 -280 -38 Z" /><glyph glyph-name="" unicode="&#x8fa8;" d="M210 809 q30 -3 90 -100 l44 1 q82 0 82 -53 q-3 -42 -49 -45 l-20 0 l0 -4 q-4 -23 -14 -47 q-26 -68 -43 -139 l12 0 q33 0 54 -9 q13 93 20 110 q18 26 44 26 q41 -1 44 -43 q-2 -23 -7 -49 q-16 -81 -29 -212 l-91 20 l7 57 q-4 -1 -8 -1 l-81 -1 q0 -5 2 -15 l-8 -84 q24 6 36 10 q16 4 22 4 q52 -2 58 -51 q-3 -38 -45 -47 q-25 -9 -82 -21 q-8 -95 -10 -209 l-105 0 q0 85 7 190 q-45 -5 -82 -5 l0 98 q51 3 90 10 q3 50 9 105 q0 3 2 11 q-79 -6 -108 -15 l0 102 q18 5 63 10 q-10 38 -17 74 q-15 72 -15 93 q0 9 3 18 q-16 -3 -23 -6 l0 98 q28 8 117 14 l-6 8 q-17 26 -17 46 q3 48 54 51 ZM209 438 q38 139 53 173 q-67 -2 -96 -4 q6 -11 8 -21 q13 -84 35 -148 ZM568 755 q44 -3 48 -58 q-23 -207 -32 -283 q-25 -238 -29 -488 l-98 0 q0 277 58 771 q7 53 53 58 ZM752 817 q19 0 41 -19 q23 -18 62 -76 l-19 -14 q25 0 37 1 q85 0 85 -55 q-3 -35 -33 -44 q0 -4 2 -10 q-3 -49 -47 -189 q77 -3 77 -55 q-3 -44 -51 -47 l-76 0 l1 -8 l-4 -93 q22 2 31 4 q16 2 24 2 q54 -1 60 -53 q-3 -40 -46 -49 q-22 -4 -74 -9 q-5 -107 -5 -196 l-105 0 q0 76 3 187 q-72 -4 -110 -4 l0 102 q59 1 113 6 q2 71 4 103 q0 3 1 5 q-92 -4 -125 -12 l0 101 q24 5 86 10 q-11 37 -19 83 q-16 79 -17 101 q-18 -4 -27 -9 l0 101 q31 13 124 22 q-7 8 -19 20 q-21 18 -21 47 q4 41 47 47 ZM785 409 q10 55 52 197 q-67 -2 -97 -4 q14 -104 45 -193 Z" /><glyph glyph-name="" unicode="&#x8fa9;" d="M195 804 q32 -3 90 -96 l43 1 q80 0 80 -52 q-3 -39 -40 -43 l1 -7 q-3 -20 -15 -49 q-25 -65 -42 -137 q69 -4 69 -53 q-3 -43 -50 -46 l-75 -1 q0 -7 2 -15 q0 -6 -3 -31 l-5 -54 q17 3 31 9 q16 4 22 4 q50 -1 56 -50 q-3 -37 -45 -46 q-15 -7 -74 -20 q-8 -95 -10 -211 l-103 0 q0 85 7 191 q-43 -5 -76 -5 l0 96 q43 3 83 9 q3 51 9 108 q0 3 2 11 q-74 -6 -101 -15 l0 100 q15 4 62 11 q-6 25 -14 79 q-14 78 -14 107 q-12 -2 -23 -6 l0 96 q28 7 101 13 q-3 3 -3 5 q-17 26 -17 48 q3 46 52 49 ZM215 425 q38 148 55 187 q-51 -1 -90 -3 q0 -2 1 -4 q11 -99 34 -180 ZM738 812 q24 0 48 -21 q24 -21 60 -72 l29 1 q83 0 83 -53 q-3 -35 -32 -42 l2 -9 q-3 -48 -59 -206 l5 0 q83 0 83 -54 q-3 -43 -50 -46 l-78 0 l0 -2 q-3 -40 -5 -101 q22 2 35 4 q18 2 25 2 q52 -1 58 -52 q-3 -39 -46 -48 q-17 -3 -76 -10 q-4 -128 -4 -196 l-107 0 q0 114 2 188 q-72 -4 -109 -4 l0 100 q58 2 112 6 q2 74 4 110 q-88 -4 -120 -12 l0 99 q23 4 76 9 q-9 37 -15 76 q-14 78 -14 107 q0 11 3 18 q-26 -6 -35 -11 l0 100 q30 11 108 19 l-8 8 q-21 17 -21 46 q4 40 46 46 ZM771 423 q16 66 62 197 q-50 -1 -105 -5 q8 -16 10 -24 q11 -88 33 -168 ZM466 769 q25 0 133 -72 l-60 -105 q-53 39 -98 76 q-29 21 -31 53 q4 45 56 48 ZM529 32 q9 0 48 24 q18 9 25 9 q32 -3 35 -55 q-3 -37 -23 -48 q-45 -34 -98 -34 q-105 0 -105 116 q0 34 8 91 q16 112 46 258 q3 15 3 24 q0 27 -39 27 q-8 0 -58 -32 l-12 103 q51 33 86 33 q51 0 88 -32 q34 -40 34 -89 q0 -26 -10 -86 q-29 -133 -37 -212 q-9 -60 -9 -79 q0 -18 18 -18 Z" /><glyph glyph-name="" unicode="&#x904d;" d="M741 711 q88 0 134 -26 q43 -26 43 -95 q0 -72 -47 -102 q-46 -24 -127 -24 q-185 0 -338 14 q-6 -20 -16 -62 q12 10 32 12 q19 -1 30 -14 q108 24 242 30 l42 0 q93 0 154 -35 q55 -50 55 -114 l0 -25 q-3 -76 -28 -172 q-13 -22 -49 -22 q-49 0 -49 45 q2 14 7 26 q5 12 10 33 l-77 0 l0 -79 l-90 0 l0 79 l-59 0 l1 -79 l-90 0 l0 78 q-24 -1 -63 -1 q3 -63 13 -96 l-95 0 q-13 36 -13 142 l0 18 q0 48 2 72 q-24 -103 -32 -157 l-103 29 q93 402 125 488 q21 36 61 38 q22 -3 35 -16 q56 7 124 11 l-19 17 q-21 24 -21 39 q3 52 58 55 q39 -3 114 -88 l-21 -20 l55 1 ZM459 267 q39 0 62 1 l-1 66 l-58 -12 l-3 -55 ZM606 346 l3 -77 l61 0 l1 83 l-65 -6 ZM759 342 l0 -73 l46 1 q26 0 42 -6 q-3 50 -26 73 q-25 12 -63 15 l1 -10 ZM443 605 q-9 -25 -14 -44 q146 -11 289 -15 q56 0 77 8 q17 6 17 36 q0 39 -86 39 q-107 0 -283 -24 ZM176 446 q53 -3 54 -52 q0 -19 -15 -88 q-14 -73 -14 -122 q0 -85 41 -120 q38 -39 127 -39 q241 0 533 38 l0 -111 q-274 -36 -519 -36 l-37 0 q-104 0 -177 53 q-81 68 -81 193 q0 105 29 233 q12 48 59 51 ZM139 704 q26 0 140 -87 l-64 -112 q-27 22 -104 89 q-31 24 -33 58 q6 49 61 52 Z" /><glyph glyph-name="" unicode="&#x6807;" d="M318 615 q92 0 92 -60 q-3 -46 -55 -49 l-61 0 q0 -37 3 -76 q25 0 142 -79 l-59 -104 l-80 60 q9 -297 9 -392 l-114 0 l-5 353 l-89 -88 l-70 88 q68 66 102 98 q33 32 54 40 q-1 6 -1 16 q-3 42 -3 80 q-103 -6 -133 -17 l0 109 q42 10 128 16 q-2 42 -2 61 q-3 48 -3 85 q0 53 53 53 q57 -1 57 -62 q2 -20 6 -133 l29 1 ZM795 734 q95 0 95 -62 q-3 -46 -57 -51 q-269 0 -334 -17 l0 113 q65 14 296 17 ZM857 462 q83 -3 87 -57 q-3 -53 -59 -57 q-83 -1 -151 -3 l14 -79 q11 -75 11 -145 q0 -114 -28 -158 q-30 -48 -86 -48 q-60 0 -108 33 l23 108 q24 -28 48 -28 q11 0 21 7 q9 6 13 16 q7 25 7 87 q-3 90 -30 195 q-1 2 -1 6 q-27 -1 -48 -3 q-66 -8 -125 -9 l0 113 q122 17 412 22 ZM531 235 q44 0 47 -56 q0 -16 -16 -35 q-74 -103 -105 -163 l-98 68 q78 123 114 162 q27 24 58 24 ZM825 214 q27 0 142 -91 l-60 -105 q-85 74 -106 94 q-31 22 -31 54 q3 45 55 48 Z" /><glyph glyph-name="" unicode="&#x5f6a;" d="M324 825 q51 -3 54 -47 l0 -2 q36 2 120 4 q75 0 75 -49 q-3 -38 -45 -41 q-84 0 -160 -4 q-3 -21 -3 -44 q30 3 85 7 l45 0 q55 0 94 -27 q38 -30 38 -73 q-1 -37 -17 -84 q-4 -33 -60 -33 q-35 0 -35 41 q10 35 10 46 q0 40 -58 40 q-28 -1 -82 -5 q12 -12 12 -36 l-3 -23 l28 1 q78 0 78 -51 q-3 -40 -47 -43 l-72 -1 q0 -17 7 -28 q8 -15 30 -15 q32 0 130 23 l0 -86 q-92 -23 -122 -23 l-26 0 q-58 0 -89 31 q-33 33 -33 95 q-50 -3 -89 -8 q-2 -20 -4 -60 q-13 -201 -15 -423 l-102 0 q0 236 27 668 q9 56 55 60 q29 -1 41 -25 q17 5 67 16 q3 114 17 171 q22 25 49 28 ZM289 491 q1 12 5 31 q4 10 11 21 q-61 -11 -108 -25 q-2 -22 -2 -35 q45 5 94 8 ZM313 257 q32 -2 42 -22 q53 17 99 20 q104 -3 107 -85 q0 -23 -32 -149 q0 -17 23 -17 q40 0 111 25 q44 11 62 11 q35 -3 38 -50 q-3 -34 -29 -44 q-102 -36 -203 -36 q-53 0 -84 22 q-27 20 -27 63 q0 42 31 148 q0 18 -34 18 q-16 0 -70 -23 q-24 -95 -39 -220 l-103 23 q43 257 59 287 q21 29 49 29 ZM858 759 q61 -3 61 -45 q0 -42 -46 -56 q-115 -43 -214 -87 l-31 102 q178 83 230 86 ZM862 513 q61 -3 61 -46 q0 -43 -46 -55 q-117 -47 -206 -88 l-31 102 q173 84 222 87 ZM888 276 q63 -3 63 -48 q0 -43 -48 -57 q-115 -44 -244 -104 l-32 106 q205 100 261 103 Z" /><glyph glyph-name="" unicode="&#x8868;" d="M825 745 q77 -3 81 -53 q-3 -49 -55 -53 q-193 -2 -282 -4 q-2 -26 -2 -41 l-1 -21 q63 0 227 2 q74 -3 78 -51 q-3 -48 -54 -51 q-142 -1 -253 -3 l-1 -68 q139 2 301 3 q77 -3 81 -53 q-3 -49 -55 -53 q-216 -1 -425 -5 q-6 -18 -20 -35 l-85 -70 q0 -10 -6 -34 q-10 -71 -10 -99 q0 -24 30 -33 q30 -11 92 -11 q43 0 75 4 q-6 3 -10 7 q-78 51 -78 101 q0 63 51 106 q54 48 141 48 q87 0 147 -49 q50 -45 50 -113 q0 -45 -36 -86 q65 -9 147 -14 l-33 -113 q-64 3 -151 21 q-58 16 -79 23 l-35 -14 q-93 -30 -193 -30 q-104 0 -166 34 q-66 41 -66 112 q0 20 1 32 l-76 -65 l-85 71 q118 115 227 201 q-108 -4 -207 -6 l0 105 q113 7 348 13 l1 67 q-52 -1 -94 -3 q-115 -7 -189 -7 l0 101 q105 7 284 12 q0 40 1 62 q-58 -1 -106 -3 q-96 -5 -206 -7 l0 105 q103 7 314 13 l0 7 q11 68 69 74 q55 -3 61 -74 l0 -4 q70 0 252 2 ZM651 169 q-41 0 -67 -13 q-25 -15 -25 -30 q0 -21 54 -44 q29 -14 65 -25 q14 9 16 11 q35 24 35 51 q0 22 -21 37 q-24 13 -57 13 Z" /><glyph glyph-name="" unicode="&#x618b;" d="M121 766 q22 0 44 -20 q21 -20 65 -84 l-71 -55 l4 -5 q42 19 99 32 q-2 25 -4 81 q-3 30 -3 52 q0 46 46 46 q50 -2 50 -54 l6 -110 l50 0 l-31 25 q27 42 67 89 q25 23 49 23 q39 -4 43 -43 q-1 -22 -20 -47 l-47 -58 q27 -9 50 -26 l14 -19 q23 63 82 178 q18 39 54 42 q46 -3 52 -48 q-3 -18 -12 -44 q63 3 156 6 q85 0 85 -55 q-3 -43 -51 -46 q-158 0 -233 -9 l-50 -101 l-59 25 q6 -24 6 -48 l0 -27 q-1 -76 -33 -181 q-11 -23 -49 -23 q-48 0 -48 45 q3 17 7 29 q12 27 18 60 l-55 -42 q-24 31 -35 43 q3 -96 3 -135 l-98 0 q-2 116 -2 156 q-16 -41 -43 -97 l-55 23 q5 -36 19 -93 l-89 -18 q-27 85 -30 221 q0 78 10 127 q21 34 51 37 l5 -1 q-20 30 -43 55 q-21 18 -21 47 q4 41 47 47 ZM363 505 q22 -3 40 -20 q20 -17 58 -68 q2 12 4 34 q0 60 -18 90 q-27 18 -69 18 l-18 -1 l1 -14 q0 -17 2 -39 ZM165 397 q9 23 29 62 q15 31 44 34 q20 -1 30 -11 q-2 44 -2 61 q-52 -15 -102 -39 q-2 -20 -2 -50 q0 -27 3 -57 ZM861 587 q41 -4 45 -45 q-2 -25 -21 -49 q-34 -36 -69 -69 q68 -42 118 -77 l-48 -96 q-69 53 -142 100 l-97 -100 l-76 62 q41 48 81 93 l-23 13 q-32 17 -35 43 q3 47 46 50 q14 0 35 -8 l47 -25 q52 52 89 84 q24 24 50 24 ZM172 227 q50 -3 56 -52 q-3 -44 -66 -206 l-101 43 q7 47 53 170 q20 42 58 45 ZM383 223 q54 0 60 -53 q-1 -9 -6 -27 q-17 -44 -17 -56 q0 -34 14 -48 q15 -19 53 -19 q77 0 250 34 l0 -104 q-162 -34 -264 -35 q-84 0 -127 34 q-43 35 -47 94 q0 80 25 142 q18 38 59 38 ZM573 256 q38 -3 115 -102 l-73 -70 q-48 31 -82 70 q-20 24 -20 45 q3 54 60 57 ZM818 210 q44 -3 131 -118 l-73 -70 q-53 35 -95 79 q-23 29 -23 52 q3 54 60 57 Z" /><glyph glyph-name="" unicode="&#x522b;" d="M670 712 q58 -2 58 -63 q2 -21 12 -240 q10 -270 10 -315 l-113 0 q-3 224 -9 340 q-3 43 -8 167 q-3 33 -3 58 q0 53 53 53 ZM863 809 q45 0 48 -53 q30 -339 30 -668 q-3 -175 -142 -181 q-73 0 -135 31 l-4 105 q57 -27 112 -27 q60 0 60 115 q0 73 -29 622 q0 53 60 56 ZM155 798 q44 0 50 -33 q54 9 103 14 l18 0 q54 0 99 -8 q62 -15 102 -48 q39 -36 39 -110 l0 -17 q0 -67 -18 -108 q-20 -49 -81 -61 q-40 -13 -124 -13 q3 -9 3 -17 q-3 -22 -12 -50 l4 1 l47 0 q84 0 136 -39 q49 -41 49 -95 l0 -13 q0 -43 -13 -124 q-18 -78 -36 -126 q-12 -36 -74 -36 q-44 0 -44 61 q25 64 38 127 q12 54 12 90 q0 24 -22 38 q-29 16 -70 16 q-34 0 -67 -3 q-51 -149 -87 -331 l-114 25 q42 170 75 287 q-64 -16 -96 -26 l-23 100 q73 23 152 35 q20 63 34 83 q-66 5 -96 18 q-65 30 -65 165 l0 17 q6 105 29 145 q18 33 52 36 ZM315 675 q-65 -3 -128 -18 q-3 -18 -3 -33 q0 -78 15 -89 q48 -18 108 -18 q62 0 99 3 q33 6 42 39 q6 23 9 42 q0 52 -44 64 q-47 10 -98 10 Z" /><glyph glyph-name="" unicode="&#x658c;" d="M190 747 q16 0 28 -9 q39 -28 98 -96 l-47 -55 l36 1 q91 0 91 -60 q-2 -46 -54 -50 l-19 0 q5 -11 7 -27 q-3 -34 -31 -97 q-22 -53 -43 -120 q32 -25 87 -74 l-57 -101 q-47 39 -65 55 q-23 -83 -43 -180 l-103 24 q32 127 60 229 q-10 8 -24 21 l-22 19 q-28 21 -30 52 q3 43 53 46 q15 0 56 -25 q42 144 63 171 l5 6 q-147 -3 -189 -15 l0 109 q42 9 164 15 q-38 30 -64 59 q-18 30 -18 48 q3 51 61 54 ZM563 710 q83 0 83 -53 q-3 -42 -49 -45 q-144 0 -177 -12 l0 98 q30 9 143 12 ZM870 544 q80 -3 84 -55 q-3 -51 -58 -55 l-79 0 q9 -58 23 -121 q34 -166 101 -357 l-97 -49 q-44 104 -79 252 q-30 116 -57 275 l-158 -1 q-48 -1 -138 -1 l0 110 l278 2 l0 2 q-24 162 -24 208 q1 49 47 55 q47 -5 56 -44 q14 -123 30 -221 l71 0 ZM544 395 q51 0 60 -56 l5 -64 l59 7 q52 -2 58 -51 q-3 -38 -45 -47 q-23 -5 -59 -7 l-5 0 l12 -136 q34 11 93 35 l0 -97 q-118 -52 -193 -53 q-88 0 -131 43 q-44 45 -48 119 q0 91 11 151 q16 31 48 31 q43 0 48 -44 q0 -12 -3 -32 q-7 -56 -7 -72 q0 -47 20 -71 q18 -23 57 -26 l-25 319 q2 48 45 51 ZM850 766 q22 0 46 -22 q26 -26 69 -94 l-80 -61 q-36 57 -62 83 q-20 17 -20 47 q4 41 47 47 Z" /><glyph glyph-name="" unicode="&#x6ee8;" d="M103 485 q30 0 168 -82 l-63 -110 q-83 51 -132 85 q-31 22 -33 56 q6 48 60 51 ZM146 755 q32 0 175 -85 l-62 -111 q-110 68 -140 88 q-31 24 -33 57 q6 48 60 51 ZM232 150 q52 -4 57 -56 q-1 -38 -39 -56 q-48 -32 -187 -56 l-25 118 q95 12 162 41 q20 9 32 9 ZM607 813 q33 -3 91 -73 l85 7 l60 0 q51 0 82 -27 q33 -33 36 -69 l0 -15 q-2 -40 -19 -113 q-10 -30 -64 -30 q-40 0 -40 38 q10 72 10 87 q0 27 -43 27 q-176 -3 -350 -58 l12 -68 q12 9 29 12 q19 0 33 -8 q167 59 224 62 q57 -3 57 -42 q0 -40 -43 -52 q-119 -34 -201 -61 q33 -2 113 -4 l190 -5 q43 -12 43 -53 q-5 -46 -55 -47 l-13 0 l1 -6 l-8 -58 q-3 -18 -3 -33 l37 0 q88 0 88 -57 q-3 -44 -53 -48 q-192 0 -334 -5 q21 -12 24 -40 q-1 -26 -24 -53 q-39 -42 -93 -104 l-82 68 q48 63 96 111 q10 10 22 16 q-108 -6 -144 -14 l0 106 q34 4 98 9 q-11 97 -25 242 q0 11 1 15 l-84 -17 q-27 170 -29 195 q3 53 48 56 q33 0 48 -18 q64 20 130 33 q-13 20 -13 36 q3 55 62 58 ZM575 218 q106 2 152 4 q5 65 8 93 q0 3 2 9 l-171 7 l9 -113 ZM799 100 q26 0 54 -23 q35 -31 82 -98 l-87 -67 q-44 59 -77 87 q-23 17 -23 50 q5 45 51 51 Z" /><glyph glyph-name="" unicode="&#x5bbe;" d="M477 823 q36 -3 99 -71 l112 6 l83 0 q72 0 116 -26 q48 -35 51 -70 l0 -15 q-2 -41 -34 -116 q-10 -30 -64 -30 q-40 0 -40 38 q24 66 24 90 q0 32 -90 32 q-274 -4 -537 -63 l18 -90 q12 24 40 27 q26 0 39 -13 q73 18 157 30 q120 20 261 21 q82 0 82 -57 q-3 -38 -57 -41 q-184 0 -307 -20 q-82 -15 -113 -23 q1 -14 5 -40 q184 10 468 13 q69 -3 72 -47 q-3 -44 -50 -47 l-66 -1 q-2 -11 -14 -58 q-4 -17 -8 -55 l96 1 q70 -3 73 -47 q-3 -44 -50 -47 q-307 -3 -505 -13 q14 -11 17 -35 q-2 -25 -22 -50 q-54 -54 -94 -99 l-79 65 q52 65 97 106 q6 6 12 9 l-160 -5 l0 93 q56 5 129 9 l-35 275 q0 17 5 32 l-107 -22 q-32 175 -36 208 q3 55 50 58 q48 0 63 -40 q112 26 246 43 q-10 14 -10 26 q3 56 63 59 ZM345 189 l273 7 q5 52 19 113 q-115 -3 -212 -8 q-64 -4 -92 -4 l12 -108 ZM683 86 q28 0 58 -25 q30 -22 88 -97 l-84 -65 q-54 63 -90 89 q-21 18 -21 49 q4 43 49 49 Z" /><glyph glyph-name="" unicode="&#x5175;" d="M748 787 q92 0 92 -64 q-3 -42 -64 -46 q-214 0 -355 -23 q-94 -16 -124 -23 l7 -93 q180 17 514 21 q80 -3 84 -54 q-3 -50 -57 -55 l-74 -1 l-13 -86 q-8 -48 -11 -113 l107 1 q80 -3 84 -55 q-3 -51 -58 -55 q-318 -3 -518 -14 q18 -13 21 -39 q-2 -28 -24 -55 q-80 -76 -126 -122 l-85 70 q60 70 128 130 q10 8 16 12 q-95 -7 -218 -11 l0 109 q17 2 138 11 l-37 438 q3 75 55 81 q33 0 45 -18 q86 20 171 31 q132 20 302 23 ZM326 238 q108 5 307 10 q5 81 21 198 q-168 -7 -243 -14 q-32 -4 -98 -8 l13 -186 ZM686 110 q32 0 63 -25 q34 -25 95 -102 l-91 -70 q-55 61 -97 92 q-23 17 -23 52 q4 47 53 53 Z" /><glyph glyph-name="" unicode="&#x51b0;" d="M600 809 q45 0 60 -47 q17 -26 57 -181 l9 -41 q28 21 82 63 q45 34 70 34 q49 -3 52 -56 q0 -32 -37 -54 q-47 -39 -113 -87 l-46 59 q18 -103 18 -206 q0 -34 -2 -90 q12 10 34 12 q18 0 34 -8 q67 -47 137 -56 l-26 -116 q-97 15 -166 69 q-13 12 -19 26 q-9 -85 -30 -127 q-39 -88 -117 -88 q-81 0 -146 35 l22 104 q45 -30 89 -30 q22 3 39 17 q14 14 23 44 q15 53 15 226 q-6 191 -90 410 q-6 18 -6 30 q0 46 57 58 ZM443 536 q56 0 90 -30 q43 -52 43 -94 q0 -81 -39 -168 q-51 -122 -136 -247 q-25 -28 -48 -28 q-45 0 -54 44 q0 26 19 49 q82 132 122 239 q19 62 19 81 q0 48 -19 48 q-54 -7 -132 -44 l-25 106 q90 38 160 44 ZM119 694 q12 -1 29 -5 q41 -24 143 -24 l-12 -124 q-105 0 -171 27 q-46 24 -49 73 q5 50 60 53 ZM252 240 q52 -4 57 -56 q-1 -38 -39 -56 q-52 -35 -195 -56 l-25 118 q99 12 169 41 q20 9 33 9 Z" /><glyph glyph-name="" unicode="&#x4e19;" d="M820 771 q92 0 92 -59 q-3 -46 -55 -50 l-205 -1 l3 -13 q0 -12 -7 -37 q-10 -20 -26 -56 l4 0 q136 0 226 -61 q82 -88 82 -201 l0 -44 q-3 -133 -51 -316 q-15 -26 -59 -26 q-58 0 -58 55 q3 26 12 53 q31 90 38 215 q0 121 -43 178 q-62 38 -165 38 l-37 -1 q-23 -50 -68 -153 l11 -4 q111 -66 228 -78 l-24 -108 q-149 21 -257 93 q-40 -96 -67 -171 l-114 58 l153 349 q-119 -18 -233 -54 q-2 -100 -2 -205 q0 -169 15 -253 l-116 0 q-14 61 -14 253 l0 35 q0 166 2 248 q9 62 63 65 q32 -2 44 -29 q132 43 295 58 q42 90 53 109 q1 1 1 2 q-324 -6 -432 -25 l0 110 q148 20 711 26 Z" /><glyph glyph-name="" unicode="&#x997c;" d="M188 815 q54 -3 57 -58 q-3 -26 -18 -68 q-3 -6 -3 -10 q26 6 52 9 l24 0 q68 0 101 -27 q36 -32 38 -92 l0 -28 q0 -56 -22 -111 q-13 -33 -61 -33 q-48 0 -48 49 q22 60 22 97 q0 31 -18 43 q-19 8 -48 8 q-40 -3 -70 -17 q-21 -76 -41 -186 l-120 28 q71 323 97 362 q25 34 58 34 ZM274 48 q19 0 101 33 l0 -117 q-81 -37 -126 -38 l-14 0 q-41 0 -78 43 q-26 35 -26 95 q0 110 49 358 q17 40 54 40 q54 -3 57 -55 q0 -21 -6 -53 q-37 -210 -37 -258 q0 -48 26 -48 ZM543 794 q39 -3 115 -101 l-45 -43 l98 5 q16 42 55 111 q18 40 55 43 q48 -3 54 -50 q-3 -25 -39 -100 l15 0 q87 0 87 -58 q-2 -44 -52 -48 l-47 0 q2 -12 2 -17 q5 -34 13 -173 q21 3 39 3 q58 -3 64 -57 q-3 -44 -51 -53 q-18 -3 -45 -6 q14 -268 14 -335 l-105 0 q-3 194 -11 324 l-75 -7 q-39 -4 -78 -6 q-10 -158 -11 -307 l-106 0 q0 131 10 302 q-27 -2 -81 -2 l0 110 q58 2 88 4 l16 205 q-38 -5 -65 -13 l0 106 q33 9 103 15 q-32 26 -54 49 q-21 26 -21 44 q3 52 58 55 ZM751 351 q-6 72 -9 128 q-4 32 -4 65 l0 7 q-73 -2 -107 -4 l1 -8 l-17 -199 q63 3 136 11 Z" /><glyph glyph-name="" unicode="&#x70b3;" d="M90 645 q39 -3 52 -34 q9 -36 30 -81 q42 201 63 240 q23 31 52 31 q50 -3 53 -51 q-4 -61 -36 -159 l-5 -19 l13 11 q40 32 62 32 q46 -3 49 -54 q0 -30 -35 -51 q-36 -32 -96 -82 l-22 28 q-26 -105 -48 -226 q4 -2 6 -2 q68 -49 141 -58 l-24 -110 q-85 14 -145 54 q-18 -104 -33 -211 l-108 24 q53 308 98 532 l-57 -37 q-58 123 -58 170 q1 47 48 53 ZM621 46 l-108 24 q50 217 82 335 q-57 -14 -95 -29 q-1 -17 -5 -194 q0 -173 14 -265 l-109 0 q-12 62 -12 265 l0 32 q0 118 6 235 q9 58 59 61 q29 -1 41 -28 q61 21 131 33 q33 115 51 140 q-195 -3 -255 -12 l0 106 q93 9 425 12 q88 0 88 -57 q-3 -44 -53 -48 l-105 0 q2 -8 4 -22 q-4 -42 -33 -108 l20 0 q82 0 133 -56 q49 -58 49 -134 l0 -20 q0 -66 -11 -185 q-13 -125 -26 -189 q-10 -33 -68 -33 q-41 0 -41 56 q20 123 28 206 q9 87 9 144 q0 52 -24 77 q-27 32 -73 32 l-30 -1 q-26 -80 -44 -155 l12 -5 q65 -34 129 -40 l-24 -102 q-81 9 -141 44 l-24 -119 Z" /><glyph glyph-name="" unicode="&#x75c5;" d="M828 567 q74 -3 78 -51 q-3 -48 -53 -51 q-75 -1 -138 -3 q0 -2 1 -4 q-3 -26 -22 -71 l28 0 q98 0 161 -45 q58 -64 58 -146 l0 -32 q-3 -100 -35 -224 q-14 -25 -54 -25 q-55 0 -55 50 q3 20 9 37 q20 55 26 144 q0 81 -26 118 q-38 26 -100 26 l-52 -3 q-14 -37 -27 -80 q78 -45 160 -54 l-23 -103 q-94 12 -166 54 q-14 -53 -24 -103 l-106 23 q32 121 70 249 q-65 -14 -112 -28 l-1 -100 q0 -143 12 -215 l-109 0 q-11 53 -11 215 l0 20 q0 94 2 141 q9 59 60 62 q25 -1 37 -22 q75 22 155 32 q17 50 30 79 l-94 -8 q-72 -9 -138 -12 l0 102 q136 22 459 28 ZM553 813 q13 0 25 -6 q33 -19 90 -68 l-11 -13 q95 2 207 3 q77 -3 81 -53 q-3 -48 -55 -52 q-283 -3 -447 -11 q-69 -4 -132 -6 q-10 -79 -27 -196 q-28 -225 -34 -481 l-109 0 q0 113 12 263 q-65 -32 -72 -32 l-20 98 q80 42 102 49 q6 64 10 96 l-72 42 q-30 21 -31 52 q5 43 54 46 q15 0 63 -21 q4 39 22 167 q9 59 61 65 q37 -3 47 -40 q95 5 186 8 q-15 23 -15 34 q3 53 65 56 Z" /><glyph glyph-name="" unicode="&#x5e76;" d="M299 790 q15 0 29 -8 q37 -23 106 -86 l-35 -41 l186 7 q12 36 47 109 q19 43 59 46 q52 -3 58 -54 q-3 -28 -34 -98 q30 0 98 2 q78 -3 82 -53 q-3 -49 -56 -53 q-78 -2 -110 -2 q4 -22 23 -245 q27 0 52 3 q36 3 68 3 q63 -3 69 -62 q-3 -44 -54 -55 q-41 -4 -127 -9 q14 -224 14 -287 l-118 0 q-5 185 -10 281 l-130 -6 q-62 -3 -183 -7 q-24 -129 -42 -268 l-118 26 l41 240 q-46 -1 -140 -1 l0 117 q83 0 161 3 q32 174 53 247 q-96 -10 -171 -11 l0 105 q84 10 185 17 q-27 20 -48 39 q-20 26 -20 45 q3 53 65 56 ZM619 503 q-6 30 -6 53 q-97 -3 -201 -8 q-5 -50 -25 -119 q-14 -54 -31 -133 q131 3 281 11 l-18 196 Z" /><glyph glyph-name="" unicode="&#x83e0;" d="M273 817 q62 0 71 -64 q0 -3 1 -4 q93 4 295 8 q10 26 14 30 q26 34 57 34 q54 -3 57 -57 l-1 -5 l89 1 q78 -3 82 -52 q-3 -49 -56 -53 q-108 -2 -153 -2 q-12 -40 -16 -66 l-23 5 q16 -18 19 -48 l20 0 q82 0 142 -22 q51 -30 51 -71 l0 -16 q-3 -44 -26 -97 q-13 -25 -52 -25 q-53 0 -53 49 q2 6 6 12 q14 17 19 45 q0 20 -21 29 q-30 6 -80 6 l-13 0 q-2 -14 -2 -20 q-7 -75 -8 -138 q55 4 79 5 q48 0 78 -15 q34 -23 34 -66 q0 -48 -46 -91 q-25 -25 -58 -53 q71 -32 151 -63 l-34 -98 q-132 54 -207 88 q-42 -33 -90 -66 l-44 -27 q-63 0 -63 48 q0 21 24 40 l71 52 q-44 22 -60 32 q-47 18 -47 54 q1 13 8 23 l-33 -10 q-9 -113 -12 -230 l-105 0 q0 205 46 570 q9 58 57 62 q37 -3 47 -36 q56 13 108 20 l0 7 q7 49 45 61 l-46 10 q9 32 11 37 q-140 -3 -241 -9 l9 -46 l-122 -25 q-11 66 -11 63 q-79 -5 -175 -7 l0 105 q66 6 158 12 l-2 14 q3 57 51 60 ZM576 171 q40 -22 103 -51 q71 57 83 76 q0 16 -25 16 q-83 -10 -182 -35 l21 -6 ZM464 251 q46 14 118 29 q1 55 8 163 q-49 -8 -105 -23 l-18 -141 q-3 -15 -3 -28 ZM119 345 q21 0 51 -10 q33 -13 131 -39 l-35 -108 q-114 34 -149 50 q-51 21 -51 60 q4 41 53 47 ZM146 553 q21 0 51 -10 q40 -17 135 -44 l-35 -108 q-117 37 -152 55 q-51 21 -51 60 q4 41 52 47 ZM256 115 q49 -5 53 -52 q-1 -35 -37 -53 q-54 -36 -206 -60 l-23 110 q100 13 178 45 q23 10 35 10 Z" /><glyph glyph-name="" unicode="&#x64ad;" d="M221 803 q44 0 47 -51 l11 -111 l20 0 q80 -3 84 -54 q-3 -51 -58 -55 l-37 -1 q6 -68 9 -137 q19 8 31 8 q50 -4 55 -54 q-2 -38 -37 -54 q-13 -11 -43 -26 q3 -90 3 -178 q-3 -172 -120 -177 q-63 0 -114 36 l-4 102 q46 -31 91 -31 q39 0 39 113 l-4 97 q-56 -16 -119 -27 l-25 114 q74 12 137 33 q-1 25 -5 83 l-6 94 l-38 -3 q-39 -6 -76 -6 l0 110 q39 6 107 9 q-6 70 -8 111 q0 52 60 55 ZM794 798 q79 0 79 -55 q-3 -36 -55 -39 q-46 0 -118 -2 q6 -13 6 -30 q2 -13 6 -114 q17 0 51 2 q10 29 32 79 q16 34 48 37 q40 -3 46 -43 q-2 -20 -22 -70 l10 0 q69 -3 72 -47 q-3 -44 -50 -47 q-105 -3 -183 -6 l4 -162 q46 -1 85 -6 q48 -12 92 -47 q47 -45 47 -124 l0 -29 q0 -70 -44 -112 q-70 -68 -185 -68 l-62 0 q-119 0 -190 36 q-77 52 -77 145 l0 12 q0 74 15 137 q14 30 36 39 l-43 56 l131 109 q-67 -9 -128 -12 l0 94 l67 10 l-20 22 q-18 15 -18 43 q3 38 43 43 q24 0 48 -24 q23 -25 55 -74 q12 0 36 2 q-3 48 -3 83 q-1 16 -1 43 q0 11 2 16 l-54 -7 q-96 -14 -155 -30 l0 94 q82 20 172 31 q104 14 225 15 ZM615 298 q-2 68 -2 93 q-94 -73 -137 -104 q11 -4 17 -11 q50 16 122 22 ZM703 215 q2 -12 2 -17 l6 -57 l41 -6 q40 -9 43 -41 q-2 -40 -49 -41 q-19 0 -27 1 l5 -51 q60 4 88 34 q27 27 27 71 q0 53 -32 79 q-29 24 -104 28 ZM625 2 q-3 17 -7 56 q-66 3 -120 9 q9 -29 34 -43 q38 -19 93 -22 ZM608 151 q-4 28 -5 41 q0 10 1 15 q-55 -11 -98 -31 q-7 -4 -12 -6 q-1 -5 -1 -13 l115 -6 ZM792 438 q27 0 158 -64 l-45 -80 q-75 36 -132 66 q-23 18 -24 41 q3 34 43 37 Z" /><glyph glyph-name="" unicode="&#x6ce2;" d="M246 144 q50 -4 55 -54 q-2 -38 -37 -54 q-51 -29 -201 -52 l-25 114 q95 10 174 38 q21 8 34 8 ZM729 692 q84 0 142 -26 q51 -39 51 -88 l0 -19 q-3 -52 -24 -123 q-13 -25 -54 -25 q-55 0 -55 51 l6 15 q14 25 17 65 q0 26 -20 40 q-32 8 -79 8 l-18 -1 q-7 -108 -7 -191 q78 -3 132 -30 q67 -41 67 -82 l0 -18 q0 -48 -62 -124 q-15 -18 -31 -34 q93 -53 156 -94 l-51 -103 q-89 63 -184 117 q-58 -52 -115 -94 q-24 -21 -46 -21 q-50 0 -50 53 q0 25 21 50 q51 33 93 66 l-88 45 q-35 18 -38 46 q3 52 50 55 q18 0 37 -9 l126 -63 q11 9 20 20 q52 54 52 84 q0 20 -31 32 q-41 11 -82 11 q-108 -9 -216 -54 q-10 -175 -10 -325 l-102 0 q0 260 34 717 q9 55 56 61 q38 -3 47 -43 q50 14 116 22 q0 33 3 66 q9 58 60 64 q47 -3 53 -64 l-3 -57 l27 0 ZM454 357 q56 20 124 31 q0 80 6 191 q-54 -8 -115 -26 l-14 -173 q-1 -8 -1 -23 ZM103 485 q30 0 168 -82 l-63 -110 q-83 51 -132 85 q-31 22 -33 56 q6 48 60 51 ZM146 755 q32 0 175 -85 l-62 -111 q-110 68 -140 88 q-31 24 -33 57 q6 48 60 51 Z" /><glyph glyph-name="" unicode="&#x535a;" d="M260 550 q92 0 92 -59 q-3 -46 -55 -50 l-54 0 q-11 -240 -13 -530 l-101 0 q0 220 10 529 q-69 -2 -88 -4 l0 110 q28 2 92 3 l8 200 q9 54 56 60 q44 -3 50 -60 q-3 -46 -9 -199 l12 0 ZM787 755 q-1 1 -1 4 q3 46 57 49 q9 0 23 -7 q32 -19 83 -71 l-65 -75 q-25 16 -37 28 q-12 -22 -44 -25 l-140 -1 q0 -9 2 -29 l46 0 q89 0 147 -38 q53 -51 53 -122 l0 -26 q-3 -80 -28 -184 q-13 -23 -51 -23 q-51 0 -51 47 q2 16 7 28 q17 46 22 116 q0 64 -24 92 q-34 20 -90 20 l-27 -1 l1 -17 q0 -14 2 -36 l22 0 q73 0 73 -47 q-3 -36 -43 -39 l-49 0 l1 -33 l22 0 q73 0 73 -47 q-3 -36 -43 -39 l-49 0 l1 -65 l-102 0 l-1 61 q-55 -4 -76 -12 l0 86 q25 7 74 11 l-1 36 q-60 -3 -81 -6 l0 86 q23 3 78 6 q-2 32 -2 47 q-58 -9 -114 -21 q14 -126 33 -278 l-99 -19 q-35 286 -40 357 q1 46 43 49 q30 0 44 -20 q51 13 128 23 l-1 34 q-127 -6 -170 -16 l0 98 q40 8 165 14 l0 13 q0 48 46 48 q52 -2 52 -55 l0 -2 q32 0 114 2 l17 -1 ZM892 197 q51 -1 57 -51 q-3 -38 -45 -47 q-19 -3 -51 -3 q3 -24 3 -47 q0 -70 -31 -103 q-40 -39 -101 -39 q-60 0 -98 26 l-12 102 q53 -27 91 -27 q24 0 35 11 q15 11 15 36 q0 17 -5 37 q-35 -2 -106 -4 q-86 -4 -132 -4 q24 -20 63 -59 l-71 -83 q-52 39 -84 71 q-16 25 -16 40 q0 19 9 29 l-79 0 l0 97 q219 3 375 10 q-1 3 -1 10 q4 41 52 47 q29 -1 50 -28 q7 -15 12 -23 l70 2 Z" /><glyph glyph-name="" unicode="&#x52c3;" d="M477 723 q74 -3 78 -51 q-3 -47 -54 -50 q-88 -2 -129 -4 q0 -17 2 -49 q11 0 31 2 l44 0 q54 0 91 -31 q38 -33 38 -80 q-2 -45 -19 -96 q-4 -35 -63 -35 q-36 0 -36 43 q13 41 13 56 q0 45 -54 45 q-129 -3 -255 -38 l24 -127 l-105 -21 q-32 188 -34 214 q1 47 45 50 q32 0 46 -20 q64 17 117 25 q-3 30 -3 56 l-64 -5 q-60 -8 -124 -10 l0 102 q72 11 183 17 l-2 32 q3 54 50 57 q59 0 68 -62 l1 -22 q33 0 111 2 ZM508 216 q42 -3 45 -44 q-2 -30 -32 -44 q-24 -9 -66 -19 q3 -18 3 -37 q0 -69 -40 -115 q-48 -50 -106 -50 q-40 0 -69 18 q-25 16 -28 45 q3 36 29 39 q15 0 54 -3 q66 0 66 68 q0 6 -2 18 q-98 -15 -242 -27 l-19 94 q105 7 173 17 q-10 15 -10 38 q0 28 21 43 q51 32 51 56 q0 26 -36 26 q-39 0 -84 -25 l-12 98 q53 23 118 25 q40 0 72 -23 q36 -28 36 -73 q0 -57 -50 -99 q18 -18 35 -40 q10 1 25 5 q41 9 68 9 ZM675 652 q23 99 36 126 q22 31 51 31 q48 -3 51 -51 q-3 -46 -17 -98 q61 -3 101 -29 q49 -37 49 -152 q0 -113 -55 -510 q-9 -47 -63 -47 q-47 0 -47 56 q56 291 56 495 q0 81 -69 82 q-67 -265 -116 -625 l-106 24 q64 383 105 583 q-36 -11 -68 -25 l-24 104 q52 24 116 36 Z" /><glyph glyph-name="" unicode="&#x640f;" d="M222 805 q45 0 48 -52 q6 -76 8 -113 q70 -6 74 -53 q-3 -51 -58 -55 l-10 0 l6 -131 l7 1 q50 -4 55 -54 q-1 -37 -38 -54 l-20 -15 q2 -128 2 -187 q-3 -172 -114 -177 q-58 0 -107 35 l-4 104 q42 -30 84 -30 q32 0 32 111 q0 26 -3 96 q-58 -18 -110 -28 l-25 114 q71 12 130 36 l-8 175 l-43 -4 q-36 -6 -66 -6 l0 110 q46 7 104 10 l-5 111 q0 53 61 56 ZM790 755 l0 4 q3 46 57 49 q10 0 22 -7 q30 -20 80 -71 l-65 -75 q-17 11 -35 27 q-12 -21 -43 -24 l-135 -1 q0 -9 2 -29 l46 0 q90 0 147 -39 q53 -55 53 -125 l0 -27 q-2 -83 -22 -190 q-12 -24 -50 -24 q-51 0 -51 47 q1 10 5 30 q13 54 16 122 q0 64 -23 95 q-33 21 -90 21 l-27 -1 l1 -17 q0 -14 2 -36 l19 0 q72 0 72 -47 q-1 -36 -42 -39 l-46 0 l1 -33 l19 0 q72 0 72 -47 q-3 -36 -43 -39 l-45 0 l1 -65 l-102 0 l-1 61 q-52 -4 -72 -12 l0 86 q23 7 71 11 q-1 12 -1 36 q-57 -3 -78 -6 l0 86 q23 3 75 6 q-2 32 -2 47 q-59 -9 -113 -21 q23 -211 32 -287 l-100 -19 q-34 305 -39 366 q1 46 43 49 q31 0 45 -19 q53 12 127 22 l-1 34 q-127 -6 -166 -16 l0 98 q38 8 160 14 l0 13 q0 48 47 48 q52 -2 52 -55 l0 -2 q31 0 107 2 l18 -1 ZM892 197 q51 -1 57 -51 q-3 -38 -45 -47 q-18 -3 -47 -3 q3 -24 3 -47 q0 -70 -31 -103 q-39 -39 -100 -39 q-58 0 -95 26 l-12 102 q51 -27 89 -27 q22 0 33 11 q15 11 15 36 q0 13 -4 37 q-35 -2 -104 -4 q-84 -4 -127 -4 q17 -15 61 -59 l-71 -83 q-50 39 -81 71 q-15 26 -15 40 q0 19 9 29 l-77 0 l0 97 q211 3 365 10 q-1 4 -1 10 q4 41 52 47 q30 -1 49 -28 l11 -23 l66 2 Z" /><glyph glyph-name="" unicode="&#x4f2f;" d="M778 796 q89 0 89 -61 q-3 -40 -60 -45 q-131 0 -222 -22 q-20 -5 -62 -19 q3 -12 3 -26 q0 -3 -4 -29 q69 16 143 26 l15 0 q34 0 109 -7 q59 -17 94 -61 q53 -45 53 -262 l0 -51 q0 -103 -17 -149 q-24 -83 -81 -122 q-61 -46 -175 -47 l-43 0 q-146 0 -201 64 q-65 72 -65 188 l0 31 q0 173 59 421 q12 40 44 52 l0 50 q56 27 140 46 q80 20 181 23 ZM661 514 q-87 -8 -162 -37 q-14 -78 -22 -151 q60 9 162 12 q91 0 91 -60 q-2 -46 -54 -50 q-139 0 -208 -12 q-1 -9 -1 -24 q0 -92 39 -131 q47 -35 156 -35 q101 0 131 55 q26 35 29 196 q0 188 -36 215 q-69 22 -125 22 ZM331 798 q61 -3 64 -59 q-3 -36 -43 -57 l-85 -62 q2 -14 2 -22 q1 -12 14 -301 q12 -304 12 -394 l-113 0 q-3 268 -11 424 l-11 217 q-77 -55 -86 -55 l-23 115 q238 190 280 194 Z" /><glyph glyph-name="" unicode="&#x6e24;" d="M555 747 q78 0 78 -51 q-3 -40 -47 -43 l-84 -1 q-2 -42 -2 -62 l26 0 q60 0 101 -26 q51 37 113 51 q12 92 21 117 q18 26 44 26 q41 -3 44 -44 q-1 -37 -11 -96 q46 -13 74 -62 q38 -74 41 -219 l0 -69 q0 -164 -44 -314 q-12 -28 -50 -28 q-40 0 -40 40 q44 182 44 304 q0 160 -25 219 q-7 13 -18 23 q-41 -263 -69 -601 l-92 20 q39 378 68 592 q-29 -9 -56 -27 l1 -24 q-2 -35 -10 -83 q-16 -33 -57 -33 q-37 0 -37 48 q10 40 10 61 q0 21 -19 29 q-26 7 -62 7 q-83 -3 -156 -35 l7 -50 q46 23 103 26 q41 0 74 -24 q37 -31 37 -76 q0 -59 -42 -103 l15 -15 q18 4 28 7 q20 4 28 4 q48 -1 54 -47 q-3 -34 -42 -43 q-9 -4 -17 -5 q12 -36 12 -71 q0 -65 -41 -108 q-49 -47 -108 -47 q-41 0 -68 18 q-26 14 -29 45 q1 34 29 39 q9 0 56 -10 q67 0 67 65 q0 15 -10 48 q-28 -6 -42 -8 q-84 -18 -179 -18 l0 90 q69 5 132 15 q-2 4 -2 14 q0 28 20 44 q46 34 46 58 q0 38 -38 38 q-42 0 -91 -37 l-5 37 l-67 -11 l-28 153 q2 61 45 65 q19 0 31 -10 q41 17 75 25 q0 47 1 75 q-99 -6 -130 -16 l0 7 l-45 -81 q-28 18 -112 76 q-31 24 -33 57 q6 48 60 51 q25 0 130 -63 l0 47 q37 9 131 15 l0 7 q9 58 60 64 q47 -3 53 -64 l0 -3 q32 0 49 1 ZM103 469 q26 0 134 -66 l-62 -110 q-57 39 -99 69 q-31 23 -33 57 q6 47 60 50 ZM192 150 q52 -4 57 -56 q-1 -38 -39 -56 q-37 -31 -143 -52 l-25 118 q69 10 126 38 q16 8 24 8 Z" /><glyph glyph-name="" unicode="&#x6355;" d="M242 805 q45 0 48 -52 q4 -38 10 -112 l3 0 q80 -3 84 -54 q-3 -51 -58 -55 l-21 0 q6 -92 8 -133 q9 3 16 3 q50 -4 55 -54 q-2 -38 -37 -54 q-13 -10 -29 -18 q3 -94 3 -184 q-3 -173 -127 -177 q-66 0 -119 35 l-4 104 q50 -30 97 -30 q44 0 44 111 q0 26 -3 99 q-57 -17 -137 -31 l-25 114 q82 12 156 38 l-10 173 l-57 -4 q-40 -6 -77 -6 l0 110 q55 7 127 10 l-7 111 q0 53 60 56 ZM798 713 q-12 12 -17 16 q-20 17 -20 47 q4 41 47 47 q20 0 41 -18 q21 -16 62 -71 l-29 -22 q54 -9 54 -51 q-3 -43 -50 -46 q-80 0 -190 -2 q0 -15 2 -51 l10 1 l48 0 q85 0 139 -62 q50 -88 50 -203 l0 -44 q-3 -136 -42 -322 q-14 -25 -54 -25 q-55 0 -55 51 q4 32 10 55 q26 95 32 223 q0 133 -20 196 q-29 41 -75 41 q-14 0 -40 -2 q2 -33 3 -69 q0 -16 1 -22 l2 0 q82 0 82 -53 q-3 -42 -49 -45 l-33 0 q0 -26 2 -68 l22 1 q52 -2 58 -50 q-3 -38 -45 -47 q-11 -3 -32 -6 q3 -120 3 -174 l-106 0 q-2 116 -2 161 q-57 -7 -104 -8 q3 -109 13 -169 l-99 0 q-14 68 -14 278 l0 36 q0 139 16 268 q9 52 54 55 q29 -2 38 -26 q41 11 85 18 q-2 40 -2 58 q-137 -6 -187 -21 l0 99 q60 13 183 19 q-2 22 -2 59 q0 50 49 50 q53 -2 53 -58 q0 -11 3 -47 q50 2 105 3 ZM604 280 q-69 -3 -99 -7 q-2 -25 -4 -73 l0 -9 q70 4 104 8 l-1 81 ZM511 371 q37 3 91 6 l-3 81 q-54 -11 -85 -20 q-2 -32 -3 -67 Z" /><glyph glyph-name="" unicode="&#x2f18;&#x535c;" d="M391 794 q51 -3 57 -70 l-11 -220 l15 -5 q251 -89 419 -168 l-57 -116 q-173 91 -383 168 q-11 -209 -13 -457 l-117 0 q0 294 25 798 q10 64 65 70 Z" /><glyph glyph-name="" unicode="&#x8865;" d="M178 798 q26 0 53 -25 q32 -25 81 -99 l-28 -21 l14 0 q55 -3 81 -31 q31 -28 31 -79 q0 -48 -41 -115 q-13 -19 -11 -17 q25 -10 109 -52 l-53 -93 q-52 29 -109 63 q-4 2 -4 4 q-4 -4 -10 -12 q7 -17 7 -33 q2 -14 5 -51 l39 1 q88 0 88 -58 q-3 -44 -53 -48 l-67 0 l1 -9 q9 -168 9 -216 l-109 0 q-3 154 -9 235 l-5 72 q-11 -12 -31 -32 q-24 -21 -46 -21 q-50 0 -50 49 q0 21 18 43 q167 171 196 229 q17 34 17 44 q0 22 -22 22 q-91 -12 -192 -61 l-25 103 q74 35 134 49 q-29 35 -48 53 q-23 19 -23 53 q4 47 53 53 ZM648 801 q52 -3 58 -69 q-3 -51 -12 -240 q146 -69 240 -126 l-55 -111 q-81 56 -192 113 q-10 -233 -11 -457 l-117 0 q0 300 25 821 q11 65 64 69 Z" /><glyph glyph-name="" unicode="&#x4e0d;" d="M846 774 q80 -3 84 -55 q-3 -50 -58 -54 q-114 -1 -218 -3 q-5 -13 -17 -28 q-77 -72 -151 -145 q65 -99 96 -180 q31 -90 31 -187 q0 -95 -36 -137 q-45 -51 -116 -51 q-65 0 -109 22 l-13 113 q57 -21 101 -21 q27 0 42 18 q18 18 18 63 q0 67 -21 130 q-20 56 -81 145 q-127 -123 -258 -255 l-85 70 q221 252 436 440 l-192 -7 q-120 -8 -229 -9 l0 110 q237 17 776 21 ZM654 468 q19 0 38 -8 q126 -116 259 -137 l-28 -125 q-168 33 -291 151 q-30 30 -30 73 q4 42 52 46 Z" /><glyph glyph-name="" unicode="&#x5e03;" d="M854 700 q80 -3 84 -55 q-3 -51 -58 -55 q-167 -2 -245 -4 q0 -6 2 -16 q1 5 -8 -102 l21 0 q115 0 191 -44 q69 -61 69 -143 l0 -31 q-3 -91 -47 -220 q-13 -25 -54 -25 q-55 0 -55 50 q3 17 12 35 q28 60 35 142 q0 72 -35 105 q-53 22 -133 22 l-12 -1 q-2 -20 -2 -29 q-13 -198 -15 -414 l-114 0 q0 166 15 430 q-97 -19 -195 -65 q14 -117 33 -268 l-105 -17 l-40 294 l-90 -128 l-85 70 q118 193 221 335 q-93 -8 -178 -9 l0 110 q98 11 267 19 q38 52 76 97 q29 26 57 26 q44 -6 50 -50 q-1 -27 -24 -54 q-7 -8 -9 -13 q118 4 371 8 ZM513 458 q4 79 7 112 q0 4 2 12 l-121 -5 l-133 -188 l10 -4 q107 52 235 73 Z" /><glyph glyph-name="" unicode="&#x6b65;" d="M494 815 q63 -3 63 -66 q2 -10 6 -59 q64 7 191 10 q80 -3 84 -55 q-3 -51 -58 -55 q-117 -1 -186 -8 q-12 -3 -23 -3 l5 -88 q81 2 249 4 q93 0 93 -61 q-3 -47 -56 -51 q-122 0 -290 -2 q-3 -27 -6 -91 q0 -53 1 -75 q108 51 206 100 q23 16 47 19 q49 -6 55 -52 q0 -51 -32 -69 q-144 -86 -665 -315 l-62 120 q181 74 335 144 q-2 33 -2 128 l0 11 q0 45 5 77 q-259 -7 -349 -26 l0 112 q64 8 129 13 l-24 126 q3 75 56 81 q38 0 50 -26 q12 -24 12 -48 l22 -127 l105 5 l-7 137 l-7 99 q-3 20 -3 34 q0 57 56 57 ZM248 352 q49 -3 55 -51 q-5 -41 -79 -181 l-100 42 q10 39 67 146 q19 41 57 44 Z" /><glyph glyph-name="" unicode="&#x90e8;" d="M753 794 q73 0 117 -44 q52 -57 52 -119 q0 -73 -81 -157 q98 -66 98 -173 q0 -82 -69 -130 q-65 -50 -156 -50 q-16 0 -27 5 l4 -223 l-109 0 q-3 270 -7 376 l-7 185 q-2 24 -2 64 q0 51 51 51 q56 -2 56 -61 q3 -45 11 -266 q0 -17 1 -24 q12 -3 23 -3 q44 0 82 26 q36 21 36 50 q0 33 -14 69 q-18 30 -52 42 q-26 9 -31 36 q0 25 12 37 q22 20 50 61 q18 29 18 56 q0 88 -83 88 q-80 0 -167 -63 l-13 109 q121 58 207 58 ZM253 803 q35 -3 107 -102 l84 1 q75 -3 78 -51 q-1 -48 -53 -51 l-9 0 q-5 -45 -43 -160 l34 0 q88 0 88 -58 q-3 -44 -53 -47 q-356 0 -440 -18 l0 105 q29 4 89 9 q-15 118 -18 157 q-18 -2 -49 -2 l0 101 q48 5 152 10 l-5 5 q-20 26 -20 47 q3 51 58 54 ZM355 598 q-92 -2 -132 -4 l20 -158 q19 0 65 2 q11 52 47 160 ZM144 284 q30 -1 42 -21 q48 9 109 12 l26 0 q42 0 76 -6 q33 -10 67 -41 q34 -42 34 -109 l0 -26 q0 -67 -34 -109 q-54 -66 -145 -66 l-47 0 q-91 0 -145 36 q-59 52 -59 144 l0 11 q0 68 15 128 q21 44 61 47 ZM313 183 q-68 0 -131 -25 q-2 -14 -2 -40 q0 -67 23 -86 q26 -23 68 -23 l25 0 q53 0 74 34 q17 25 17 63 q0 37 -17 57 q-14 17 -57 20 Z" /><glyph glyph-name="" unicode="&#x6016;" d="M876 706 q77 -3 81 -53 q-3 -49 -56 -53 q-150 -3 -253 -6 q-83 -109 -128 -178 q8 -6 11 -10 q56 21 122 33 l3 60 q9 58 61 64 q47 -3 53 -64 l-3 -51 l2 0 q78 0 130 -37 q48 -51 48 -119 l0 -27 q-3 -82 -23 -179 q-15 -25 -53 -25 q-53 0 -53 49 q2 14 6 27 q15 47 18 112 q0 52 -19 77 q-24 13 -61 15 l-3 -60 q-8 -167 -10 -374 l-109 0 q0 162 9 424 q-54 -13 -99 -31 l18 -235 l-100 -17 q-18 171 -30 303 q0 21 7 37 l-54 38 q44 66 108 158 q-55 -5 -95 -5 l0 105 q55 7 177 14 q39 52 71 87 q27 24 57 24 q42 0 45 -53 q0 -24 -19 -53 q66 2 141 3 ZM159 676 q53 -3 56 -52 q0 -14 -8 -36 q-50 -146 -50 -180 q0 -60 60 -69 q12 167 38 406 q9 58 60 64 q47 -3 53 -64 l-32 -307 q-3 -26 -7 -78 q45 15 65 23 l0 -98 q-45 -20 -72 -29 q-12 -168 -15 -345 l-110 0 q0 135 12 324 l-8 0 q-64 0 -117 44 q-40 36 -40 98 q1 82 62 261 q17 38 53 38 Z" /><glyph glyph-name="" unicode="&#x731c;" d="M337 790 q44 -6 50 -50 q-1 -26 -24 -55 q-18 -23 -61 -75 q31 -44 52 -91 q44 -111 44 -243 q0 -155 -34 -245 q-48 -109 -130 -109 q-76 0 -124 57 q-48 47 -48 131 q0 97 72 172 q65 63 137 63 l13 -1 q-10 87 -42 156 l-11 20 l-107 -137 l-85 71 q55 81 109 151 q-24 13 -44 23 q-48 9 -49 56 q3 45 62 48 q36 0 89 -31 l12 -8 l62 70 q29 27 57 27 ZM271 236 q-37 0 -68 -40 q-31 -38 -31 -79 q0 -85 56 -85 q28 0 44 60 q14 44 17 141 q-12 3 -18 3 ZM711 821 q47 -3 53 -61 q32 0 110 2 q69 -3 72 -47 q-3 -43 -50 -46 q-78 -1 -138 -3 q-3 -18 -3 -34 q-1 -6 -1 -18 q27 0 89 2 q66 -3 69 -45 q-3 -42 -48 -45 q-62 -1 -115 -3 q-1 -18 -1 -51 q59 3 113 9 q28 2 40 2 q50 -1 56 -49 q-3 -36 -44 -45 q-49 -7 -218 -16 q-123 -9 -259 -9 l0 94 q115 2 201 7 q0 15 2 53 q-14 -2 -48 -4 q-62 -8 -110 -8 l0 89 q60 9 161 15 q2 24 3 51 l-63 -4 q-66 -8 -125 -9 l0 94 q58 7 193 14 q9 59 61 65 ZM504 329 q23 0 38 -13 q80 26 170 32 l31 0 q93 0 138 -42 q50 -47 53 -139 l0 -43 q0 -95 -23 -185 q-12 -32 -57 -32 q-48 0 -48 47 q22 107 22 172 q0 81 -33 111 q-30 21 -86 21 q-75 -1 -147 -29 l1 -29 q103 -5 171 -16 q40 -10 43 -41 q-2 -40 -48 -41 q-92 2 -161 9 q0 -16 2 -38 q99 -5 164 -16 q40 -9 43 -41 q-1 -38 -48 -41 q-89 3 -154 9 l2 -73 l-105 0 q-3 163 -8 221 l-7 110 q-2 14 -2 37 q0 50 49 50 Z" /><glyph glyph-name="" unicode="&#x6750;" d="M361 615 q92 0 92 -60 q-3 -46 -55 -49 l-72 -1 q0 -36 3 -75 q29 0 155 -75 l-59 -104 q-52 33 -93 60 q10 -335 10 -396 l-113 0 q-3 212 -6 356 q-55 -48 -103 -91 l-69 88 q55 51 110 98 q37 32 58 40 q-1 6 -1 16 q-3 42 -3 80 q-111 -6 -145 -17 l0 109 q45 10 141 16 q-3 33 -3 61 q-3 48 -3 85 q0 53 53 53 q57 -1 57 -62 l7 -133 l39 1 ZM860 631 q82 -1 87 -56 q-3 -53 -59 -57 l-32 0 q13 -237 13 -429 q-3 -174 -148 -180 q-76 0 -140 47 l-4 112 q59 -42 115 -42 q68 0 68 105 q0 32 -8 210 q-131 -149 -217 -252 l-82 68 q129 174 260 305 q13 13 32 20 q-2 22 -2 33 q-78 -3 -142 -8 q-59 -4 -115 -6 l0 113 q85 10 251 15 l-7 122 q0 53 61 56 q45 0 48 -52 l10 -124 l11 0 Z" /><glyph glyph-name="" unicode="&#x624d;" d="M629 805 q42 -3 57 -50 q15 -56 23 -105 l129 1 q83 -3 87 -57 q-3 -52 -60 -56 q-100 -2 -140 -2 q11 -106 13 -237 q0 -194 -50 -285 q-51 -84 -143 -84 q-104 0 -182 51 l0 109 q74 -50 147 -50 q66 0 90 62 q25 72 25 216 l-1 34 q-153 -89 -524 -266 l-57 111 q304 136 558 275 q6 5 13 8 l-7 54 q-173 -4 -308 -11 q-125 -10 -226 -11 l0 114 q174 15 514 21 l-12 59 q-3 30 -3 45 q3 51 57 54 Z" /><glyph glyph-name="" unicode="&#x8e29;" d="M870 790 q64 -3 64 -47 q0 -43 -48 -58 q-223 -26 -424 -54 l-32 105 q342 52 440 54 ZM895 637 q45 -3 51 -48 q-3 -32 -53 -155 l-95 39 q7 35 43 122 q18 39 54 42 ZM483 614 q27 0 52 -25 q26 -34 68 -119 l-92 -55 q-28 70 -55 120 q-15 15 -15 35 q3 40 42 44 ZM657 637 q28 0 55 -25 q23 -31 60 -107 l-95 -59 q-27 69 -48 108 q-16 16 -16 37 q3 41 44 46 ZM861 355 q88 0 88 -57 q-3 -44 -53 -48 l-136 0 q-3 -22 -3 -47 q-1 -8 -1 -22 q53 -19 192 -103 l-56 -101 q-78 45 -141 84 q-3 -75 -3 -154 l-113 0 q0 72 3 166 l-125 -100 l-68 85 q77 66 125 106 q42 34 72 44 q0 26 1 40 q-126 -4 -178 -11 l0 105 q61 7 182 10 l1 23 q9 61 63 67 q49 -3 55 -67 l-1 -21 l96 1 ZM158 774 q20 0 31 -13 q31 7 61 11 l7 0 q13 0 65 -4 q34 -11 56 -36 q31 -28 31 -158 l0 -30 q0 -51 -10 -78 q-12 -44 -46 -64 q-19 -13 -47 -18 l4 -93 l23 1 q71 -3 75 -49 q-3 -46 -52 -49 q-16 -1 -43 -1 l4 -140 q52 7 95 17 l0 -101 q-120 -25 -200 -27 q-76 0 -112 30 q-39 32 -42 83 q0 124 11 202 q15 33 50 33 q45 0 50 -46 q0 -18 -3 -48 q-7 -80 -7 -105 q0 -23 14 -34 q15 -13 47 -13 q-2 143 -4 195 q-4 88 -4 114 q-2 18 -2 26 q-71 3 -100 41 q-38 46 -38 121 l0 12 q0 73 26 171 q14 50 60 50 ZM238 667 q-35 -4 -52 -8 q-12 -66 -12 -101 q0 -42 14 -59 q19 -16 62 -16 q35 0 47 22 q10 13 11 77 q0 66 -16 77 q-30 8 -54 8 Z" /><glyph glyph-name="" unicode="&#x91c7;" d="M783 787 q92 0 92 -64 q-3 -41 -63 -46 q-265 0 -440 -23 q-158 -20 -255 -46 l0 109 q115 28 289 47 q165 20 377 23 ZM180 579 q42 -3 57 -38 q19 -44 64 -107 l-105 -66 q-69 111 -69 153 q1 52 53 58 ZM461 626 q41 -3 56 -37 q18 -41 66 -100 l-101 -65 q-72 107 -72 146 q1 50 51 56 ZM854 626 q49 -3 52 -57 q0 -31 -37 -54 q-46 -31 -136 -89 l-69 88 q21 15 55 38 l55 38 q51 36 80 36 ZM846 360 q58 -3 64 -57 q-3 -43 -51 -52 q-62 -10 -288 -29 q2 -33 3 -72 q6 -187 6 -243 l-121 0 q-4 238 -5 265 q-2 30 -2 41 q-171 -12 -362 -12 l0 109 q198 5 358 16 l0 20 q0 57 56 57 q62 -3 62 -66 l0 -2 q109 9 214 21 q48 4 66 4 ZM304 171 q47 -6 51 -52 q-1 -28 -24 -57 q-95 -80 -153 -132 l-89 74 q76 77 156 139 q30 28 59 28 ZM702 169 q17 0 40 -10 q116 -48 192 -90 l-55 -111 q-78 50 -191 101 q-37 22 -40 51 q3 56 54 59 Z" /><glyph glyph-name="" unicode="&#x5f69;" d="M470 801 q58 -3 61 -56 q-3 -36 -41 -55 q-363 -72 -383 -72 l-22 111 q326 69 385 72 ZM523 633 q46 -3 52 -47 q-5 -42 -85 -191 l-94 39 q10 44 74 157 q18 39 53 42 ZM475 341 q91 0 91 -59 q-3 -46 -54 -50 l-146 -1 l-1 -62 q13 14 42 17 q28 0 143 -69 l-57 -101 q-67 44 -109 73 q-15 10 -20 20 q-1 -102 -1 -202 l-109 0 q0 98 2 210 q-8 -16 -14 -22 q-81 -83 -121 -126 l-82 69 q66 81 124 133 q28 25 55 25 q28 -3 40 -23 l0 9 q0 33 1 48 q-140 -3 -193 -11 l0 110 q54 6 196 9 l0 26 q0 51 50 51 q56 -2 56 -61 l0 -14 l107 1 ZM862 794 q61 -3 64 -59 q-3 -36 -43 -57 q-261 -111 -274 -111 l-23 115 q237 109 276 112 ZM854 489 q61 -3 64 -59 q-3 -37 -43 -56 q-251 -112 -266 -112 l-23 116 q227 108 268 111 ZM887 175 q53 -3 58 -57 q-2 -41 -40 -59 q-89 -78 -341 -134 l-27 123 q162 29 292 106 q35 21 58 21 ZM121 579 q38 -3 51 -33 q14 -41 55 -108 l-93 -58 q-60 108 -60 147 q1 46 47 52 ZM285 605 q38 -3 51 -33 q17 -34 54 -80 l-93 -59 q-59 86 -59 120 q1 46 47 52 Z" /><glyph glyph-name="" unicode="&#x83dc;" d="M762 577 q86 0 86 -59 q-1 -15 -8 -23 q35 -9 39 -46 q-1 -26 -24 -53 q-9 -9 -125 -136 l-82 69 q65 83 128 142 q2 1 5 4 q-244 0 -415 -19 q-150 -18 -245 -39 l0 101 q112 24 277 40 q163 17 364 19 ZM182 411 q23 0 48 -22 q28 -20 75 -86 l-84 -64 q-38 49 -67 74 q-21 18 -21 49 q4 43 49 49 ZM467 452 q22 0 44 -19 q26 -21 67 -77 l-71 -54 q35 -12 35 -58 q0 -6 1 -10 l318 6 q80 -3 84 -55 q-3 -51 -57 -54 q-226 -4 -337 -7 q0 -9 2 -25 q8 -155 8 -188 l-114 0 q-3 149 -7 206 l0 3 q-23 -2 -74 -4 q-6 -15 -18 -27 q-106 -114 -150 -178 l-100 71 q56 66 106 122 q-66 -5 -145 -7 l0 110 q139 15 374 24 q-1 9 -1 23 q0 52 51 52 q-23 32 -44 48 q-21 18 -21 49 q4 43 49 49 ZM864 760 q74 -3 78 -50 q-3 -48 -53 -51 q-98 -2 -138 -2 q-16 -46 -22 -70 l-107 23 l16 45 q-142 -3 -280 -8 l20 -62 l-117 -24 l-23 79 q-87 -6 -167 -6 l0 102 l137 9 q-3 9 -3 14 q3 55 50 58 q59 0 68 -62 q0 -3 2 -5 q111 4 354 8 q8 15 12 21 q23 31 51 31 q49 -3 52 -51 l70 1 ZM655 98 q51 0 262 -87 l-57 -100 l-228 90 q-28 21 -30 51 q3 43 53 46 Z" /><glyph glyph-name="" unicode="&#x8521;" d="M236 625 q-4 14 -5 20 q-96 -7 -160 -7 l0 98 q63 5 137 9 q-3 9 -3 14 q3 55 50 58 q59 0 68 -62 l1 -5 q125 5 356 10 q5 13 11 19 q23 31 51 31 q48 -3 52 -49 l73 1 q71 -3 75 -48 q-3 -46 -51 -49 q-98 -2 -138 -2 q-10 -26 -18 -56 q56 -3 90 -28 q44 -36 44 -100 q-2 -37 -37 -74 q67 -17 119 -22 l-23 -102 q-94 12 -173 37 q3 -7 3 -17 q-3 -40 -47 -43 q-315 0 -395 -11 l0 25 l-94 -71 q172 11 590 14 q70 -2 73 -46 q-3 -44 -50 -47 q-132 -1 -234 -3 l8 -24 q12 -36 12 -73 q0 -66 -31 -92 q-31 -27 -96 -27 q-65 0 -119 31 l19 90 q36 -27 70 -27 q15 0 28 3 q11 1 17 6 q11 6 11 33 q-3 37 -28 77 q-78 -2 -113 -4 q-34 -3 -64 -3 q2 -6 4 -16 q-4 -36 -77 -172 l-91 38 q9 36 67 140 q1 1 2 4 l1 3 q-9 -1 -24 -1 l0 77 q-19 -21 -38 -21 q-50 0 -50 53 q0 25 31 50 q35 23 54 37 l-61 37 l-11 -19 l-85 60 q118 173 168 227 q13 12 31 19 ZM624 612 q13 39 17 49 q-171 -4 -290 -9 q6 -27 15 -56 l-69 -14 l-1 -13 q55 8 85 10 q54 0 84 -24 q35 -27 35 -84 q0 -28 -34 -68 q-26 -28 -59 -57 q93 5 252 6 q-67 26 -126 65 q-25 24 -25 60 q5 33 44 38 q4 0 14 -2 l-9 61 q56 20 111 28 l-44 10 ZM178 405 q34 -14 94 -49 l26 19 q-16 9 -88 47 q-7 5 -11 12 q-10 -12 -21 -29 ZM283 480 q22 -10 88 -44 q20 17 20 30 q0 27 -23 27 q-36 -2 -85 -13 ZM605 494 q74 -39 136 -61 q23 31 23 38 q0 47 -53 47 q-35 0 -106 -24 ZM722 69 q20 -2 31 -4 q43 -17 155 -17 l-10 -96 q-109 0 -185 19 q-38 20 -39 57 q4 38 48 41 Z" /><glyph glyph-name="" unicode="&#x9910;" d="M451 778 q72 0 72 -47 q-3 -36 -43 -39 q-78 0 -123 -3 l3 -33 q41 4 59 5 q36 0 61 -21 q28 -25 28 -61 q0 -19 -7 -42 q11 3 20 3 q33 -3 39 -27 l81 -23 q0 11 13 30 q4 4 14 12 q-50 10 -74 16 q-49 12 -51 54 q6 40 54 46 q15 0 69 -15 q34 -9 83 -19 q9 10 20 25 q12 18 12 33 q0 43 -72 43 q-77 -10 -157 -48 l-21 89 q105 46 201 49 q56 0 101 -31 q42 -34 42 -100 q0 -29 -23 -69 l-10 -14 q72 -19 85 -24 l-26 -92 q-58 14 -130 33 q-36 -36 -44 -43 q181 -54 209 -69 l-22 -79 q-150 52 -382 113 l-11 3 q-75 -45 -180 -96 q2 -2 4 -6 q60 13 141 20 q-6 11 -6 25 q3 34 40 39 q16 0 35 -14 q17 -13 42 -45 q127 -2 174 -40 q40 -34 40 -81 l0 -33 q0 -85 -53 -118 q-12 -8 -17 -10 l30 -13 q24 28 51 55 q24 21 47 21 q36 -5 41 -41 q-2 -22 -19 -45 l-31 -32 l61 -32 l-45 -80 q-144 66 -277 129 q-10 6 -15 15 l-29 0 q-107 0 -222 14 q3 -30 19 -45 q20 -23 75 -23 q44 0 147 36 l0 -89 q-95 -35 -160 -37 q-86 0 -128 36 q-44 39 -48 103 q0 132 16 247 q-126 -61 -160 -76 l-42 94 l297 149 q35 41 53 74 q8 8 8 28 q0 21 -13 21 q-65 0 -180 -41 q47 -7 77 -16 q32 -9 34 -33 q-2 -32 -40 -33 q-61 2 -100 10 q-6 -37 -9 -71 l-88 20 q34 232 47 259 q18 26 42 26 q39 -3 42 -42 q-2 -19 -7 -40 q19 6 55 16 q-2 21 -7 60 l-7 54 q2 61 45 65 q31 0 40 -21 q5 -9 8 -23 q48 4 102 5 ZM346 249 q-1 -5 -1 -11 l0 -4 q77 7 248 10 q65 0 65 -42 q-3 -33 -39 -36 q-196 0 -282 -9 q-1 -5 -1 -11 q93 -13 234 -15 q86 0 120 15 q23 9 23 62 q0 41 -20 56 q-18 12 -109 12 q-136 -3 -238 -27 Z" /><glyph glyph-name="" unicode="&#x53c2;" d="M340 813 q53 -3 56 -41 q0 -17 -18 -29 q-68 -64 -79 -77 q-12 -13 -12 -18 q0 -13 25 -13 q84 0 175 12 q61 6 176 29 l-22 30 q-16 15 -16 38 q3 43 46 48 q30 0 57 -27 q47 -52 117 -169 l-100 -60 l-30 55 q-99 -25 -190 -35 q-50 -6 -92 -9 q7 -17 8 -36 l0 -2 q194 8 411 11 q74 -3 78 -51 q-3 -47 -54 -50 q-64 -2 -93 -2 q76 -47 163 -109 l-55 -96 q-130 85 -217 145 l4 -17 q-1 -32 -33 -47 q-94 -41 -366 -70 l-14 67 q-77 -90 -117 -151 l-97 69 q69 89 142 177 q-61 -4 -119 -6 l0 101 q89 12 220 21 l41 41 l-41 0 q-72 0 -110 28 q-32 22 -32 74 q0 23 21 50 q24 30 99 92 q34 24 68 27 ZM297 327 q150 15 271 50 q42 10 62 10 l14 -3 q-10 13 -11 29 q-176 -7 -271 -13 l-65 -73 ZM752 263 q44 -4 49 -48 q-1 -33 -33 -48 q-141 -58 -529 -97 l-21 102 q246 21 445 76 q54 15 89 15 ZM832 115 q49 -5 53 -52 q-1 -35 -36 -53 q-169 -62 -660 -107 l-23 110 q313 24 556 84 q68 18 110 18 Z" /><glyph glyph-name="" unicode="&#x6b8b;" d="M387 767 q88 0 88 -57 q-3 -44 -53 -48 l-127 -1 q-3 -32 -23 -72 q-8 -16 -18 -40 q33 5 67 6 q55 0 94 -41 q42 -52 42 -107 l0 -24 q0 -61 -40 -166 q-70 -166 -146 -278 q-25 -22 -47 -22 q-52 0 -52 55 q0 27 22 52 q74 117 118 232 q32 76 32 121 q0 40 -9 61 q-12 24 -23 24 q-53 -4 -107 -21 l-27 -64 q11 -1 26 -8 q69 -33 103 -53 l-48 -97 q-49 38 -101 65 q-11 5 -14 9 q-22 -53 -32 -87 l-86 60 q102 276 156 393 q-78 -3 -116 -8 l0 105 q62 8 321 11 ZM482 639 q72 -2 104 -2 q-3 51 -3 108 q2 64 57 68 q49 -4 52 -62 q0 -81 2 -117 q68 -2 165 -8 q51 -15 51 -65 q-6 -41 -47 -45 q-25 0 -82 6 l-81 6 q6 -73 19 -137 q48 9 93 21 q44 11 68 11 q46 -3 51 -49 q-1 -36 -35 -51 q-53 -21 -148 -39 q19 -60 39 -100 q72 26 99 28 q54 -3 57 -53 q-3 -32 -38 -50 l-28 -12 q-17 -7 -26 -10 q36 -40 102 -75 l-53 -103 q-98 41 -164 132 q-201 -79 -212 -79 l-21 102 q39 18 94 42 l82 35 q-25 52 -44 126 q-80 -11 -146 -17 l-23 106 q69 5 146 17 q-14 82 -19 160 l-119 3 l8 103 ZM838 813 q19 0 41 -20 q22 -23 61 -85 l-84 -65 q-27 48 -45 72 q-22 18 -22 49 q4 43 49 49 Z" /><glyph glyph-name="" unicode="&#x60e8;" d="M600 817 q42 -3 45 -38 q-3 -22 -17 -33 q-58 -65 -70 -85 q-11 -19 -11 -30 q0 -13 20 -13 q71 0 182 32 q-8 9 -24 25 q-20 16 -20 46 q3 41 45 45 q36 0 69 -36 q40 -40 105 -148 l-77 -60 l-36 52 q-81 -24 -153 -38 q14 -12 16 -42 l-1 -5 q82 5 175 17 q32 2 44 2 q51 -1 57 -50 q-3 -38 -45 -47 q-18 -3 -45 -6 q41 -44 108 -155 l-75 -58 q-81 114 -140 170 q-16 11 -19 31 l-65 -5 q-30 -3 -56 -3 l-58 -78 q82 13 141 35 q21 9 35 9 q40 -3 43 -42 q-1 -29 -29 -43 q-55 -32 -207 -53 l-11 54 q-59 -84 -91 -143 l-86 60 q61 98 127 195 q-30 -1 -89 -1 l0 97 q83 2 161 6 q21 27 32 40 l5 4 q-12 -2 -32 -2 l-28 -1 q-47 0 -74 27 q-26 25 -26 66 q0 64 101 171 q35 28 74 31 ZM800 233 q41 -3 44 -43 q-1 -29 -31 -44 q-76 -47 -292 -79 l-19 92 q143 18 249 61 q33 13 49 13 ZM865 92 q43 -3 48 -46 q-1 -33 -33 -48 q-109 -51 -419 -87 l-22 99 q202 20 356 69 q46 13 70 13 ZM153 676 q46 -3 49 -47 q0 -11 -7 -39 q-43 -151 -43 -185 q0 -71 56 -72 q10 161 37 418 q9 56 58 62 q47 -3 51 -62 q-6 -76 -31 -308 q-3 -26 -7 -83 q27 9 60 21 l0 -94 q-39 -18 -66 -26 q-11 -151 -14 -346 l-106 0 q0 151 11 321 q-4 -1 -9 -1 l-16 0 q-52 0 -93 44 q-32 35 -32 98 q0 85 54 265 q15 34 48 34 Z" /><glyph glyph-name="" unicode="&#x707f;" d="M101 645 q41 -3 55 -36 q14 -39 35 -78 q50 200 75 238 q23 32 52 32 q51 -3 54 -52 q-6 -64 -43 -158 l-6 -18 l18 15 q42 34 64 34 q49 -3 52 -57 q0 -31 -37 -54 q-45 -42 -99 -87 l-31 39 q-27 -91 -52 -202 l7 -3 q75 -35 151 -41 l-28 -125 q-87 10 -158 44 q-27 -128 -44 -233 l-110 24 q69 330 117 531 l-58 -37 q-65 121 -65 168 q1 50 51 56 ZM719 809 q48 -3 52 -64 q-2 -72 -13 -277 q-10 -216 -11 -424 q49 17 65 73 q22 46 22 215 q0 81 -9 153 q-10 67 -23 124 q-2 7 -2 22 q0 50 48 53 q42 -3 57 -51 q16 -64 26 -149 q8 -90 8 -180 q0 -226 -51 -298 q-44 -77 -185 -80 l-29 0 q-108 0 -171 68 q-60 72 -60 246 q0 62 13 183 q15 135 24 205 q15 43 51 44 q52 -1 55 -55 l-2 -22 q-18 -125 -27 -215 q-8 -63 -8 -103 q0 -149 30 -188 q22 -31 58 -43 q2 260 21 699 q9 58 61 64 Z" /><glyph glyph-name="" unicode="&#x4ed3;" d="M521 811 q49 -6 55 -55 q-2 -17 -7 -28 q3 -3 7 -3 q108 -70 381 -199 l-37 -111 q-296 141 -399 211 q-22 9 -33 19 q-183 -147 -353 -291 l-95 78 q210 202 418 351 q31 28 63 28 ZM624 481 q71 0 117 -34 q42 -37 42 -85 l0 -12 q0 -39 -16 -109 q-19 -67 -41 -111 q-12 -36 -72 -36 q-42 0 -42 59 q31 61 44 109 q14 50 14 78 q0 17 -17 26 q-23 10 -53 10 q-101 -3 -196 -43 l-4 -14 q-27 -147 -27 -208 q0 -85 176 -85 q124 0 276 28 l0 -101 q-159 -29 -282 -29 l-56 0 q-83 0 -166 49 q-65 41 -65 118 q0 100 48 326 q7 61 61 64 q40 -2 52 -32 q80 26 171 32 l36 0 Z" /><glyph glyph-name="" unicode="&#x6ca7;" d="M109 485 q31 0 171 -82 l-62 -110 q-85 52 -135 85 q-31 22 -33 56 q6 48 59 51 ZM153 755 q33 0 179 -85 l-62 -111 q-99 59 -143 88 q-31 24 -33 57 q6 48 59 51 ZM243 150 q52 -4 57 -56 q-1 -38 -39 -56 q-49 -32 -191 -56 l-25 118 q96 12 165 41 q20 9 33 9 ZM661 807 q44 -6 50 -50 q-2 -17 -9 -32 q1 -1 2 -1 q108 -78 258 -246 l-84 -73 q-94 108 -133 143 q-40 37 -116 93 q-124 -130 -251 -269 l-85 70 q153 192 311 339 q29 26 57 26 ZM711 442 q56 0 93 -31 q34 -34 34 -75 l0 -10 q0 -34 -11 -95 q-14 -63 -27 -98 q-12 -35 -71 -35 q-42 0 -42 59 q19 51 29 92 q9 39 9 65 q0 10 -9 16 q-14 7 -29 7 q-69 -2 -130 -22 l-3 -17 q-22 -139 -22 -202 q0 -82 124 -82 q97 0 217 34 l0 -102 q-123 -33 -223 -33 l-46 0 q-70 0 -136 48 q-53 41 -53 116 q0 99 37 317 q7 62 62 65 q40 -3 52 -34 q57 13 117 17 l28 0 Z" /><glyph glyph-name="" unicode="&#x85cf;" d="M867 764 q71 -3 75 -49 q-3 -45 -51 -48 q-104 -2 -147 -2 q-10 -28 -19 -67 q4 -7 5 -13 q3 -26 9 -47 l77 1 l-13 30 q-14 14 -14 33 q3 37 40 42 q25 0 50 -23 q15 -21 38 -70 l-36 -22 q22 -12 25 -37 q-3 -44 -50 -47 l-98 -1 q21 -99 49 -187 q21 38 33 55 q15 31 51 34 q39 -3 45 -43 q0 -12 -6 -30 q-41 -71 -78 -140 q37 -91 87 -185 l-89 -45 q-31 48 -60 113 q-31 -62 -43 -92 l-94 48 q75 142 89 166 q-39 110 -76 271 l-7 33 q-140 -3 -203 -7 q-58 -5 -107 -6 q-7 -42 -19 -133 q-22 -181 -27 -380 l-98 0 q0 88 9 203 l-30 0 q-4 -18 -7 -26 q-22 -75 -37 -183 l-88 19 q24 132 39 186 q-28 -3 -40 -6 l0 92 q29 7 149 10 l22 -1 q2 28 4 42 q-7 -1 -19 -1 l-17 0 q-45 0 -78 24 q-36 30 -36 87 q0 59 42 140 q9 38 46 41 q41 -3 44 -41 q0 -10 -22 -51 q-20 -43 -20 -71 q0 -25 8 -33 q6 -10 22 -10 q21 0 40 4 q7 67 23 175 q9 54 53 58 q40 -3 47 -48 q127 7 282 11 q-4 21 -4 37 q0 14 5 24 l-24 5 q9 33 18 60 q-174 -4 -293 -9 l15 -67 l-113 -24 l-16 84 q-81 -6 -158 -6 l0 98 q60 5 138 9 q-2 10 -2 13 q3 53 48 56 q56 0 65 -61 l1 -3 q153 5 350 9 q10 23 14 27 q21 29 49 29 q46 -3 49 -50 l-1 -5 l85 1 ZM594 407 q70 0 70 -46 q-3 -35 -42 -38 l-23 0 q3 -24 9 -45 q26 -7 43 -21 q31 -28 33 -71 l0 -25 q0 -60 -33 -77 q-30 -15 -69 -18 q6 -36 10 -54 q10 1 56 8 l0 -86 q-90 -16 -156 -16 l-20 0 q-57 0 -95 38 q-31 30 -31 87 q0 184 43 352 q9 33 45 33 q35 -3 43 -27 q45 3 117 6 ZM507 4 l-13 62 q-40 4 -58 8 l0 -20 q0 -23 9 -34 q12 -16 43 -16 l19 0 ZM441 151 q52 -10 100 -13 q27 0 39 5 q14 3 14 28 q0 24 -18 33 q-17 5 -39 5 q-13 0 -90 -10 q-4 -25 -6 -48 ZM460 277 q40 4 60 5 q-6 22 -9 38 q-24 -1 -43 -3 l-8 -40 Z" /><glyph glyph-name="" unicode="&#x64cd;" d="M242 805 q45 0 48 -52 q4 -38 10 -112 l3 0 q80 -3 84 -54 q-3 -51 -58 -55 l-21 0 q6 -92 8 -133 q9 3 16 3 q30 -3 42 -19 l0 30 q0 58 35 87 q28 18 85 23 l21 0 q53 0 91 -32 q35 -30 37 -98 l0 -19 q0 -47 -31 -75 q-33 -26 -86 -26 l-28 0 q-65 0 -100 38 q-8 8 -13 22 q-7 -27 -35 -39 q-13 -10 -29 -18 q3 -94 3 -184 q-3 -173 -127 -177 q-66 0 -119 35 l-4 104 q50 -30 97 -30 q44 0 44 111 q0 26 -3 99 q-57 -17 -137 -31 l-25 114 q82 12 156 38 l-10 173 l-57 -4 q-40 -6 -77 -6 l0 110 q55 7 127 10 l-7 111 q0 53 60 56 ZM503 359 q31 0 39 8 q11 6 11 19 q0 25 -10 37 q-12 14 -34 14 q-30 0 -36 -8 q-9 -7 -9 -26 q0 -26 5 -35 q6 -9 34 -9 ZM663 811 q91 0 156 -34 q59 -32 62 -104 l0 -20 q0 -57 -52 -91 q-58 -32 -147 -32 l-46 0 q-105 0 -161 42 q-39 30 -39 93 l0 19 q0 67 57 100 q42 21 137 27 l33 0 ZM652 635 q75 0 94 10 q25 6 25 24 q0 18 -25 27 q-32 10 -91 10 q-67 0 -88 -7 q-22 -7 -22 -25 q0 -22 15 -31 q13 -8 92 -8 ZM807 528 q58 0 101 -29 q39 -30 40 -91 l0 -18 q0 -54 -32 -86 q-36 -30 -90 -30 l-29 0 q-69 0 -105 39 q-25 26 -25 86 l0 18 q0 59 35 88 q28 19 84 23 l21 0 ZM803 360 q32 0 41 13 q10 8 10 30 q0 20 -11 29 q-15 10 -42 10 q-26 0 -32 -8 q-8 -7 -8 -26 q0 -27 6 -39 q5 -9 36 -9 ZM882 241 q71 -3 75 -49 q-3 -46 -52 -49 l-194 -5 q0 -11 2 -35 q6 -145 6 -188 l-106 0 q-1 86 -3 147 q-46 -35 -202 -151 l-56 72 q63 54 148 122 l28 22 q-75 -9 -143 -12 l0 98 q76 11 218 19 q-1 9 -1 24 q0 49 48 49 q54 -1 54 -57 q0 -6 1 -11 q58 2 177 4 ZM782 102 q32 0 165 -84 l-52 -93 l-135 87 q-26 21 -28 48 q4 39 50 42 Z" /></font>
</defs>
</svg>
